<svg width="95" height="92" viewBox="0 0 95 92" fill="none" xmlns="http://www.w3.org/2000/svg">
    <g clip-path="url(#clip0_463_173)">
        <path d="M66.6696 91.6895C66.5702 91.7938 66.4669 91.8969 66.3623 92H54.4327C54.3346 91.8995 54.2379 91.7964 54.1411 91.6895C54.1372 91.6855 54.1332 91.6803 54.1293 91.6764C52.8333 90.2438 52.0173 88.1614 51.5085 85.9656C51.4758 85.8325 51.4471 85.6981 51.4183 85.5624C51.2849 84.9453 51.1763 84.3216 51.0874 83.7031C51.0717 83.5962 51.056 83.4892 51.0429 83.3822C50.9226 82.4936 50.8415 81.6195 50.7892 80.7988C50.7827 80.6931 50.7762 80.59 50.7696 80.4869C50.6738 78.8531 50.6729 77.2151 50.767 75.5811C50.767 75.5811 50.7827 75.5811 50.8128 75.5824C50.9004 75.5863 51.1109 75.5955 51.4209 75.6137C52.2749 75.6659 53.8861 75.7964 55.781 76.1043C55.8843 76.1213 55.989 76.1395 56.0936 76.1578C57.6964 76.422 59.2775 76.8041 60.8238 77.3008C60.9206 77.3334 61.0161 77.366 61.1128 77.3986L61.1142 77.4051L62.3003 83.343L62.7921 78.0575C63.1831 78.2337 63.5637 78.4215 63.9285 78.6225C64.0305 78.6786 64.1299 78.7347 64.228 78.7921C65.0621 79.2637 65.8193 79.8594 66.4734 80.5587C70.3641 84.8604 69.531 88.7055 66.6696 91.6895Z"
              fill="#F2F2F2"/>
        <path d="M61.6843 84.1601L61.8911 84.3887C64.2816 87.0579 65.7083 89.5356 66.1478 91.7891C66.1548 91.8218 66.1596 91.8544 66.1666 91.8872L66.0137 91.9161L65.8663 91.942C65.4177 89.4851 63.7475 86.9454 61.663 84.6167C61.5966 84.5409 61.5291 84.4641 61.4594 84.3893C60.5683 83.4113 59.6102 82.473 58.6414 81.5957C58.567 81.5271 58.4905 81.4585 58.4139 81.3898C57.1292 80.2384 55.8367 79.1967 54.6841 78.3187C54.6029 78.2563 54.5205 78.1949 54.4392 78.1346C52.4821 76.6564 50.9636 75.6766 50.6251 75.4618C50.5843 75.4349 50.5612 75.4208 50.556 75.4173L50.6361 75.2897L50.6362 75.2875L50.7175 75.1589C50.7227 75.1624 50.8003 75.2095 50.9406 75.3009C51.4675 75.6397 52.8835 76.5722 54.645 77.8979C54.7242 77.9581 54.8065 78.0195 54.8877 78.0819C55.8238 78.7935 56.8477 79.6088 57.8817 80.5013C58.1418 80.7251 58.3954 80.9485 58.6426 81.1716C58.7202 81.2392 58.7968 81.3079 58.8712 81.3764C59.9186 82.3247 60.8563 83.2525 61.6843 84.1601Z"
              fill="white"/>
        <path d="M55.8935 75.8512C55.8582 75.936 55.8203 76.0208 55.781 76.1043C55.4823 76.7492 55.1002 77.3524 54.6446 77.8983C54.5779 77.9766 54.5099 78.0562 54.4393 78.1345C54.2483 78.3446 54.0452 78.5477 53.8298 78.7438C52.9487 79.5396 51.9044 80.1344 50.7696 80.4869C50.733 80.4987 50.6977 80.5104 50.6611 80.5209C50.6676 80.6239 50.6742 80.7257 50.6807 80.8314C50.7173 80.821 50.7526 80.8105 50.7892 80.7988C51.9933 80.4366 53.1016 79.8118 54.0338 78.9695C54.2618 78.764 54.4788 78.5467 54.6838 78.3185C54.7544 78.2415 54.8225 78.1619 54.8879 78.0823C55.3751 77.4981 55.7807 76.8507 56.0936 76.1578C56.1302 76.0743 56.1668 75.9908 56.2021 75.906C56.0975 75.8877 55.9942 75.8695 55.8935 75.8512Z"
              fill="white"/>
        <path d="M60.8775 77.0698C60.8618 77.1468 60.8434 77.2238 60.8238 77.3008C60.4693 78.7675 59.7142 80.1075 58.6425 81.1719C58.5679 81.2463 58.492 81.3194 58.4136 81.3898C58.3913 81.412 58.3665 81.4355 58.343 81.4564C57.3681 82.3345 56.1969 82.9674 54.927 83.3024C53.6572 83.6374 52.3255 83.6647 51.043 83.3822C51.0129 83.3769 50.9815 83.3691 50.9514 83.3626C50.9671 83.4696 50.9815 83.5779 50.9985 83.6849C51.0286 83.6914 51.0574 83.6979 51.0875 83.7031C52.4026 83.9746 53.7633 83.9331 55.0593 83.5819C56.3553 83.2308 57.5501 82.5799 58.547 81.6821C58.5784 81.6534 58.6111 81.626 58.6412 81.596C58.7196 81.5229 58.7955 81.4498 58.8714 81.3768C59.9681 80.2818 60.7437 78.9084 61.1142 77.4051C61.1338 77.3269 61.1521 77.2486 61.1691 77.1703C61.0723 77.1364 60.9755 77.1024 60.8775 77.0698Z"
              fill="white"/>
        <path d="M63.9285 78.402C63.9298 78.475 63.9298 78.5494 63.9285 78.6225C63.9067 80.6845 63.1051 82.6622 61.6843 84.1598C61.6111 84.2381 61.5352 84.3138 61.4594 84.3894C61.377 84.469 61.2946 84.5486 61.2096 84.6243C59.894 85.8073 58.2321 86.537 56.4692 86.7059C54.7062 86.8748 52.9355 86.474 51.4183 85.5624C51.3923 85.5489 51.3669 85.5341 51.3424 85.518C51.3738 85.6563 51.4052 85.792 51.4392 85.9277C51.4627 85.9408 51.4849 85.9538 51.5085 85.9656C53.0697 86.834 54.864 87.1935 56.6402 86.9937C58.4164 86.7939 60.0855 86.0448 61.4136 84.8513C61.4986 84.7743 61.5836 84.6974 61.6634 84.6165C61.7419 84.5421 61.8164 84.4664 61.891 84.3881C63.3318 82.8721 64.1636 80.8803 64.228 78.7921C64.2306 78.7216 64.2319 78.6512 64.2319 78.5807C64.1325 78.5194 64.0305 78.4607 63.9285 78.402Z"
              fill="white"/>
        <path d="M37.4897 21.6037H14.5009C14.3096 21.6035 14.1262 21.5276 13.9909 21.3926C13.8556 21.2576 13.7795 21.0747 13.7793 20.8838V3.46874C13.7795 3.27787 13.8556 3.09488 13.9909 2.95991C14.1261 2.82493 14.3096 2.74901 14.5009 2.74878H42.7186C42.9099 2.74901 43.0933 2.82493 43.2286 2.95991C43.3638 3.09488 43.4399 3.27787 43.4401 3.46874V15.6671C43.4384 17.2411 42.8109 18.75 41.6953 19.863C40.5798 20.9759 39.0673 21.6019 37.4897 21.6037Z"
              fill="white"/>
        <path d="M37.4898 21.6689H14.5009C14.2923 21.6687 14.0922 21.5859 13.9447 21.4387C13.7972 21.2915 13.7142 21.0919 13.7139 20.8838V3.46873C13.7142 3.26057 13.7971 3.06099 13.9447 2.91379C14.0922 2.76659 14.2922 2.68378 14.5009 2.68353H42.7186C42.9272 2.68377 43.1273 2.76658 43.2748 2.91378C43.4223 3.06098 43.5053 3.26057 43.5055 3.46873V15.6671C43.5037 17.2583 42.8693 18.7839 41.7416 19.909C40.6138 21.0342 39.0847 21.6671 37.4898 21.6689ZM14.5009 2.94448C14.3616 2.94465 14.228 2.99994 14.1295 3.09822C14.031 3.19651 13.9756 3.32975 13.9755 3.46873V20.8838C13.9756 21.0228 14.031 21.156 14.1295 21.2543C14.228 21.3525 14.3616 21.4078 14.5009 21.408H37.4898C39.0154 21.4063 40.478 20.8009 41.5567 19.7246C42.6355 18.6484 43.2423 17.1892 43.244 15.6671V3.46873C43.2438 3.32975 43.1884 3.19651 43.0899 3.09822C42.9914 2.99994 42.8579 2.94465 42.7186 2.94448H14.5009Z"
              fill="#CCCCCC"/>
        <path d="M37.1406 8.63012H20.0788C19.9222 8.63012 19.7719 8.56804 19.6612 8.45754C19.5504 8.34704 19.4882 8.19717 19.4882 8.04089C19.4882 7.88462 19.5504 7.73474 19.6612 7.62424C19.7719 7.51374 19.9222 7.45166 20.0788 7.45166H37.1406C37.2971 7.45189 37.4471 7.51407 37.5577 7.62455C37.6683 7.73503 37.7304 7.88477 37.7304 8.04089C37.7304 8.19701 37.6683 8.34675 37.5577 8.45723C37.4471 8.56771 37.2971 8.62989 37.1406 8.63012Z"
              fill="#CCCCCC"/>
        <path d="M37.1406 12.6893H20.0788C19.9222 12.6893 19.7719 12.6272 19.6612 12.5167C19.5504 12.4062 19.4882 12.2563 19.4882 12.1C19.4882 11.9438 19.5504 11.7939 19.6612 11.6834C19.7719 11.5729 19.9222 11.5108 20.0788 11.5108H37.1406C37.2973 11.5108 37.4475 11.5729 37.5583 11.6834C37.669 11.7939 37.7312 11.9438 37.7312 12.1C37.7312 12.2563 37.669 12.4062 37.5583 12.5167C37.4475 12.6272 37.2973 12.6893 37.1406 12.6893Z"
              fill="#CCCCCC"/>
        <path d="M37.1406 16.8645H20.0788C19.9222 16.8645 19.7719 16.8024 19.6612 16.6919C19.5504 16.5814 19.4882 16.4315 19.4882 16.2753C19.4882 16.119 19.5504 15.9691 19.6612 15.8586C19.7719 15.7481 19.9222 15.686 20.0788 15.686H37.1406C37.2973 15.686 37.4475 15.7481 37.5583 15.8586C37.669 15.9691 37.7312 16.119 37.7312 16.2753C37.7312 16.4315 37.669 16.5814 37.5583 16.6919C37.4475 16.8024 37.2973 16.8645 37.1406 16.8645Z"
              fill="#CCCCCC"/>
        <path d="M42.5067 7.03739C44.4546 7.03739 46.0336 5.46202 46.0336 3.51869C46.0336 1.57537 44.4546 0 42.5067 0C40.5589 0 38.9798 1.57537 38.9798 3.51869C38.9798 5.46202 40.5589 7.03739 42.5067 7.03739Z"
              fill="#19B1B6"/>
        <path d="M42.0256 5.35002C41.9647 5.35002 41.9046 5.33586 41.8501 5.30868C41.7957 5.2815 41.7483 5.24204 41.7118 5.19342L40.7496 3.91346C40.7187 3.87234 40.6962 3.82555 40.6834 3.77576C40.6706 3.72597 40.6678 3.67415 40.6751 3.62327C40.6823 3.57239 40.6996 3.52344 40.7259 3.47921C40.7521 3.43498 40.7868 3.39635 40.828 3.36551C40.8693 3.33467 40.9162 3.31223 40.9661 3.29948C41.016 3.28672 41.0679 3.2839 41.1189 3.29117C41.1699 3.29844 41.219 3.31566 41.2633 3.34185C41.3076 3.36804 41.3464 3.40269 41.3773 3.44381L42.0068 4.28112L43.6236 1.86161C43.6813 1.77524 43.771 1.71528 43.873 1.69492C43.9751 1.67456 44.081 1.69547 44.1676 1.75306C44.2542 1.81064 44.3143 1.90018 44.3347 2.00197C44.3551 2.10376 44.3341 2.20947 44.2764 2.29585L42.352 5.17571C42.3172 5.22779 42.2704 5.27079 42.2155 5.3011C42.1606 5.33141 42.0992 5.34814 42.0365 5.34989C42.0329 5.34996 42.0292 5.35002 42.0256 5.35002Z"
              fill="white"/>
        <path d="M29.0047 36.7294H6.01579C4.4382 36.7277 2.92572 36.1016 1.81019 34.9887C0.694665 33.8758 0.067179 32.3668 0.0653992 30.7929V18.5944C0.0656238 18.4035 0.141726 18.2205 0.277011 18.0856C0.412296 17.9506 0.595718 17.8747 0.78704 17.8745H29.0047C29.196 17.8747 29.3794 17.9506 29.5147 18.0856C29.65 18.2205 29.7261 18.4035 29.7263 18.5944V36.0095C29.7261 36.2003 29.65 36.3833 29.5147 36.5183C29.3794 36.6533 29.196 36.7292 29.0047 36.7294Z"
              fill="white"/>
        <path d="M29.0046 36.7947H6.01578C4.42085 36.7929 2.89177 36.1599 1.76398 35.0348C0.636199 33.9096 0.00181339 32.3841 0 30.7929V18.5944C0.000236409 18.3862 0.0832316 18.1866 0.230777 18.0394C0.378322 17.8922 0.578369 17.8094 0.78703 17.8092H29.0046C29.2133 17.8094 29.4134 17.8922 29.5609 18.0394C29.7084 18.1866 29.7914 18.3862 29.7917 18.5944V36.0095C29.7914 36.2176 29.7084 36.4172 29.5609 36.5644C29.4134 36.7116 29.2133 36.7944 29.0046 36.7947ZM0.78703 18.0702C0.647717 18.0703 0.514158 18.1256 0.415649 18.2239C0.31714 18.3222 0.261724 18.4554 0.261556 18.5944V30.7929C0.263279 32.3149 0.870079 33.7741 1.94883 34.8504C3.02759 35.9266 4.49019 36.532 6.01578 36.5337H29.0046C29.144 36.5336 29.2775 36.4783 29.376 36.38C29.4746 36.2817 29.53 36.1485 29.5301 36.0095V18.5944C29.53 18.4554 29.4745 18.3222 29.376 18.2239C29.2775 18.1256 29.144 18.0703 29.0046 18.0702H0.78703Z"
              fill="#CCCCCC"/>
        <path d="M23.4268 23.7559H6.36493C6.20829 23.7559 6.05806 23.6938 5.94731 23.5833C5.83655 23.4728 5.77432 23.3229 5.77432 23.1666C5.77432 23.0104 5.83655 22.8605 5.94731 22.75C6.05806 22.6395 6.20829 22.5774 6.36493 22.5774H23.4268C23.5834 22.5774 23.7336 22.6395 23.8444 22.75C23.9552 22.8605 24.0174 23.0104 24.0174 23.1666C24.0174 23.3229 23.9552 23.4728 23.8444 23.5833C23.7336 23.6938 23.5834 23.7559 23.4268 23.7559Z"
              fill="#CCCCCC"/>
        <path d="M23.4268 27.815H6.36493C6.20829 27.815 6.05806 27.7529 5.94731 27.6424C5.83655 27.5319 5.77432 27.382 5.77432 27.2258C5.77432 27.0695 5.83655 26.9196 5.94731 26.8091C6.05806 26.6986 6.20829 26.6365 6.36493 26.6365H23.4268C23.5834 26.6365 23.7336 26.6986 23.8444 26.8091C23.9552 26.9196 24.0174 27.0695 24.0174 27.2258C24.0174 27.382 23.9552 27.5319 23.8444 27.6424C23.7336 27.7529 23.5834 27.815 23.4268 27.815Z"
              fill="#CCCCCC"/>
        <path d="M23.4268 31.9902H6.36493C6.20829 31.9902 6.05806 31.9281 5.94731 31.8176C5.83655 31.7071 5.77432 31.5572 5.77432 31.4009C5.77432 31.2447 5.83655 31.0948 5.94731 30.9843C6.05806 30.8738 6.20829 30.8117 6.36493 30.8117H23.4268C23.5834 30.8117 23.7336 30.8738 23.8444 30.9843C23.9552 31.0948 24.0174 31.2447 24.0174 31.4009C24.0174 31.5572 23.9552 31.7071 23.8444 31.8176C23.7336 31.9281 23.5834 31.9902 23.4268 31.9902Z"
              fill="#CCCCCC"/>
        <path d="M29.0366 22.3029C30.9844 22.3029 32.5635 20.7275 32.5635 18.7842C32.5635 16.8409 30.9844 15.2655 29.0366 15.2655C27.0887 15.2655 25.5097 16.8409 25.5097 18.7842C25.5097 20.7275 27.0887 22.3029 29.0366 22.3029Z"
              fill="#19B1B6"/>
        <path d="M28.5555 20.6155C28.4946 20.6155 28.4345 20.6013 28.38 20.5741C28.3255 20.5469 28.2782 20.5075 28.2416 20.4589L27.2794 19.1789C27.2485 19.1378 27.226 19.091 27.2133 19.0412C27.2005 18.9914 27.1976 18.9396 27.2049 18.8887C27.2122 18.8378 27.2295 18.7889 27.2557 18.7446C27.282 18.7004 27.3167 18.6618 27.3579 18.631C27.3991 18.6001 27.446 18.5777 27.4959 18.5649C27.5459 18.5522 27.5978 18.5493 27.6488 18.5566C27.6998 18.5639 27.7489 18.5811 27.7932 18.6073C27.8375 18.6335 27.8762 18.6681 27.9072 18.7092L28.5366 19.5466L30.1534 17.1271C30.2111 17.0407 30.3009 16.9807 30.4029 16.9604C30.5049 16.94 30.6109 16.9609 30.6975 17.0185C30.7841 17.0761 30.8442 17.1656 30.8646 17.2674C30.885 17.3692 30.864 17.4749 30.8063 17.5613L28.8819 20.4412C28.8471 20.4932 28.8003 20.5362 28.7454 20.5665C28.6905 20.5968 28.6291 20.6136 28.5664 20.6153C28.5627 20.6154 28.5591 20.6155 28.5555 20.6155Z"
              fill="white"/>
        <path d="M57.6482 52.9621H25.4816C23.904 52.9603 22.3915 52.3343 21.276 51.2214C20.1605 50.1084 19.533 48.5995 19.5312 47.0255V29.0836C19.5315 28.8375 19.6296 28.6016 19.804 28.4276C19.9783 28.2537 20.2148 28.1558 20.4614 28.1555H57.6482C57.8948 28.1558 58.1312 28.2537 58.3056 28.4277C58.48 28.6016 58.5781 28.8375 58.5783 29.0836V52.034C58.5781 52.2801 58.48 52.5159 58.3056 52.6899C58.1312 52.8639 57.8948 52.9618 57.6482 52.9621Z"
              fill="white"/>
        <path d="M57.6482 53.0274H25.4816C23.8866 53.0256 22.3576 52.3927 21.2298 51.2675C20.102 50.1423 19.4676 48.6168 19.4658 47.0256V29.0836C19.4661 28.8203 19.5711 28.5678 19.7577 28.3816C19.9444 28.1954 20.1974 28.0906 20.4614 28.0903H57.6482C57.9121 28.0906 58.1652 28.1954 58.3518 28.3816C58.5384 28.5678 58.6434 28.8203 58.6437 29.0836V52.0341C58.6434 52.2974 58.5385 52.5499 58.3518 52.7361C58.1652 52.9223 57.9122 53.0271 57.6482 53.0274ZM20.4614 28.3513C20.2668 28.3515 20.0802 28.4287 19.9426 28.566C19.805 28.7033 19.7276 28.8895 19.7273 29.0836V47.0256C19.7291 48.5476 20.3359 50.0068 21.4146 51.0831C22.4934 52.1593 23.956 52.7647 25.4816 52.7664H57.6482C57.8428 52.7662 58.0294 52.689 58.167 52.5517C58.3046 52.4144 58.382 52.2282 58.3822 52.0341V29.0836C58.3819 28.8895 58.3046 28.7033 58.167 28.566C58.0294 28.4287 57.8428 28.3515 57.6482 28.3513H20.4614Z"
              fill="#CCCCCC"/>
        <path d="M50.2973 35.8856H27.8122C27.7099 35.8857 27.6086 35.8657 27.5141 35.8267C27.4195 35.7878 27.3336 35.7306 27.2612 35.6585C27.1888 35.5864 27.1314 35.5007 27.0922 35.4064C27.0531 35.3122 27.0329 35.2111 27.0329 35.109C27.0329 35.007 27.0531 34.9059 27.0922 34.8116C27.1314 34.7174 27.1888 34.6317 27.2612 34.5596C27.3336 34.4875 27.4195 34.4303 27.5141 34.3913C27.6086 34.3524 27.7099 34.3324 27.8122 34.3325H50.2973C50.3996 34.3324 50.5009 34.3524 50.5955 34.3913C50.69 34.4303 50.7759 34.4875 50.8483 34.5596C50.9207 34.6317 50.9781 34.7174 51.0173 34.8116C51.0565 34.9059 51.0766 35.007 51.0766 35.109C51.0766 35.2111 51.0565 35.3122 51.0173 35.4064C50.9781 35.5007 50.9207 35.5864 50.8483 35.6585C50.7759 35.7306 50.69 35.7878 50.5955 35.8267C50.5009 35.8657 50.3996 35.8857 50.2973 35.8856Z"
              fill="#CCCCCC"/>
        <path d="M50.2973 41.235H27.8122C27.7099 41.2351 27.6086 41.2151 27.5141 41.1762C27.4195 41.1372 27.3336 41.08 27.2612 41.0079C27.1888 40.9358 27.1314 40.8501 27.0922 40.7559C27.0531 40.6616 27.0329 40.5605 27.0329 40.4585C27.0329 40.3564 27.0531 40.2553 27.0922 40.1611C27.1314 40.0668 27.1888 39.9811 27.2612 39.909C27.3336 39.8369 27.4195 39.7797 27.5141 39.7408C27.6086 39.7018 27.7099 39.6818 27.8122 39.6819H50.2973C50.5037 39.6819 50.7017 39.7638 50.8477 39.9094C50.9936 40.055 51.0756 40.2525 51.0756 40.4585C51.0756 40.6644 50.9936 40.8619 50.8477 41.0076C50.7017 41.1532 50.5037 41.235 50.2973 41.235Z"
              fill="#CCCCCC"/>
        <path d="M50.2973 46.7372H27.8122C27.6058 46.7372 27.4078 46.6554 27.2619 46.5098C27.1159 46.3642 27.0339 46.1667 27.0339 45.9607C27.0339 45.7548 27.1159 45.5573 27.2619 45.4116C27.4078 45.266 27.6058 45.1842 27.8122 45.1842H50.2973C50.3996 45.1841 50.5009 45.2041 50.5955 45.243C50.69 45.282 50.7759 45.3392 50.8483 45.4113C50.9207 45.4834 50.9781 45.5691 51.0173 45.6633C51.0565 45.7576 51.0766 45.8587 51.0766 45.9607C51.0766 46.0628 51.0565 46.1638 51.0173 46.2581C50.9781 46.3524 50.9207 46.438 50.8483 46.5102C50.7759 46.5823 50.69 46.6395 50.5955 46.6784C50.5009 46.7174 50.3996 46.7374 50.2973 46.7372Z"
              fill="#CCCCCC"/>
        <path d="M57.765 34.0144C60.2308 34.0144 62.2296 32.0201 62.2296 29.5601C62.2296 27.1001 60.2308 25.1059 57.765 25.1059C55.2993 25.1059 53.3004 27.1001 53.3004 29.5601C53.3004 32.0201 55.2993 34.0144 57.765 34.0144Z"
              fill="#19B1B6"/>
        <path d="M57.1559 31.8784C57.0788 31.8784 57.0028 31.8605 56.9338 31.8261C56.8649 31.7917 56.8049 31.7417 56.7587 31.6801L55.5407 30.0599C55.5015 30.0078 55.4731 29.9486 55.4569 29.8856C55.4407 29.8225 55.4371 29.7569 55.4463 29.6925C55.4556 29.6281 55.4774 29.5662 55.5106 29.5102C55.5439 29.4542 55.5878 29.4053 55.64 29.3662C55.6922 29.3272 55.7515 29.2988 55.8147 29.2827C55.8779 29.2665 55.9436 29.2629 56.0082 29.2721C56.0728 29.2813 56.1349 29.3031 56.191 29.3363C56.2471 29.3694 56.2961 29.4133 56.3353 29.4654L57.1321 30.5253L59.1788 27.4625C59.2519 27.3533 59.3655 27.2776 59.4946 27.2519C59.6236 27.2263 59.7576 27.2528 59.8671 27.3256C59.9766 27.3984 60.0527 27.5116 60.0786 27.6404C60.1045 27.7691 60.0781 27.9028 60.0052 28.0122L57.5692 31.6577C57.5251 31.7237 57.4659 31.7781 57.3964 31.8164C57.3269 31.8548 57.2492 31.876 57.1698 31.8782C57.1651 31.8783 57.1605 31.8784 57.1559 31.8784Z"
              fill="white"/>
        <path d="M69.3312 88.444L67.5148 89.0501L64.3073 82.3485L66.9882 81.454L69.3312 88.444Z" fill="#FFB6B6"/>
        <path d="M70.3834 90.046L64.5264 91.6088L64.5017 91.5349C64.298 90.9274 64.3437 90.6685 64.6303 90.0953C64.7705 89.813 64.9654 89.5612 65.2037 89.3545C65.4421 89.1479 65.7191 88.9904 66.0188 88.8913L66.019 88.8912L66.8174 87.7245L69.0849 87.8683L69.5962 87.6977L70.3834 90.046Z"
              fill="#2F2E41"/>
        <path d="M73.819 90.1479H71.9037L70.9925 82.7774L73.8194 82.7775L73.819 90.1479Z" fill="#FFB6B6"/>
        <path d="M74.3075 91.6088L68.1317 91.6086V91.5306C68.1317 90.8901 68.3818 90.6792 68.8359 90.2263C69.0585 90.0029 69.3234 89.8258 69.6151 89.7052C69.9069 89.5847 70.2197 89.523 70.5355 89.5239H70.5356L71.6637 88.67L73.7685 89.524L74.3076 89.524L74.3075 91.6088Z"
              fill="#2F2E41"/>
        <path d="M59.2423 31.0941C59.2817 31.2943 59.3647 31.4834 59.4853 31.6481C59.6059 31.8129 59.7613 31.9492 59.9405 32.0476C60.1196 32.146 60.3182 32.2039 60.5223 32.2174C60.7264 32.2309 60.9309 32.1996 61.1215 32.1257L63.3326 34.4289L65.0632 33.4296L61.8949 30.2209C61.7492 29.9097 61.4942 29.6626 61.1781 29.5264C60.862 29.3902 60.5068 29.3744 60.1799 29.482C59.8529 29.5896 59.5769 29.8132 59.4041 30.1103C59.2312 30.4074 59.1737 30.7574 59.2423 31.0941Z"
              fill="#FFB6B6"/>
        <path d="M73.5522 42.6744L74.549 41.6455L68.7846 36.3192L62.9829 31.1508L61.376 33.4161L67.4557 39.0779L73.5522 42.6744Z"
              fill="#E4E4E4"/>
        <path d="M70.0103 77.6287C70.0103 76.3356 70.036 75.4133 70.0566 74.6722C70.1169 72.5032 70.1331 71.9202 69.3012 68.1851L69.0875 67.2259L67.8275 70.9971C67.425 72.2001 67.2194 73.4599 67.2184 74.7281L69.1612 86.3575H65.1905L62.2823 73.785L62.281 69.9393C62.0248 69.6747 61.8815 69.3212 61.8815 68.9534C61.8815 68.5855 62.0248 68.232 62.281 67.9675L63.2472 62.2059L64.2251 54.441H74.9367C74.9367 54.441 76.8272 58.3502 74.9485 62.228L74.9483 77.6335L73.9777 88.2854H70.9812L70.0103 77.6287Z"
              fill="#2F2E41"/>
        <path d="M74.2818 55.3809L64.2625 54.5479L64.2105 54.5436L65.0101 40.1844C65.0571 39.2816 65.3746 38.4136 65.9216 37.6929C66.4685 36.9721 67.2197 36.4317 68.078 36.1416V35.1367C68.0783 34.888 68.1774 34.6495 68.3537 34.4737C68.53 34.2978 68.769 34.1989 69.0183 34.1986H70.4822C70.6569 34.198 70.8284 34.2463 70.977 34.338C71.1257 34.4296 71.2456 34.561 71.3232 34.7172L72.0391 36.1455L74.746 38.3061C76.0829 39.3732 75.0069 50.0718 74.949 50.6362L75.6037 53.9021C75.6397 54.0818 75.6354 54.2672 75.591 54.4449C75.5466 54.6227 75.4633 54.7885 75.347 54.9303C75.2308 55.0721 75.0845 55.1865 74.9186 55.2652C74.7528 55.3439 74.5716 55.3849 74.3879 55.3854C74.3528 55.3853 74.3174 55.3838 74.2818 55.3809Z"
              fill="#E4E4E4"/>
        <path d="M63.6715 59.1722C63.8299 59.0432 63.958 58.881 64.0468 58.6972C64.1356 58.5135 64.1829 58.3125 64.1855 58.1085C64.188 57.9045 64.1456 57.7024 64.0614 57.5165C63.9772 57.3305 63.8531 57.1653 63.698 57.0324L64.692 54.0013L62.9931 52.9494L61.6496 57.2495C61.443 57.5243 61.3448 57.8652 61.3733 58.2075C61.4019 58.5499 61.5553 58.8698 61.8045 59.1068C62.0538 59.3438 62.3815 59.4814 62.7256 59.4934C63.0697 59.5055 63.4062 59.3912 63.6715 59.1722Z"
              fill="#FFB6B6"/>
        <path d="M67.1655 38.5666L65.7862 38.1078L63.794 46.9759L61.959 55.7952L64.7188 56.2003L66.859 46.823L67.1655 38.5666Z"
              fill="#E4E4E4"/>
        <path d="M68.6718 33.2808C70.4892 33.2808 71.9625 31.8109 71.9625 29.9978C71.9625 28.1846 70.4892 26.7148 68.6718 26.7148C66.8545 26.7148 65.3812 28.1846 65.3812 29.9978C65.3812 31.8109 66.8545 33.2808 68.6718 33.2808Z"
              fill="#FFB6B6"/>
        <path d="M64.2443 28.39C64.2746 28.0789 64.364 27.7763 64.5076 27.4985C64.6614 27.8323 65.1413 27.8902 65.4697 27.7241C65.7981 27.558 66.0182 27.2425 66.2529 26.9594C66.8722 26.2126 67.7239 25.6068 68.6891 25.4964C69.6544 25.3861 70.7183 25.8722 71.083 26.7706C71.2467 26.5439 71.5959 26.5187 71.8429 26.6504C72.0814 26.8005 72.2676 27.0206 72.3759 27.2805C72.6188 27.7777 72.7561 28.3197 72.7791 28.8724C72.8022 29.4251 72.7104 29.9766 72.5097 30.4923C72.1033 31.5184 71.0996 32.901 70.064 33.2882C69.4353 33.5234 68.8003 33.2224 68.1317 33.2882C68.1667 32.5602 68.3082 31.6619 68.3432 30.9339C68.3624 30.5352 68.3651 30.0892 68.0922 29.7973C68.0085 29.718 67.9083 29.658 67.7988 29.6216C67.6892 29.5852 67.573 29.5733 67.4583 29.5866C67.3437 29.6 67.2333 29.6383 67.1351 29.6989C67.037 29.7595 66.9533 29.8409 66.8902 29.9373C66.8564 29.7109 66.7797 29.4931 66.6644 29.2952C66.6052 29.1971 66.5197 29.1175 66.4176 29.0653C66.3155 29.0131 66.2007 28.9904 66.0864 28.9998C65.8072 29.0455 65.6347 29.3314 65.3785 29.4511C65.233 29.5093 65.0732 29.5218 64.9204 29.4868C64.7676 29.4518 64.6291 29.3711 64.5236 29.2555C64.421 29.1374 64.3434 28.9999 64.2954 28.8512C64.2474 28.7025 64.23 28.5456 64.2443 28.39Z"
              fill="#2F2E41"/>
        <path opacity="0.1" d="M69.0978 46.7832L65.2332 54.4945H68.1317L69.0978 46.7832Z" fill="black"/>
        <path d="M95 91.8447C95.0001 91.8651 94.9961 91.8853 94.9883 91.9042C94.9805 91.9231 94.969 91.9402 94.9546 91.9547C94.9401 91.9691 94.9229 91.9805 94.904 91.9883C94.8851 91.9961 94.8648 92 94.8444 92H21.0477C21.0065 92 20.9669 91.9836 20.9377 91.9545C20.9085 91.9254 20.8921 91.8859 20.8921 91.8447C20.8921 91.8035 20.9085 91.7641 20.9377 91.7349C20.9669 91.7058 21.0065 91.6895 21.0477 91.6895H94.8444C94.8648 91.6894 94.8851 91.6934 94.904 91.7011C94.9229 91.7089 94.9401 91.7204 94.9546 91.7348C94.969 91.7492 94.9805 91.7664 94.9883 91.7852C94.9961 91.8041 95.0001 91.8243 95 91.8447Z"
              fill="#CACACA"/>
    </g>
    <defs>
        <clipPath id="clip0_463_173">
            <rect width="95" height="92" fill="white"/>
        </clipPath>
    </defs>
</svg>
