<svg width="86" height="92" viewBox="0 0 86 92" fill="none" xmlns="http://www.w3.org/2000/svg">
    <g clip-path="url(#clip0_463_439)">
        <path d="M80.8998 70.0463H16.2563C15.0571 70.0449 14.0852 69.0789 14.0838 67.8869V15.5697C14.0852 14.3777 15.0571 13.4117 16.2563 13.4103H80.8998C82.0991 13.4117 83.071 14.3777 83.0724 15.5697V67.8869C83.071 69.0789 82.0991 70.0449 80.8998 70.0463Z"
              fill="#E6E6E6"/>
        <path d="M74.6189 68.5898H17.7221C16.5228 68.5884 15.551 67.6224 15.5496 66.4304V17.0274C15.551 15.8354 16.5228 14.8694 17.7221 14.868H79.4344C80.6337 14.8694 81.6056 15.8354 81.607 17.0274V61.6441C81.6026 65.4783 78.4765 68.5855 74.6189 68.5898Z"
              fill="white"/>
        <path d="M58.9838 26.0388H33.002C32.6926 26.0388 32.4417 25.7895 32.4417 25.482C32.4417 25.1744 32.6926 24.925 33.002 24.925H58.9838C59.2932 24.925 59.5441 25.1744 59.5441 25.482C59.5441 25.7895 59.2932 26.0388 58.9838 26.0388Z"
              fill="#19B1B6"/>
        <path d="M72.1362 31.9806H33.002C32.6926 31.9806 32.4417 31.7313 32.4417 31.4237C32.4417 31.1161 32.6926 30.8668 33.002 30.8668H72.1362C72.4456 30.8668 72.6965 31.1162 72.6965 31.4237C72.6965 31.7313 72.4456 31.9806 72.1362 31.9806Z"
              fill="#E6E6E6"/>
        <path d="M72.1362 37.9224H33.002C32.6926 37.9224 32.4417 37.6731 32.4417 37.3655C32.4417 37.0579 32.6926 36.8086 33.002 36.8086H72.1362C72.4456 36.8086 72.6965 37.0579 72.6965 37.3655C72.6965 37.6731 72.4456 37.9224 72.1362 37.9224Z"
              fill="#E6E6E6"/>
        <path d="M72.1362 43.864H33.002C32.6926 43.864 32.4417 43.6147 32.4417 43.3071C32.4417 42.9996 32.6926 42.7502 33.002 42.7502H72.1362C72.4456 42.7502 72.6965 42.9996 72.6965 43.3071C72.6965 43.6147 72.4456 43.864 72.1362 43.864Z"
              fill="#E6E6E6"/>
        <path d="M72.1362 49.8058H33.002C32.6926 49.8058 32.4417 49.5565 32.4417 49.2489C32.4417 48.9413 32.6926 48.692 33.002 48.692H72.1362C72.4456 48.692 72.6965 48.9413 72.6965 49.2489C72.6965 49.5565 72.4456 49.8058 72.1362 49.8058Z"
              fill="#E6E6E6"/>
        <path d="M70.3764 59.2743C68.8095 59.2743 67.5393 58.0118 67.5393 56.4544C67.5393 54.897 68.8095 53.6345 70.3764 53.6345C71.9433 53.6345 73.2135 54.897 73.2135 56.4544C73.2135 58.0118 71.9432 59.2743 70.3764 59.2743Z"
              fill="#19B1B6"/>
        <path d="M71.9725 56.3205L71.1681 55.1537C71.094 55.0455 70.9456 55.0175 70.8367 55.0912C70.7278 55.1649 70.6997 55.3124 70.7739 55.4206L70.7746 55.4217L71.2948 56.1763H69.2569C69.1024 56.1759 68.9767 56.3 68.9762 56.4536C68.9758 56.6073 69.1007 56.7322 69.2553 56.7326H71.3204L70.7746 57.5244C70.7006 57.6327 70.729 57.7802 70.838 57.8537C70.9463 57.9268 71.0937 57.8994 71.1682 57.7924L71.9725 56.6256C72.0257 56.5308 72.0257 56.4153 71.9725 56.3205Z"
              fill="white"/>
        <path d="M85.7177 5.69507H11.4388C11.2796 5.69168 11.1532 5.5606 11.1566 5.40229C11.1599 5.24874 11.2843 5.12505 11.4388 5.12177H85.7177C85.877 5.12515 86.0033 5.25623 85.9999 5.41455C85.9966 5.56809 85.8722 5.69179 85.7177 5.69507Z"
              fill="#CACACA"/>
        <path d="M20.7344 62.2044C21.1639 61.8473 21.2208 61.2117 20.8615 60.7848C20.8232 60.7393 20.7809 60.6972 20.7351 60.6591L20.12 55.3762L18.1669 55.8257L19.2523 60.8334C18.92 61.2852 19.0191 61.9191 19.4736 62.2494C19.8538 62.5258 20.3751 62.5072 20.7344 62.2044Z"
              fill="#FFB6B6"/>
        <path d="M20.5326 56.2377L18.2715 57.6397C18.2715 57.6397 18.1339 58.4614 17.9784 56.3963C17.9622 56.1808 18.1135 55.8052 18.0969 55.584C18.0781 55.3344 17.3588 55.2208 17.3399 54.9683C17.3264 54.7885 17.5343 54.6286 17.5209 54.4493C17.5005 54.1777 17.4803 53.9077 17.4605 53.642C17.4439 53.4197 17.1962 53.2788 17.1802 53.0642C17.1641 52.8479 17.3798 52.558 17.3646 52.353C17.2506 50.8157 17.6447 46.9482 17.6447 46.8695C17.6143 46.672 17.5313 46.4863 17.4044 46.3313L17.5251 45.9726L17.4453 45.2994C17.3405 44.4149 17.5275 43.5204 17.9784 42.7507L18.5527 42.377L21.2023 46.8066C20.0873 50.6397 19.3595 52.1453 20.5326 56.2377Z"
              fill="#19B1B6"/>
        <path d="M18.7683 89.2656H20.1361L20.7871 84.0217H18.7683V89.2656Z" fill="#FFB6B6"/>
        <path d="M18.3219 88.3345L20.5072 88.2048V89.1354L22.5847 90.5615C22.8505 90.7439 22.9172 91.1059 22.7337 91.3701C22.6245 91.5273 22.4446 91.6211 22.2524 91.6211H19.6508L19.2024 90.7007L19.0273 91.6211H18.0464L18.3219 88.3345Z"
              fill="#2F2E41"/>
        <path d="M26.4515 89.2656H27.8193L28.4702 84.0217H26.4515V89.2656Z" fill="#FFB6B6"/>
        <path d="M26.0051 88.3345L28.1903 88.2048V89.1354L30.2679 90.5615C30.5337 90.7439 30.6004 91.1059 30.4169 91.3701C30.3077 91.5273 30.1277 91.6211 29.9356 91.6211H27.334L26.8855 90.7007L26.7105 91.6211H25.7296L26.0051 88.3345Z"
              fill="#2F2E41"/>
        <path d="M18.1877 84.7436H18.193L18.4561 72.2555C18.1104 71.5926 18.1214 70.8017 18.4855 70.1486L18.5232 70.0809L18.4256 69.631C18.3001 69.0529 18.3577 68.4505 18.5903 67.9063L18.8357 59.9529C17.959 54.3054 22.1372 50.6223 22.1372 50.6223H28.3963L29.7401 55.2111C30.6284 63.8133 30.4672 76.1579 29.0575 84.2792L29.096 84.2985C29.2474 84.3825 29.3057 84.5698 29.2286 84.7241C29.1634 84.9117 28.9984 85.0252 28.8601 84.9778L25.5546 84.8635C25.4031 84.7796 25.3448 84.5922 25.422 84.4379C25.4871 84.2503 25.6521 84.1368 25.7905 84.1843L26.0152 84.2972L25.7833 83.828C25.4989 83.2525 25.5539 82.5685 25.9267 82.0451L25.886 81.0122C25.5346 80.6032 25.4178 80.0441 25.5763 79.5298L25.7993 78.8064L25.5359 72.1079L25.5891 70.6051L25.4795 68.9002L24.9728 61.2315L23.055 70.6618L21.096 84.8385C21.1919 84.9245 21.234 85.055 21.2062 85.1803C21.1646 85.3485 21.0113 85.4656 20.8371 85.4622H18.1782C17.9781 85.462 17.8161 85.3006 17.8163 85.1018C17.8163 85.0695 17.8207 85.0375 17.8294 85.0064C17.8755 84.8484 18.0223 84.7408 18.1877 84.7436Z"
              fill="#2F2E41"/>
        <path d="M33.398 60.1516C33.7514 59.7199 33.6858 59.0851 33.2514 58.7339C33.2051 58.6964 33.1555 58.6631 33.1033 58.6343L31.4895 53.5638L29.6579 54.374L31.6808 59.0855C31.4409 59.5918 31.6594 60.1955 32.1687 60.4339C32.5949 60.6334 33.1031 60.5167 33.398 60.1516Z"
              fill="#FFB6B6"/>
        <path d="M26.7573 44.0321C26.7573 44.0321 28.5979 50.5062 28.5146 51.1602C28.3427 52.5089 19.8845 56.6545 19.2555 54.8096L19.3344 54.2032C19.0166 53.5715 20.9554 51.0645 21.0495 50.7366C21.1691 50.3173 20.6276 48.9405 20.6276 48.9405C20.6276 48.9405 21.0019 47.6837 20.9421 46.9056C20.8812 46.1275 20.7007 46.2475 20.0386 45.7677C19.3764 45.2889 18.2924 43.0747 18.2924 43.0747C18.2924 43.0747 18.7741 40.9199 18.7741 40.5006C18.7741 40.0813 20.7527 39.367 20.993 39.1282C21.0976 38.9895 21.1857 38.8392 21.2554 38.6803C21.3042 38.5834 21.2732 38.3589 21.3252 38.2478C21.3584 38.1751 21.4747 38.2203 21.509 38.1454C21.5422 38.0728 21.5134 37.9892 21.5466 37.9176C21.5898 37.823 21.6939 37.7404 21.7349 37.6513C21.9231 37.2419 22.0837 36.9084 22.1335 36.9084C22.2531 36.9084 26.1085 37.4477 26.1085 37.4477C26.3183 37.7703 26.5602 38.0711 26.8304 38.3457C27.2523 38.7639 29.2265 39.7819 29.2265 39.7819L26.7573 44.0321Z"
              fill="#19B1B6"/>
        <path d="M31.9633 54.9237C31.6622 55.2231 30.1719 56.5975 30.111 56.2376C30.0512 55.8788 30.0186 55.836 29.7772 55.7171C29.5359 55.5971 29.5359 55.5377 29.4761 55.1184C29.4163 54.6991 28.8737 54.2798 28.9346 54.1004C28.9944 53.921 28.9386 54.1492 28.9386 53.9688C28.9386 53.7894 28.7581 53.1313 28.5167 53.0113C28.2765 52.8913 27.9144 52.7725 28.096 52.4731C28.2765 52.1738 26.3964 43.1935 26.3964 43.1935L28.0827 39.9018L29.2265 39.7819C29.2265 39.7819 29.574 39.9795 29.6829 41.7615C29.6884 41.8518 29.7875 42.0174 29.7917 42.116C29.7952 42.1979 29.7041 42.2114 29.7066 42.2993C29.7071 42.318 29.7077 42.337 29.7081 42.356C29.7104 42.4434 29.9478 42.5076 29.9513 42.592C29.9577 42.7426 30.0509 43.7034 30.061 43.8446C30.0723 44.0038 30.0857 44.1571 30.1011 44.3046C30.2675 45.9105 30.3271 46.0461 30.4302 46.5587C30.5899 47.3521 31.2516 51.9856 31.2516 51.9856C31.2516 51.9856 31.7333 52.1045 31.7333 52.5238C31.7333 52.9431 32.2645 53.7858 32.0242 54.2645C31.7828 54.7444 32.2645 54.6244 31.9633 54.9237Z"
              fill="#19B1B6"/>
        <path d="M23.7662 36.7855C25.3438 36.7855 26.6227 35.5144 26.6227 33.9464C26.6227 32.3783 25.3438 31.1072 23.7662 31.1072C22.1886 31.1072 20.9097 32.3783 20.9097 33.9464C20.9097 35.5144 22.1886 36.7855 23.7662 36.7855Z"
              fill="#FFB8B8"/>
        <path d="M17.6106 39.9131C17.0061 39.7002 16.4016 39.4868 15.7971 39.2731C15.9013 39.0994 16.034 38.9442 16.1897 38.8139C16.7652 38.3362 17.5596 38.2499 18.2903 38.0888C19.0222 37.9276 19.8166 37.5973 20.0841 36.9021C20.362 36.1793 19.959 35.3989 19.7251 34.6623C19.3796 33.6291 19.4216 32.5066 19.8432 31.5017C20.2798 30.4957 21.163 29.7494 22.2322 29.4829C23.2906 29.2492 24.4868 29.6302 25.1376 30.4911C26.0054 30.2324 26.9309 30.6582 27.2939 31.4833C27.4613 31.8623 27.4354 32.2981 27.2244 32.655C26.9986 32.9945 26.5157 33.1683 26.1521 32.9796L26.3628 32.4478C25.7109 32.6676 25.287 33.8393 25.375 34.5184C25.4619 35.1964 25.8602 35.7903 26.2644 36.3439C26.6685 36.8975 27.0993 37.4569 27.273 38.1187C27.5231 39.0706 27.185 40.1111 26.5597 40.8742C25.9344 41.6373 25.0531 42.1552 24.1406 42.5362C23.4575 42.8216 22.7477 43.0391 22.0214 43.1853C22.1511 42.9344 22.2797 42.6835 22.4094 42.4326L20.8704 43.358C20.5728 43.3868 20.2728 43.404 19.9729 43.4098C19.0998 43.4247 18.2093 43.3338 17.4102 42.9874C16.6101 42.6398 15.9071 42.0102 15.6176 41.1918C15.5248 40.9271 15.4809 40.648 15.4879 40.3677C16.1955 40.2158 16.903 40.0643 17.6106 39.9131Z"
              fill="#2F2E41"/>
        <path d="M45.215 91.8374H39.9171L39.8943 91.7963C39.8266 91.6742 39.7612 91.5448 39.7001 91.4119C39.1544 90.2507 38.9237 88.9226 38.7202 87.7508L38.5669 86.8676C38.5154 86.5708 38.7158 86.2887 39.0144 86.2376C39.1605 86.2125 39.3107 86.2473 39.4306 86.3341C40.2357 86.9164 41.0412 87.4982 41.8469 88.0793C42.152 88.3 42.5005 88.5554 42.8342 88.8313C42.8664 88.6759 42.9 88.52 42.9337 88.3663C42.9981 88.0718 43.2906 87.885 43.5869 87.949C43.7319 87.9804 43.858 88.0688 43.9364 88.194L44.5562 89.1838C45.0083 89.9067 45.4073 90.619 45.326 91.3872C45.3264 91.3966 45.3257 91.406 45.3239 91.4151C45.3077 91.5413 45.2775 91.6654 45.234 91.785L45.215 91.8374Z"
              fill="#F0F0F0"/>
        <path d="M50.5324 91.9512L0.189092 92C0.0841148 91.9994 -0.000543339 91.9144 2.62594e-06 91.8101C0.000548591 91.7065 0.084889 91.6227 0.189092 91.6221L50.5324 91.5734C50.6374 91.5739 50.7221 91.6589 50.7215 91.7633C50.721 91.8668 50.6366 91.9507 50.5324 91.9512Z"
              fill="#CACACA"/>
        <path d="M14.3492 2.74343C15.0948 2.74343 15.6992 2.12929 15.6992 1.37172C15.6992 0.614138 15.0948 0 14.3492 0C13.6036 0 12.9992 0.614138 12.9992 1.37172C12.9992 2.12929 13.6036 2.74343 14.3492 2.74343Z"
              fill="#3F3D56"/>
        <path d="M19.0129 2.74343C19.7584 2.74343 20.3629 2.12929 20.3629 1.37172C20.3629 0.614138 19.7584 0 19.0129 0C18.2673 0 17.6629 0.614138 17.6629 1.37172C17.6629 2.12929 18.2673 2.74343 19.0129 2.74343Z"
              fill="#3F3D56"/>
        <path d="M23.6765 2.74343C24.4221 2.74343 25.0265 2.12929 25.0265 1.37172C25.0265 0.614138 24.4221 0 23.6765 0C22.9309 0 22.3265 0.614138 22.3265 1.37172C22.3265 2.12929 22.9309 2.74343 23.6765 2.74343Z"
              fill="#3F3D56"/>
        <path d="M28.9943 2.45589C28.9528 2.45589 28.9115 2.43993 28.8802 2.40817L27.9693 1.48264C27.9086 1.42097 27.9086 1.32242 27.9693 1.26075L28.8802 0.335306C28.942 0.272705 29.0432 0.271698 29.1059 0.332827C29.169 0.39411 29.1701 0.494596 29.1084 0.557197L28.3067 1.3717L29.1084 2.18628C29.1701 2.24888 29.169 2.34936 29.1059 2.41065C29.0749 2.44086 29.0346 2.45589 28.9943 2.45589Z"
              fill="#3F3D56"/>
        <path d="M30.525 2.45589C30.4847 2.45589 30.4444 2.44086 30.4134 2.41064C30.3503 2.34936 30.3492 2.24895 30.4109 2.18627L31.2125 1.37169L30.4109 0.557191C30.3492 0.494591 30.3503 0.394105 30.4134 0.332821C30.4763 0.27146 30.5774 0.272624 30.6391 0.3353L31.5499 1.26075C31.6107 1.32242 31.6107 1.42097 31.5499 1.48264L30.6391 2.40816C30.6078 2.43993 30.5665 2.45589 30.525 2.45589Z"
              fill="#3F3D56"/>
        <path d="M78.1788 0.158813H76.485C76.2918 0.158813 76.1354 0.314307 76.1354 0.506301V2.19138C76.1354 2.38337 76.2918 2.53887 76.485 2.53887H78.1788C78.3719 2.53887 78.53 2.38337 78.53 2.19138V0.506301C78.53 0.314307 78.3719 0.158813 78.1788 0.158813Z"
              fill="#3F3D56"/>
        <path d="M74.0282 0.158813H72.3344C72.1412 0.158813 71.9848 0.314307 71.9848 0.506301V2.19138C71.9848 2.38337 72.1412 2.53887 72.3344 2.53887H74.0282C74.2213 2.53887 74.3794 2.38337 74.3794 2.19138V0.506301C74.3794 0.314307 74.2213 0.158813 74.0282 0.158813Z"
              fill="#3F3D56"/>
        <path d="M82.09 0.238159H80.3962C80.203 0.238159 80.0466 0.393653 80.0466 0.585647V2.27073C80.0466 2.46272 80.203 2.61821 80.3962 2.61821H82.09C82.2831 2.61821 82.4412 2.46272 82.4412 2.27073V0.585647C82.4412 0.393653 82.2831 0.238159 82.09 0.238159Z"
              fill="#3F3D56"/>
        <path d="M56.5602 0.87915H43.0212C42.785 0.87915 42.595 1.06956 42.595 1.30281C42.595 1.53606 42.785 1.72645 43.0212 1.72645H56.5602C56.7949 1.72645 56.9864 1.53605 56.9864 1.30281C56.9864 1.06957 56.7949 0.87915 56.5602 0.87915Z"
              fill="#3F3D56"/>
    </g>
    <defs>
        <clipPath id="clip0_463_439">
            <rect width="86" height="92" fill="white"/>
        </clipPath>
    </defs>
</svg>
