<svg width="84" height="75" viewBox="0 0 84 75" fill="none" xmlns="http://www.w3.org/2000/svg">
    <g clip-path="url(#clip0_463_103)">
        <path d="M83.2559 61.7314C82.4919 66.4182 79.0492 70.0472 75.3842 73.2186C74.8724 73.6615 74.3595 74.0958 73.8453 74.5214C73.8418 74.5235 73.8383 74.5275 73.8347 74.5296C73.8099 74.55 73.7851 74.5704 73.7622 74.5907C73.6561 74.6784 73.5499 74.7662 73.4446 74.8529L73.5107 74.8735L73.7164 74.9365C73.6458 74.9171 73.5761 74.8987 73.5055 74.8794C73.4845 74.8734 73.4626 74.8685 73.4416 74.8624C71.0116 74.2081 68.5322 73.49 66.5456 71.957C64.4847 70.3649 63.0654 67.6505 63.7762 65.1496C63.8697 64.822 63.9996 64.5058 64.1635 64.2068C64.2306 64.0817 64.3044 63.9608 64.3821 63.8415C64.8518 63.106 65.5095 62.5085 66.2876 62.1104C67.0657 61.7123 67.9361 61.528 68.8093 61.5764C69.6826 61.6248 70.5271 61.9042 71.2562 62.3859C71.9852 62.8676 72.5723 63.5341 72.9572 64.317C72.9226 61.5614 70.3977 59.552 68.0295 58.1298C65.6605 56.7086 62.9782 55.1732 62.2333 52.5179C61.8181 51.0406 62.1674 49.519 62.9828 48.2334C63.0081 48.1943 63.0334 48.1552 63.0598 48.117C64.0598 46.6137 65.5919 45.5418 67.3501 45.1154C70.6307 44.3734 74.0689 45.74 76.7597 47.7536C81.0905 50.9933 84.1244 56.4026 83.2559 61.7314Z"
              fill="#F2F2F2"/>
        <path d="M76.2977 56.554C77.0544 57.4665 77.6736 58.4842 78.1357 59.5748C78.533 60.5515 78.7816 61.582 78.8733 62.632C79.0726 64.7889 78.6622 66.9691 77.8436 68.9652C77.2068 70.4807 76.3805 71.9098 75.3842 73.2186C74.8724 73.6615 74.3595 74.0958 73.8453 74.5214C73.8417 74.5235 73.8383 74.5275 73.8347 74.5296C73.8099 74.55 73.7851 74.5704 73.7622 74.5907C73.6561 74.6784 73.5499 74.7662 73.4446 74.8529L73.5107 74.8735L73.7164 74.9365C73.6458 74.9171 73.5761 74.8987 73.5055 74.8794C73.4845 74.8734 73.4626 74.8684 73.4416 74.8624C73.4447 73.1398 73.0337 71.4415 72.2428 69.9098C71.452 68.3781 70.3044 67.0577 68.8963 66.0593C67.4871 65.0787 65.8655 64.4439 64.1635 64.2068C64.2306 64.0817 64.3044 63.9608 64.3821 63.8414C65.0407 63.9433 65.6889 64.1029 66.3192 64.3186C68.5718 65.0831 70.5175 66.5503 71.8685 68.503C73.0835 70.2775 73.7654 72.3608 73.8341 74.5082C73.919 74.4108 74.0037 74.3114 74.0857 74.2133C75.6497 72.3656 76.9876 70.2994 77.785 68.0042C78.4822 66.058 78.6887 63.9706 78.3861 61.9261C78.0303 59.6999 76.8868 57.7353 75.3752 56.0868C73.7562 54.3226 71.8123 52.823 69.7779 51.5659C67.6939 50.2756 65.4593 49.2443 63.1239 48.4951C63.0712 48.4779 63.0272 48.4411 63.0009 48.3924C62.9746 48.3437 62.9682 48.2868 62.9828 48.2334C62.9921 48.186 63.0197 48.1442 63.0598 48.117C63.0806 48.1049 63.1039 48.0977 63.1279 48.0958C63.1519 48.094 63.1761 48.0975 63.1985 48.1063C63.4869 48.199 63.7735 48.2936 64.0587 48.394C66.4338 49.2302 68.6954 50.3574 70.7917 51.7495C72.8161 53.0904 74.7598 54.6665 76.2977 56.554Z"
              fill="white"/>
        <path d="M34.9921 45.8514C34.7585 45.851 34.5338 45.7622 34.3635 45.6029C34.1932 45.4436 34.0899 45.2258 34.0746 44.9934L33.938 42.9134C33.922 42.6705 34.0035 42.4312 34.1645 42.2481C34.3256 42.0651 34.553 41.9533 34.7967 41.9374L51.1433 40.8702C51.401 40.8533 51.6596 40.8871 51.9042 40.9698C52.1489 41.0525 52.3747 41.1824 52.569 41.3522C52.7632 41.5219 52.922 41.7281 53.0363 41.9591C53.1505 42.19 53.218 42.4411 53.2349 42.6981C53.2518 42.955 53.2177 43.2128 53.1346 43.4566C53.0516 43.7004 52.9211 43.9256 52.7507 44.1191C52.5804 44.3126 52.3734 44.4708 52.1417 44.5846C51.91 44.6984 51.658 44.7656 51.4003 44.7823L35.0537 45.8494C35.0331 45.8507 35.0126 45.8514 34.9921 45.8514Z"
              fill="#19B1B6"/>
        <path d="M38.2154 46.1196C37.9773 46.1192 37.7486 46.0269 37.5771 45.8622C37.4057 45.6975 37.3048 45.473 37.2956 45.2358L37.1791 42.1291C37.1746 42.0087 37.194 41.8885 37.236 41.7755C37.2781 41.6624 37.3421 41.5588 37.4244 41.4704C37.5066 41.3821 37.6055 41.3107 37.7154 41.2605C37.8254 41.2102 37.9441 41.1821 38.065 41.1776L51.5073 40.6767C51.7513 40.6676 51.989 40.7556 52.168 40.9212C52.347 41.0868 52.4527 41.3165 52.4619 41.5598L52.5783 44.6665C52.5829 44.787 52.5635 44.9071 52.5214 45.0201C52.4794 45.1332 52.4154 45.2368 52.3331 45.3252C52.2509 45.4135 52.152 45.4849 52.042 45.5351C51.9321 45.5854 51.8133 45.6135 51.6925 45.618L38.2502 46.1189C38.2386 46.1194 38.2269 46.1196 38.2154 46.1196Z"
              fill="#2F2E41"/>
        <path d="M53.9676 74.7574H51.8766C51.6325 74.7571 51.3984 74.6603 51.2258 74.4882C51.0532 74.3161 50.9561 74.0828 50.9558 73.8394V56.4667C50.9561 56.2233 51.0532 55.99 51.2258 55.8179C51.3984 55.6458 51.6325 55.549 51.8766 55.5487H53.9676C54.2117 55.549 54.4458 55.6458 54.6184 55.8179C54.7911 55.99 54.8882 56.2233 54.8884 56.4667V73.8394C54.8882 74.0828 54.7911 74.3161 54.6184 74.4882C54.4458 74.6603 54.2117 74.7571 53.9676 74.7574Z"
              fill="#2F2E41"/>
        <path d="M44.6866 65.5743L42.8985 64.4938C42.6899 64.3674 42.54 64.1637 42.4819 63.9273C42.4238 63.6909 42.462 63.4412 42.5883 63.233L51.6217 48.3763C51.7485 48.1683 51.9528 48.019 52.1899 47.961C52.427 47.9031 52.6775 47.9412 52.8864 48.0671L54.6746 49.1476C54.8832 49.274 55.033 49.4777 55.0912 49.7141C55.1493 49.9505 55.111 50.2002 54.9847 50.4084L45.9514 65.2651C45.8246 65.4731 45.6202 65.6224 45.3831 65.6804C45.146 65.7383 44.8955 65.7002 44.6866 65.5743Z"
              fill="#2F2E41"/>
        <path d="M50.7919 37.4183C54.7821 37.4183 58.0169 34.1936 58.0169 30.2158C58.0169 26.238 54.7821 23.0133 50.7919 23.0133C46.8016 23.0133 43.5668 26.238 43.5668 30.2158C43.5668 34.1936 46.8016 37.4183 50.7919 37.4183Z"
              fill="#19B1B6"/>
        <path d="M46.881 32.6751C46.6486 32.5989 46.4352 32.4741 46.2553 32.3089C46.136 32.191 46.0441 32.0485 45.9859 31.8914C45.9277 31.7343 45.9047 31.5664 45.9185 31.3995C45.926 31.2806 45.9611 31.1651 46.0208 31.0619C46.0806 30.9588 46.1635 30.8708 46.2631 30.8048C46.5214 30.6396 46.867 30.6391 47.2189 30.7937L47.2055 27.9819L47.4888 27.9806L47.5045 31.2861L47.2862 31.1492C47.0331 30.9907 46.6715 30.8792 46.4161 31.0426C46.353 31.0858 46.3007 31.1429 46.2633 31.2095C46.2259 31.2761 46.2044 31.3503 46.2005 31.4266C46.191 31.5509 46.2084 31.6758 46.2516 31.7928C46.2948 31.9098 46.3628 32.0161 46.451 32.1046C46.7638 32.4025 47.2203 32.4957 47.7408 32.5789L47.6959 32.8578C47.4193 32.8213 47.1466 32.7601 46.881 32.6751Z"
              fill="#2F2E41"/>
        <path d="M44.2848 27.8398L44.2477 28.1198L45.7606 28.319L45.7977 28.039L44.2848 27.8398Z" fill="#2F2E41"/>
        <path d="M49.0601 28.4684L49.023 28.7484L50.5358 28.9475L50.5729 28.6675L49.0601 28.4684Z" fill="#2F2E41"/>
        <path d="M56.8248 61.1278H44.6414C44.3221 61.1275 44.0161 61.0009 43.7903 60.7758C43.5646 60.5508 43.4376 60.2457 43.4372 59.9274L45.9878 40.4292C45.9899 40.1124 46.1176 39.8092 46.3431 39.586C46.5686 39.3628 46.8736 39.2376 47.1914 39.2379H51.5151C53.2421 39.2398 54.8978 39.9246 56.1189 41.1419C57.3401 42.3593 58.027 44.0098 58.029 45.7314V59.9274C58.0286 60.2457 57.9016 60.5508 57.6759 60.7758C57.4501 61.0009 57.144 61.1275 56.8248 61.1278Z"
              fill="#2F2E41"/>
        <path d="M53.7569 60.0883C53.6828 60.2494 53.5636 60.3858 53.4136 60.4809C53.2636 60.576 53.0892 60.6259 52.9115 60.6246L50.8206 60.6065C50.6997 60.6054 50.5801 60.5807 50.4688 60.5336C50.3575 60.4865 50.2566 60.418 50.1718 60.332C50.0871 60.246 50.0201 60.1443 49.9748 60.0325C49.9295 59.9207 49.9067 59.8011 49.9078 59.6806L50.0498 43.3507C50.0521 43.0933 50.1051 42.8388 50.206 42.6019C50.3069 42.3649 50.4536 42.1501 50.6378 41.9697C50.8219 41.7892 51.0399 41.6467 51.2793 41.5503C51.5187 41.4539 51.7749 41.4054 52.0331 41.4076C52.2913 41.4098 52.5465 41.4627 52.7842 41.5633C53.0219 41.6639 53.2374 41.8101 53.4184 41.9937C53.5994 42.1773 53.7423 42.3946 53.8391 42.6333C53.9358 42.8719 53.9844 43.1273 53.9822 43.3847L53.8403 59.7146C53.8393 59.8436 53.8109 59.971 53.7569 60.0883Z"
              fill="#19B1B6"/>
        <path d="M54.6806 55.7289C54.6065 55.89 54.4873 56.0263 54.3373 56.1215C54.1873 56.2166 54.0129 56.2665 53.8352 56.2651L50.2638 56.2343C50.0197 56.2319 49.7865 56.133 49.6154 55.9595C49.4443 55.7859 49.3492 55.5517 49.351 55.3084L49.4677 41.8991C49.4687 41.7786 49.4936 41.6594 49.5408 41.5485C49.588 41.4375 49.6567 41.3369 49.743 41.2524C49.8292 41.1679 49.9313 41.1011 50.0435 41.056C50.1556 41.0108 50.2755 40.9881 50.3965 40.9892L53.9677 41.02C54.0887 41.0211 54.2082 41.0458 54.3195 41.0929C54.4308 41.14 54.5318 41.2085 54.6165 41.2945C54.7013 41.3805 54.7682 41.4823 54.8135 41.594C54.8588 41.7058 54.8816 41.8254 54.8805 41.9459L54.7639 55.3552C54.7629 55.4842 54.7345 55.6116 54.6806 55.7289Z"
              fill="#2F2E41"/>
        <path d="M50.927 25.944C49.9611 25.1473 48.67 25.9008 47.5778 25.7939C46.5328 25.6916 45.6917 24.7748 45.4626 23.7883C45.1952 22.6374 45.7748 21.4682 46.6479 20.731C47.6041 19.9235 48.888 19.6725 50.1115 19.7954C51.5138 19.9362 52.8057 20.5621 53.9688 21.3268C55.091 22.0413 56.1266 22.8829 57.0547 23.8347C57.8864 24.7162 58.597 25.7721 58.8403 26.9748C59.0615 28.0678 58.9318 29.286 58.2991 30.2275C57.9633 30.7102 57.5083 31.0985 56.9781 31.355C56.4256 31.6386 55.8345 31.845 55.3 32.1639C54.492 32.6461 53.7164 33.6288 53.9915 34.631C54.0506 34.85 54.1627 35.0511 54.3181 35.2167C54.5047 35.4155 54.8294 35.142 54.6422 34.9426C54.3135 34.5924 54.3171 34.1171 54.4806 33.6885C54.6755 33.2053 55.0292 32.8025 55.4837 32.5459C56.0432 32.2129 56.6638 32.0021 57.2379 31.6975C57.7876 31.4188 58.2616 31.0117 58.6196 30.5111C59.2951 29.5368 59.4788 28.282 59.2994 27.1278C59.1053 25.8788 58.4382 24.7531 57.611 23.8149C56.7107 22.7939 55.6124 21.9359 54.4925 21.1677C53.2908 20.3434 51.9674 19.6523 50.5131 19.4209C49.2524 19.2202 47.8932 19.3842 46.8076 20.0875C45.7942 20.7441 45.0287 21.8549 44.9738 23.081C44.9563 23.6387 45.0883 24.191 45.356 24.6811C45.6238 25.1711 46.0177 25.5811 46.4972 25.869C46.9889 26.1498 47.5567 26.2697 48.1204 26.2116C48.7233 26.1617 49.324 25.966 49.9324 26.0056C50.2077 26.017 50.4716 26.1176 50.6844 26.292C50.8954 26.4661 51.1363 26.1167 50.927 25.944Z"
              fill="#2F2E41"/>
        <path d="M42.4313 63.484C42.4339 63.468 42.4369 63.4521 42.4404 63.4363C42.4656 63.3183 42.514 63.2065 42.5828 63.1073C42.6517 63.0081 42.7395 62.9236 42.8414 62.8585L44.5985 61.7287C44.8038 61.597 45.0531 61.5519 45.2918 61.6032C45.5304 61.6545 45.7389 61.7981 45.8715 62.0025L51.2918 70.38C51.4242 70.5846 51.4696 70.8332 51.4181 71.0712C51.3666 71.3091 51.2223 71.517 51.0171 71.649L49.26 72.7788C49.0546 72.9104 48.8053 72.9556 48.5667 72.9042C48.328 72.8529 48.1196 72.7093 47.987 72.5049L42.5666 64.1275C42.4428 63.9372 42.3945 63.7078 42.4313 63.484Z"
              fill="#2F2E41"/>
        <path d="M35.8506 8.27223C35.7156 7.95268 35.4896 7.67961 35.2005 7.4868C34.9114 7.29399 34.572 7.18991 34.2242 7.18744H1.75983C1.29317 7.18769 0.845694 7.3726 0.515717 7.70155C0.18574 8.03049 0.000250748 8.47657 0 8.94177V49.8841C0.000250748 50.3493 0.18574 50.7954 0.515717 51.1244C0.845694 51.4533 1.29317 51.6382 1.75983 51.6385H34.2253C34.6919 51.6379 35.1391 51.4528 35.469 51.124C35.7989 50.7951 35.9846 50.3492 35.9852 49.8841V8.94177C35.9859 8.71196 35.9406 8.48431 35.8518 8.27223H35.8506ZM35.5932 49.8841C35.5928 50.246 35.4484 50.5928 35.1917 50.8487C34.9351 51.1045 34.5871 51.2485 34.2242 51.2489H1.75983C1.3968 51.2488 1.04865 51.1051 0.791933 50.8492C0.535212 50.5933 0.390929 50.2463 0.390806 49.8844V8.94201C0.3913 8.58021 0.535696 8.23336 0.792329 7.97753C1.04896 7.7217 1.39689 7.57775 1.75983 7.57726H34.2253C34.4988 7.57829 34.7656 7.66051 34.992 7.81342C35.2183 7.96633 35.3938 8.18299 35.4961 8.43576C35.516 8.48613 35.5332 8.53753 35.5475 8.58974C35.5786 8.7046 35.5943 8.82304 35.5944 8.94201L35.5932 49.8841Z"
              fill="#3F3D56"/>
        <path d="M29.0757 16.8538H19.297C19.0895 16.8538 18.8905 16.7716 18.7438 16.6254C18.5971 16.4791 18.5147 16.2807 18.5147 16.0739C18.5147 15.8671 18.5971 15.6687 18.7438 15.5224C18.8905 15.3762 19.0895 15.294 19.297 15.294H29.0757C29.2832 15.294 29.4822 15.3762 29.6289 15.5224C29.7756 15.6687 29.8581 15.8671 29.8581 16.0739C29.8581 16.2807 29.7756 16.4791 29.6289 16.6254C29.4822 16.7716 29.2832 16.8538 29.0757 16.8538Z"
              fill="#3F3D56"/>
        <path d="M29.0757 20.948H19.297C19.1942 20.9482 19.0923 20.9281 18.9973 20.889C18.9023 20.8498 18.8159 20.7924 18.7431 20.72C18.6704 20.6475 18.6127 20.5615 18.5733 20.4668C18.5339 20.3721 18.5136 20.2706 18.5136 20.1681C18.5136 20.0656 18.5339 19.9641 18.5733 19.8694C18.6127 19.7748 18.6704 19.6887 18.7431 19.6163C18.8159 19.5439 18.9023 19.4864 18.9973 19.4473C19.0923 19.4082 19.1942 19.3881 19.297 19.3882H29.0757C29.1786 19.3881 29.2804 19.4082 29.3754 19.4473C29.4705 19.4864 29.5569 19.5439 29.6296 19.6163C29.7024 19.6887 29.7601 19.7748 29.7995 19.8694C29.8388 19.9641 29.8591 20.0656 29.8591 20.1681C29.8591 20.2706 29.8388 20.3721 29.7995 20.4668C29.7601 20.5615 29.7024 20.6475 29.6296 20.72C29.5569 20.7924 29.4705 20.8498 29.3754 20.889C29.2804 20.9281 29.1786 20.9482 29.0757 20.948Z"
              fill="#3F3D56"/>
        <path d="M14.2796 23.2793H7.13338C6.90002 23.2791 6.6763 23.1865 6.5113 23.0221C6.34629 22.8576 6.25348 22.6345 6.25323 22.4019V13.9951C6.25348 13.7624 6.34629 13.5394 6.5113 13.3749C6.6763 13.2104 6.90002 13.1179 7.13338 13.1177H14.2796C14.513 13.1179 14.7367 13.2104 14.9017 13.3749C15.0667 13.5394 15.1595 13.7624 15.1598 13.9951V22.4019C15.1595 22.6345 15.0667 22.8576 14.9017 23.0221C14.7367 23.1865 14.513 23.2791 14.2796 23.2793Z"
              fill="#19B1B6"/>
        <path d="M29.0079 29.3316H6.90801C6.70053 29.3316 6.50154 29.2494 6.35482 29.1031C6.20811 28.9569 6.12569 28.7585 6.12569 28.5517C6.12569 28.3448 6.20811 28.1465 6.35482 28.0002C6.50154 27.854 6.70053 27.7718 6.90801 27.7718H29.0079C29.2154 27.7718 29.4144 27.854 29.5611 28.0002C29.7078 28.1465 29.7902 28.3448 29.7902 28.5517C29.7902 28.7585 29.7078 28.9569 29.5611 29.1031C29.4144 29.2494 29.2154 29.3316 29.0079 29.3316Z"
              fill="#CCCCCC"/>
        <path d="M29.0079 33.4257H6.90801C6.70053 33.4257 6.50154 33.3436 6.35482 33.1973C6.20811 33.0511 6.12569 32.8527 6.12569 32.6459C6.12569 32.439 6.20811 32.2406 6.35482 32.0944C6.50154 31.9481 6.70053 31.866 6.90801 31.866H29.0079C29.2154 31.866 29.4144 31.9481 29.5611 32.0944C29.7078 32.2406 29.7902 32.439 29.7902 32.6459C29.7902 32.8527 29.7078 33.0511 29.5611 33.1973C29.4144 33.3436 29.2154 33.4257 29.0079 33.4257Z"
              fill="#CCCCCC"/>
        <path d="M29.0079 37.52H6.90802C6.70071 37.5197 6.502 37.4374 6.35551 37.2912C6.20902 37.145 6.12674 36.9468 6.12674 36.7401C6.12674 36.5334 6.20902 36.3352 6.35551 36.189C6.502 36.0428 6.70071 35.9605 6.90802 35.9602H29.0079C29.1107 35.9601 29.2126 35.9801 29.3076 36.0193C29.4026 36.0584 29.489 36.1158 29.5618 36.1883C29.6345 36.2607 29.6922 36.3467 29.7316 36.4414C29.771 36.5361 29.7913 36.6376 29.7913 36.7401C29.7913 36.8426 29.771 36.9441 29.7316 37.0388C29.6922 37.1335 29.6345 37.2195 29.5618 37.2919C29.489 37.3644 29.4026 37.4218 29.3076 37.4609C29.2126 37.5 29.1107 37.5201 29.0079 37.52Z"
              fill="#CCCCCC"/>
        <path d="M29.0079 41.6142H6.90801C6.70053 41.6142 6.50154 41.5321 6.35482 41.3858C6.20811 41.2395 6.12569 41.0412 6.12569 40.8343C6.12569 40.6275 6.20811 40.4291 6.35482 40.2829C6.50154 40.1366 6.70053 40.0544 6.90801 40.0544H29.0079C29.2154 40.0544 29.4144 40.1366 29.5611 40.2829C29.7078 40.4291 29.7902 40.6275 29.7902 40.8343C29.7902 41.0412 29.7078 41.2395 29.5611 41.3858C29.4144 41.5321 29.2154 41.6142 29.0079 41.6142Z"
              fill="#CCCCCC"/>
        <path d="M29.0079 45.7085H6.90801C6.70053 45.7085 6.50154 45.6263 6.35482 45.48C6.20811 45.3338 6.12569 45.1354 6.12569 44.9286C6.12569 44.7217 6.20811 44.5234 6.35482 44.3771C6.50154 44.2308 6.70053 44.1487 6.90801 44.1487H29.0079C29.2154 44.1487 29.4144 44.2308 29.5611 44.3771C29.7078 44.5234 29.7902 44.7217 29.7902 44.9286C29.7902 45.1354 29.7078 45.3338 29.5611 45.48C29.4144 45.6263 29.2154 45.7085 29.0079 45.7085Z"
              fill="#CCCCCC"/>
        <path d="M36.0933 15.0528C40.263 15.0528 43.6432 11.6831 43.6432 7.5264C43.6432 3.36968 40.263 0 36.0933 0C31.9236 0 28.5434 3.36968 28.5434 7.5264C28.5434 11.6831 31.9236 15.0528 36.0933 15.0528Z"
              fill="#19B1B6"/>
        <path d="M35.3451 10.3975C35.1753 10.3978 35.0099 10.343 34.874 10.2414L34.8656 10.2351L33.0913 8.88202C33.0091 8.81921 32.9401 8.74089 32.8883 8.65152C32.8365 8.56214 32.8029 8.46347 32.7893 8.36114C32.7757 8.2588 32.7825 8.1548 32.8093 8.05508C32.8361 7.95536 32.8823 7.86188 32.9453 7.77996C33.0083 7.69804 33.0868 7.62929 33.1765 7.57764C33.2661 7.52599 33.3651 7.49244 33.4678 7.47893C33.5704 7.46541 33.6747 7.47218 33.7748 7.49886C33.8748 7.52553 33.9686 7.57158 34.0508 7.63439L35.2 8.51296L37.9158 4.98095C37.9788 4.89906 38.0573 4.83034 38.147 4.77871C38.2366 4.72708 38.3355 4.69356 38.4381 4.68004C38.5407 4.66653 38.645 4.6733 38.745 4.69996C38.845 4.72663 38.9387 4.77266 39.0209 4.83544L39.0211 4.83561L39.0043 4.85894L39.0216 4.83561C39.1873 4.96258 39.2957 5.1499 39.323 5.35647C39.3504 5.56304 39.2944 5.77198 39.1674 5.93744L35.973 10.09C35.8991 10.1857 35.8041 10.2631 35.6953 10.3163C35.5865 10.3694 35.467 10.3969 35.3458 10.3965L35.3451 10.3975Z"
              fill="white"/>
        <path d="M83.8604 75H32.4943C32.4573 75 32.4218 74.9853 32.3956 74.9592C32.3695 74.9331 32.3548 74.8977 32.3548 74.8608C32.3548 74.8239 32.3695 74.7885 32.3956 74.7624C32.4218 74.7363 32.4573 74.7217 32.4943 74.7217H83.8604C83.8974 74.7217 83.9329 74.7363 83.9591 74.7624C83.9853 74.7885 84 74.8239 84 74.8608C84 74.8977 83.9853 74.9331 83.9591 74.9592C83.9329 74.9853 83.8974 75 83.8604 75Z"
              fill="#3F3D56"/>
    </g>
    <defs>
        <clipPath id="clip0_463_103">
            <rect width="84" height="75" fill="white"/>
        </clipPath>
    </defs>
</svg>
