<svg width="39" height="39" viewBox="0 0 39 39" fill="none" xmlns="http://www.w3.org/2000/svg">
<path d="M37.0826 18.173L9.21008 30.9706C8.81334 31.1522 8.36076 31.169 7.95163 31.0174C7.5425 30.8657 7.21024 30.5579 7.02774 30.1616L0.149492 15.1793C-0.0321125 14.7825 -0.0489298 14.3299 0.102729 13.9208C0.254389 13.5116 0.562141 13.1794 0.958468 12.9968L28.831 0.199304C29.2277 0.0176896 29.6803 0.000872597 30.0894 0.152541C30.4985 0.304208 30.8308 0.611976 31.0133 1.00833L37.8915 15.9906C38.0732 16.3873 38.09 16.8399 37.9383 17.2491C37.7867 17.6582 37.4789 17.9905 37.0826 18.173Z" fill="white"/>
<path d="M1.42221 14.0068C1.29346 14.066 1.19348 14.174 1.14421 14.3069C1.09494 14.4398 1.10041 14.5869 1.15941 14.7158L8.03766 29.698C8.09695 29.8268 8.20489 29.9268 8.3378 29.976C8.47071 30.0253 8.61773 30.0198 8.74662 29.9608L36.6191 17.1633C36.7479 17.104 36.8478 16.9961 36.8971 16.8631C36.9464 16.7302 36.9409 16.5832 36.8819 16.4543L30.0037 1.47203C29.9444 1.34327 29.8364 1.24329 29.7035 1.19402C29.5706 1.14475 29.4236 1.15021 29.2947 1.20921L1.42221 14.0068Z" fill="#E4E4E4"/>
<path d="M37.0826 18.173L9.21008 30.9706C8.81334 31.1522 8.36076 31.169 7.95163 31.0174C7.5425 30.8657 7.21024 30.5579 7.02774 30.1616L0.149492 15.1793C-0.0321125 14.7825 -0.0489298 14.3299 0.102729 13.9208C0.254389 13.5116 0.562141 13.1794 0.958468 12.9968L28.831 0.199304C29.2277 0.0176896 29.6803 0.000872597 30.0894 0.152541C30.4985 0.304208 30.8308 0.611976 31.0133 1.00833L37.8915 15.9906C38.0732 16.3873 38.09 16.8399 37.9383 17.2491C37.7867 17.6582 37.4789 17.9905 37.0826 18.173ZM1.02978 13.1522C0.674619 13.3158 0.398832 13.6135 0.262926 13.9802C0.127019 14.3468 0.142094 14.7524 0.304839 15.108L7.18309 30.0902C7.34664 30.4454 7.64439 30.7212 8.01102 30.8571C8.37765 30.9931 8.78322 30.978 9.13875 30.8152L37.0112 18.0177C37.3664 17.8541 37.6422 17.5564 37.7781 17.1897C37.914 16.8231 37.8989 16.4175 37.7362 16.0619L30.8579 1.07965C30.6944 0.72447 30.3966 0.448667 30.03 0.312753C29.6634 0.176838 29.2578 0.191912 28.9023 0.354667L1.02978 13.1522Z" fill="#CACACA"/>
<path d="M30.1179 11.3744L7.97491 21.5413C7.79656 21.6229 7.59739 21.6474 7.40457 21.6116C7.21176 21.5758 7.0347 21.4813 6.89757 21.3411L0.418976 14.6969C0.312724 14.5879 0.234183 14.455 0.189956 14.3094C0.145728 14.1638 0.137107 14.0096 0.164817 13.86C0.192526 13.7103 0.255757 13.5695 0.349192 13.4494C0.442628 13.3292 0.563537 13.2333 0.701759 13.1696L29.0794 0.0872423C29.2158 0.0243912 29.3652 -0.0052453 29.5152 0.000760433C29.6653 0.00676616 29.8118 0.0482435 29.9428 0.121794C30.0738 0.195345 30.1854 0.298877 30.2687 0.423908C30.3519 0.54894 30.4044 0.691915 30.4217 0.841119L30.4255 0.841023L30.6717 10.4862C30.6766 10.6722 30.6267 10.8556 30.5282 11.0135C30.4298 11.1714 30.2871 11.2969 30.1179 11.3744ZM29.1519 0.242043L0.773293 13.3248C0.659925 13.3771 0.560755 13.4558 0.484119 13.5543C0.407484 13.6528 0.355623 13.7683 0.332895 13.8911C0.310168 14.0138 0.317238 14.1402 0.353512 14.2597C0.389785 14.3791 0.454203 14.4881 0.541349 14.5775L7.01994 21.2217C7.13241 21.3367 7.27764 21.4142 7.43579 21.4436C7.59394 21.473 7.75731 21.4529 7.90359 21.386L30.0466 11.2191C30.1854 11.1555 30.3024 11.0526 30.3831 10.923C30.4639 10.7935 30.5048 10.6431 30.5008 10.4905L30.2568 0.930844C30.2535 0.801842 30.2182 0.675675 30.1542 0.563654C30.0901 0.451634 29.9993 0.357261 29.8898 0.288996C29.7803 0.220731 29.6555 0.180706 29.5267 0.172511C29.398 0.164317 29.2692 0.188208 29.1519 0.242043Z" fill="#CACACA"/>
<path d="M16.2324 25.1285L9.33352 28.2961C9.28346 28.3192 9.22935 28.3321 9.17428 28.3342C9.11921 28.3363 9.06426 28.3276 9.01258 28.3085C8.9609 28.2893 8.91349 28.2602 8.87307 28.2227C8.83265 28.1853 8.80001 28.1402 8.77702 28.0901C8.75403 28.04 8.74113 27.9859 8.73906 27.9308C8.737 27.8758 8.74581 27.8208 8.76499 27.7692C8.78417 27.7175 8.81334 27.6701 8.85084 27.6297C8.88835 27.5893 8.93344 27.5567 8.98354 27.5338L15.8824 24.3662C15.9835 24.3199 16.0988 24.3157 16.203 24.3543C16.3072 24.393 16.3918 24.4715 16.4382 24.5725C16.4845 24.6736 16.4889 24.7889 16.4503 24.8931C16.4117 24.9974 16.3333 25.0821 16.2324 25.1285Z" fill="white"/>
<path d="M21.2793 15.3389C21.3977 15.5962 21.4643 15.8743 21.4751 16.1574C21.486 16.4404 21.441 16.7228 21.3427 16.9885C21.2444 17.2541 21.0947 17.4978 20.9021 17.7056C20.7096 17.9133 20.478 18.0811 20.2206 18.1993C19.9631 18.3175 19.685 18.3838 19.4019 18.3944C19.1189 18.405 18.8365 18.3597 18.571 18.2611C18.3054 18.1625 18.0619 18.0126 17.8544 17.8198C17.6468 17.6271 17.4793 17.3953 17.3613 17.1378" fill="#CACACA"/>
<path d="M36.8341 38.5515H6.16431C5.72798 38.551 5.30966 38.3774 5.00113 38.0689C4.69259 37.7603 4.51904 37.342 4.51855 36.9056V20.4198C4.51905 19.9834 4.6926 19.5651 5.00114 19.2565C5.30967 18.948 5.72798 18.7744 6.16431 18.7739H36.8341C37.2704 18.7744 37.6887 18.948 37.9973 19.2565C38.3058 19.5651 38.4793 19.9834 38.4798 20.4198V36.9056C38.4793 37.342 38.3058 37.7603 37.9973 38.0689C37.6887 38.3774 37.2704 38.551 36.8341 38.5515Z" fill="white"/>
<path d="M6.16453 19.8853C6.02278 19.8854 5.88689 19.9418 5.78665 20.042C5.68642 20.1423 5.63004 20.2782 5.62988 20.4199V36.9058C5.63004 37.0476 5.68642 37.1835 5.78665 37.2837C5.88689 37.3839 6.02278 37.4403 6.16453 37.4405H36.8343C36.976 37.4403 37.1119 37.3839 37.2122 37.2837C37.3124 37.1835 37.3688 37.0476 37.3689 36.9058V20.4199C37.3688 20.2782 37.3124 20.1423 37.2122 20.042C37.1119 19.9418 36.976 19.8854 36.8343 19.8853H6.16453Z" fill="#117CEE"/>
<path d="M36.8341 38.5515H6.16431C5.72798 38.551 5.30966 38.3774 5.00113 38.0689C4.69259 37.7603 4.51904 37.342 4.51855 36.9056V20.4198C4.51905 19.9834 4.6926 19.5651 5.00114 19.2565C5.30967 18.948 5.72798 18.7744 6.16431 18.7739H36.8341C37.2704 18.7744 37.6887 18.948 37.9973 19.2565C38.3058 19.5651 38.4793 19.9834 38.4798 20.4198V36.9056C38.4793 37.342 38.3058 37.7603 37.9973 38.0689C37.6887 38.3774 37.2704 38.551 36.8341 38.5515ZM6.16431 18.9449C5.7733 18.9453 5.39843 19.1009 5.12195 19.3774C4.84546 19.6539 4.68994 20.0287 4.68949 20.4198V36.9056C4.68994 37.2967 4.84546 37.6716 5.12195 37.9481C5.39843 38.2246 5.7733 38.3801 6.16431 38.3805H36.8341C37.2251 38.3801 37.6 38.2246 37.8764 37.9481C38.1529 37.6716 38.3084 37.2967 38.3089 36.9056V20.4198C38.3084 20.0287 38.1529 19.6539 37.8764 19.3774C37.6 19.1009 37.2251 18.9453 36.8341 18.9449H6.16431Z" fill="#3F3D56"/>
<path d="M33.3413 29.4665H8.976C8.77988 29.4662 8.58863 29.4054 8.42836 29.2924C8.26808 29.1794 8.14659 29.0196 8.08046 28.835L4.96485 20.0935C4.91376 19.9501 4.89782 19.7965 4.91839 19.6457C4.93896 19.4949 4.99542 19.3513 5.08305 19.2268C5.17067 19.1024 5.28689 19.0008 5.42193 18.9306C5.55696 18.8604 5.70688 18.8236 5.85908 18.8234L37.1067 18.7754C37.2569 18.7752 37.405 18.8106 37.5389 18.8787C37.6728 18.9468 37.7886 19.0456 37.877 19.1671C37.9653 19.2886 38.0236 19.4293 38.0471 19.5776C38.0706 19.726 38.0586 19.8778 38.0121 20.0206L38.0156 20.0221L34.2151 28.8903C34.142 29.0614 34.0201 29.2072 33.8648 29.3097C33.7094 29.4121 33.5274 29.4666 33.3413 29.4665ZM37.108 18.9463L5.8593 18.9944C5.73448 18.9945 5.61152 19.0247 5.50076 19.0823C5.39 19.1398 5.29468 19.2232 5.22282 19.3252C5.15095 19.4273 5.10464 19.5451 5.08777 19.6688C5.0709 19.7925 5.08396 19.9184 5.12587 20.036L8.24147 28.7775C8.2957 28.929 8.39534 29.06 8.52681 29.1527C8.65827 29.2454 8.81514 29.2953 8.976 29.2955H33.3413C33.4939 29.2957 33.6432 29.2509 33.7706 29.1669C33.8981 29.0829 33.998 28.9633 34.058 28.8229L37.8248 20.0333C37.8756 19.9147 37.8962 19.7854 37.8847 19.6568C37.8732 19.5283 37.83 19.4046 37.759 19.2969C37.688 19.1892 37.5913 19.1007 37.4777 19.0396C37.3641 18.9784 37.2371 18.9463 37.108 18.9463Z" fill="#3F3D56"/>
<path d="M14.9833 36.1723H7.39205C7.28082 36.1723 7.17414 36.1281 7.09549 36.0495C7.01684 35.9708 6.97266 35.8641 6.97266 35.7529C6.97266 35.6417 7.01684 35.535 7.09549 35.4563C7.17414 35.3777 7.28082 35.3335 7.39205 35.3335H14.9833C15.0945 35.3335 15.2012 35.3777 15.2798 35.4563C15.3585 35.535 15.4027 35.6417 15.4027 35.7529C15.4027 35.8641 15.3585 35.9708 15.2798 36.0495C15.2012 36.1281 15.0945 36.1723 14.9833 36.1723Z" fill="white"/>
<path d="M23.6549 29.3813C23.6549 29.9531 23.4278 30.5014 23.0235 30.9057C22.6193 31.3099 22.071 31.5371 21.4993 31.5371C20.9276 31.5371 20.3794 31.3099 19.9751 30.9057C19.5709 30.5014 19.3438 29.9531 19.3438 29.3813" fill="#3F3D56"/>
</svg>
