<svg width="120" height="127" viewBox="0 0 120 127" fill="none" xmlns="http://www.w3.org/2000/svg">
<mask id="mask0_134_849" style="mask-type:luminance" maskUnits="userSpaceOnUse" x="0" y="0" width="120" height="127">
<path d="M0 0H120V122.957C120 125.166 118.209 126.957 116 126.957H0V0Z" fill="white"/>
</mask>
<g mask="url(#mask0_134_849)">
<path d="M120 139C133.807 139 145 127.807 145 114C145 100.193 133.807 89 120 89C106.193 89 95 100.193 95 114C95 127.807 106.193 139 120 139Z" fill="white"/>
<path d="M95 162C108.807 162 120 150.807 120 137C120 123.193 108.807 112 95 112C81.1929 112 70 123.193 70 137C70 150.807 81.1929 162 95 162Z" fill="white"/>
<path d="M58 137C62.9706 137 67 132.971 67 128C67 123.029 62.9706 119 58 119C53.0294 119 49 123.029 49 128C49 132.971 53.0294 137 58 137Z" fill="white"/>
<path d="M91 73.3386C92.515 74.6447 94.604 77.5452 96.564 82.2898" stroke="white" stroke-opacity="0.7" stroke-width="2.22578"/>
<path d="M96.5649 70C100.445 73.1829 108.1 86.3194 107.677 113.403" stroke="white" stroke-opacity="0.7" stroke-width="2.22578"/>
<path d="M31.4999 74L33.4509 83.5489L43 85.5L33.4509 87.4511L31.4999 97L29.5488 87.4511L20 85.5L29.5488 83.5489L31.4999 74Z" fill="white" fill-opacity="0.7"/>
<path d="M68.8063 31L71.8273 45.7852L86.613 48.8063L71.8273 51.8273L68.8063 66.6126L65.7852 51.8273L51 48.8063L65.7852 45.7852L68.8063 31Z" fill="white" fill-opacity="0.7"/>
</g>
</svg>
