<svg width="64" height="60" viewBox="0 0 64 60" fill="none" xmlns="http://www.w3.org/2000/svg">
<g id="undraw_resume_jrgi 1" clip-path="url(#clip0_134_2162)">
<path id="Vector" d="M30.1728 0.50053L28.2145 1.57352L4.08668 14.7929L2.12829 15.8659C1.17802 16.388 0.472768 17.2672 0.167265 18.3107C-0.138239 19.3543 -0.0190462 20.4769 0.498693 21.4323L18.4661 54.4995C18.986 55.4537 19.8616 56.1619 20.9008 56.4687C21.94 56.7754 23.0579 56.6558 24.0094 56.1359L24.0144 56.1331L52.0489 40.7732L52.0539 40.7705C53.0042 40.2484 53.7094 39.3692 54.0149 38.3256C54.3205 37.2821 54.2013 36.1595 53.6835 35.2041L35.7161 2.13692C35.1963 1.1827 34.3207 0.474508 33.2815 0.16773C32.2422 -0.139048 31.1243 -0.0193617 30.1728 0.50053Z" fill="#F2F2F2"/>
<path id="Vector_2" d="M30.736 1.53737L28.4164 2.80825L5.01097 15.6319L2.69142 16.9028C2.01471 17.2746 1.51248 17.9007 1.29492 18.6438C1.07736 19.3869 1.16224 20.1864 1.53094 20.8667L19.4983 53.9339C19.8685 54.6134 20.4921 55.1177 21.2321 55.3362C21.9722 55.5547 22.7683 55.4694 23.4458 55.0992L23.4509 55.0964L51.4853 39.7366L51.4904 39.7338C52.1671 39.362 52.6693 38.7359 52.8869 37.9928C53.1044 37.2497 53.0196 36.4502 52.6509 35.7699L34.6835 2.7027C34.3133 2.02318 33.6898 1.51886 32.9497 1.30039C32.2097 1.08193 31.4136 1.16715 30.736 1.53737Z" fill="white"/>
<path id="Vector_3" d="M31.1227 11.8015L20.667 17.5301C20.5086 17.6169 20.3223 17.6369 20.1492 17.5858C19.9761 17.5347 19.8303 17.4167 19.7439 17.2576C19.6574 17.0986 19.6375 16.9115 19.6884 16.7377C19.7393 16.5639 19.8568 16.4174 20.0152 16.3307L30.471 10.602C30.6294 10.5152 30.8157 10.4952 30.9888 10.5463C31.1619 10.5974 31.3077 10.7155 31.3941 10.8745C31.4805 11.0336 31.5005 11.2206 31.4496 11.3944C31.3987 11.5683 31.2811 11.7147 31.1227 11.8015Z" fill="#F2F2F2"/>
<path id="Vector_4" d="M34.6862 12.4758L21.7668 19.5542C21.6084 19.641 21.4221 19.661 21.249 19.6099C21.0759 19.5588 20.9301 19.4408 20.8437 19.2817C20.7572 19.1227 20.7373 18.9356 20.7882 18.7618C20.8391 18.588 20.9566 18.4416 21.115 18.3548L34.0344 11.2763C34.1128 11.2334 34.1989 11.2063 34.2878 11.1968C34.3766 11.1872 34.4665 11.1953 34.5522 11.2206C34.6379 11.2459 34.7178 11.2879 34.7874 11.3442C34.8569 11.4006 34.9147 11.4701 34.9575 11.5488C35.0003 11.6276 35.0272 11.714 35.0368 11.8032C35.0463 11.8925 35.0382 11.9827 35.013 12.0687C34.9878 12.1548 34.946 12.2351 34.8899 12.3049C34.8338 12.3748 34.7646 12.4328 34.6862 12.4758Z" fill="#F2F2F2"/>
<path id="Vector_5" d="M16.3685 15.1454L6.7289 20.4269C6.65302 20.4685 6.5967 20.5387 6.57232 20.6219C6.54794 20.7052 6.55749 20.7948 6.59888 20.8711L10.7037 28.4255C10.7451 28.5017 10.815 28.5583 10.8979 28.5828C10.9808 28.6072 11.0701 28.5976 11.146 28.5561L20.7856 23.2746C20.8615 23.233 20.9178 23.1629 20.9422 23.0796C20.9666 22.9963 20.957 22.9067 20.9156 22.8305L16.8108 15.276C16.7694 15.1998 16.6995 15.1433 16.6166 15.1188C16.5337 15.0943 16.4444 15.1039 16.3685 15.1454Z" fill="#F2F2F2"/>
<path id="Vector_6" d="M36.3106 21.3869L22.1287 29.1571C22.0503 29.2001 21.9642 29.2271 21.8753 29.2367C21.7865 29.2462 21.6967 29.2381 21.6109 29.2128C21.5252 29.1875 21.4453 29.1455 21.3758 29.0892C21.3062 29.0329 21.2484 28.9634 21.2056 28.8846C21.1628 28.8058 21.1359 28.7194 21.1263 28.6302C21.1168 28.541 21.1249 28.4508 21.1501 28.3647C21.1753 28.2786 21.2171 28.1984 21.2732 28.1285C21.3293 28.0587 21.3985 28.0006 21.477 27.9576L35.6589 20.1875C35.8173 20.1007 36.0035 20.0806 36.1767 20.1317C36.3498 20.1828 36.4956 20.3009 36.582 20.46C36.6684 20.619 36.6884 20.806 36.6375 20.9799C36.5866 21.1537 36.469 21.3001 36.3106 21.3869Z" fill="#F2F2F2"/>
<path id="Vector_7" d="M39.8741 22.0612L23.2285 31.1812C23.0701 31.268 22.8839 31.288 22.7107 31.2369C22.5376 31.1858 22.3918 31.0678 22.3054 30.9087C22.219 30.7497 22.199 30.5626 22.2499 30.3888C22.3008 30.215 22.4184 30.0685 22.5768 29.9818L39.2223 20.8618C39.3807 20.775 39.567 20.755 39.7401 20.8061C39.9132 20.8572 40.059 20.9752 40.1454 21.1343C40.2319 21.2933 40.2518 21.4804 40.2009 21.6542C40.15 21.828 40.0325 21.9744 39.8741 22.0612Z" fill="#F2F2F2"/>
<path id="Vector_8" d="M16.7275 35.5205C18.3217 35.5205 19.614 34.2228 19.614 32.6221C19.614 31.0213 18.3217 29.7236 16.7275 29.7236C15.1334 29.7236 13.8411 31.0213 13.8411 32.6221C13.8411 34.2228 15.1334 35.5205 16.7275 35.5205Z" fill="#F2F2F2"/>
<path id="Vector_9" d="M59.9144 14.126H27.967C26.8838 14.1272 25.8453 14.5598 25.0794 15.3289C24.3135 16.0981 23.8826 17.1409 23.8814 18.2286V55.8976C23.8826 56.9853 24.3135 58.0281 25.0794 58.7972C25.8453 59.5663 26.8838 59.999 27.967 60.0002H59.9144C60.9976 59.999 62.0361 59.5663 62.802 58.7972C63.5679 58.0281 63.9988 56.9853 64 55.8976V18.2286C63.9988 17.1409 63.5679 16.0981 62.802 15.3289C62.0361 14.5598 60.9976 14.1272 59.9144 14.126Z" fill="#E6E6E6"/>
<path id="Vector_10" d="M59.9145 15.3066H27.967C27.1956 15.3075 26.4561 15.6156 25.9107 16.1633C25.3652 16.711 25.0584 17.4536 25.0576 18.2282V55.8972C25.0584 56.6718 25.3652 57.4144 25.9107 57.9621C26.4561 58.5098 27.1956 58.8179 27.967 58.8188H59.9145C60.6858 58.8179 61.4253 58.5098 61.9708 57.9621C62.5162 57.4144 62.823 56.6718 62.8239 55.8972V18.2282C62.823 17.4536 62.5162 16.711 61.9708 16.1633C61.4253 15.6156 60.6858 15.3075 59.9145 15.3066Z" fill="white"/>
<path id="Vector_11" d="M55.3582 24.5031H43.4473C43.2669 24.5031 43.0938 24.4311 42.9663 24.303C42.8387 24.1749 42.767 24.0011 42.767 23.8199C42.767 23.6387 42.8387 23.4649 42.9663 23.3368C43.0938 23.2087 43.2669 23.1367 43.4473 23.1367H55.3582C55.4476 23.1366 55.5362 23.1542 55.6188 23.1885C55.7014 23.2228 55.7765 23.2731 55.8398 23.3366C55.903 23.4 55.9532 23.4753 55.9875 23.5583C56.0217 23.6412 56.0393 23.7301 56.0393 23.8199C56.0393 23.9097 56.0217 23.9986 55.9875 24.0815C55.9532 24.1645 55.903 24.2398 55.8398 24.3033C55.7765 24.3667 55.7014 24.417 55.6188 24.4513C55.5362 24.4856 55.4476 24.5032 55.3582 24.5031Z" fill="#19B1B6"/>
<path id="Vector_12" d="M58.1647 26.8088H43.4473C43.2669 26.8088 43.0938 26.7368 42.9663 26.6087C42.8387 26.4805 42.767 26.3068 42.767 26.1256C42.767 25.9444 42.8387 25.7706 42.9663 25.6425C43.0938 25.5144 43.2669 25.4424 43.4473 25.4424H58.1647C58.3451 25.4424 58.5182 25.5144 58.6458 25.6425C58.7734 25.7706 58.845 25.9444 58.845 26.1256C58.845 26.3068 58.7734 26.4805 58.6458 26.6087C58.5182 26.7368 58.3451 26.8088 58.1647 26.8088Z" fill="#19B1B6"/>
<path id="Vector_13" d="M40.8114 20.3423H29.8303C29.7438 20.3423 29.6609 20.3768 29.5998 20.4382C29.5387 20.4996 29.5043 20.5828 29.5043 20.6696V29.2754C29.5043 29.3622 29.5387 29.4455 29.5998 29.5069C29.6609 29.5683 29.7438 29.6028 29.8303 29.6028H40.8114C40.8979 29.6028 40.9808 29.5683 41.0419 29.5069C41.103 29.4455 41.1374 29.3622 41.1374 29.2754V20.6696C41.1374 20.5828 41.103 20.4996 41.0419 20.4382C40.9808 20.3768 40.8979 20.3423 40.8114 20.3423Z" fill="#E6E6E6"/>
<path id="Vector_14" d="M32.8425 25.6269C32.847 26.3534 32.5804 27.0553 32.0951 27.5941C31.6149 28.1233 30.9001 28.4742 30.1787 28.329C29.5145 28.1953 28.9747 27.6123 29.0421 26.9071C29.0533 26.7543 29.0975 26.6059 29.1716 26.472C29.2458 26.3382 29.3482 26.2222 29.4715 26.1322C29.5949 26.0421 29.7364 25.9802 29.8861 25.9507C30.0357 25.9212 30.19 25.9248 30.3381 25.9613C30.9691 26.1257 31.2206 27.0389 30.6948 27.4675C30.5686 27.5704 30.3873 27.3905 30.5147 27.2867C30.8623 27.0033 30.7549 26.3834 30.3353 26.228C29.8469 26.047 29.3293 26.4363 29.2942 26.9377C29.2526 27.5323 29.7061 27.98 30.2624 28.0854C30.8641 28.1994 31.4607 27.8902 31.8684 27.4633C32.3357 26.9677 32.5936 26.3095 32.5878 25.6269C32.589 25.5938 32.6029 25.5624 32.6266 25.5393C32.6504 25.5163 32.6821 25.5034 32.7152 25.5034C32.7482 25.5034 32.7799 25.5163 32.8037 25.5393C32.8274 25.5624 32.8414 25.5938 32.8425 25.6269Z" fill="#2F2E41"/>
<path id="Vector_15" d="M35.3294 27.2527C37.8387 27.2527 39.8729 25.2101 39.8729 22.6903C39.8729 20.1706 37.8387 18.1279 35.3294 18.1279C32.8201 18.1279 30.7859 20.1706 30.7859 22.6903C30.7859 25.2101 32.8201 27.2527 35.3294 27.2527Z" fill="#19B1B6"/>
<path id="Vector_16" d="M35.0969 24.6368L35.0922 24.4663C35.4081 24.4575 35.6866 24.4376 35.8958 24.2841C35.9551 24.2381 36.0039 24.1798 36.0388 24.1132C36.0737 24.0466 36.0939 23.9732 36.098 23.898C36.1017 23.8521 36.0947 23.806 36.0778 23.7632C36.0608 23.7204 36.0342 23.6821 36.0001 23.6513C35.8612 23.5335 35.6377 23.5716 35.4748 23.6466L35.3343 23.7113L35.6037 21.7344L35.7719 21.7575L35.5428 23.4392C35.7641 23.3738 35.9692 23.402 36.1097 23.5211C36.1637 23.5684 36.206 23.6275 36.2334 23.694C36.2608 23.7604 36.2725 23.8323 36.2677 23.904C36.2627 24.005 36.2358 24.1037 36.1889 24.1931C36.142 24.2825 36.0761 24.3606 35.996 24.4218C35.7271 24.6191 35.3777 24.6289 35.0969 24.6368Z" fill="#2F2E41"/>
<path id="Vector_17" d="M37.5183 21.9028H36.6038V22.0733H37.5183V21.9028Z" fill="#2F2E41"/>
<path id="Vector_18" d="M34.6318 21.9028H33.7174V22.0733H34.6318V21.9028Z" fill="#2F2E41"/>
<path id="Vector_19" d="M32.8126 29.6027C33.1532 29.3857 33.5212 29.2157 33.9069 29.0972C33.8701 28.9658 33.8707 28.8267 33.9086 28.6956C33.9598 28.5301 34.063 28.3856 34.2026 28.2837C34.3423 28.1819 34.5111 28.1281 34.6837 28.1304H35.7907C35.9636 28.1282 36.1327 28.1821 36.2726 28.2841C36.4126 28.3861 36.516 28.5307 36.5676 28.6965C36.6054 28.8273 36.606 28.9661 36.5692 29.0972C36.9548 29.2158 37.3229 29.3858 37.6635 29.6027H32.8126Z" fill="#2F2E41"/>
<path id="Vector_20" d="M40.5338 20.997C40.451 20.8964 40.3492 20.8132 40.2342 20.7524C40.1332 20.6995 40.0211 20.6717 39.9073 20.6714C39.751 20.6733 39.5992 20.7246 39.4735 20.818C39.128 21.0635 38.8886 21.5929 38.8886 22.2059C38.8886 22.9748 39.2655 23.6124 39.7553 23.7233C39.8052 23.7345 39.8562 23.7402 39.9073 23.7403C40.4684 23.7403 40.926 23.0524 40.926 22.2059C40.926 21.7148 40.7724 21.2775 40.5338 20.997Z" fill="#3F3D56"/>
<path id="Vector_21" d="M31.2022 20.7814H31.2014C31.0879 20.7106 30.9572 20.6726 30.8236 20.6714C30.7097 20.6717 30.5976 20.6995 30.4967 20.7524C30.3817 20.8132 30.2798 20.8964 30.197 20.997L30.1962 20.9979C29.9585 21.2784 29.8048 21.7157 29.8048 22.2059C29.8048 22.8674 30.0833 23.4317 30.4738 23.6474C30.5807 23.7075 30.701 23.7395 30.8236 23.7403C30.8508 23.7403 30.878 23.7386 30.9051 23.7352H30.9059C31.4289 23.6721 31.8423 23.0106 31.8423 22.2059C31.8423 21.5614 31.5766 21.0081 31.2022 20.7814Z" fill="#3F3D56"/>
<path id="Vector_22" d="M30.5375 23.5008C30.5577 23.5008 30.5776 23.496 30.5956 23.4867C30.6136 23.4774 30.6291 23.464 30.6409 23.4475C30.6527 23.431 30.6604 23.4119 30.6634 23.3919C30.6664 23.3718 30.6646 23.3513 30.6582 23.332C30.4148 22.6053 30.3416 21.832 30.4442 21.0722C30.5468 20.3124 30.8226 19.5866 31.25 18.9512C31.6774 18.3158 32.2449 17.788 32.9085 17.4087C33.5721 17.0293 34.3138 16.8088 35.0761 16.7641C35.8384 16.7195 36.6006 16.8519 37.3036 17.1512C38.0067 17.4504 38.6315 17.9084 39.1296 18.4896C39.6276 19.0707 39.9855 19.7594 40.1755 20.5021C40.3654 21.2447 40.3823 22.0213 40.2247 22.7716C40.2177 22.8048 40.2242 22.8394 40.2426 22.8678C40.2611 22.8962 40.29 22.9161 40.323 22.9231C40.3561 22.9301 40.3905 22.9236 40.4188 22.9051C40.4471 22.8866 40.4669 22.8575 40.4739 22.8243C40.6397 22.0356 40.6221 21.219 40.4224 20.4382C40.2228 19.6573 39.8465 18.9332 39.3229 18.3222C38.7992 17.7111 38.1423 17.2295 37.4031 16.9149C36.664 16.6002 35.8626 16.461 35.0611 16.5079C34.2596 16.5549 33.4798 16.7868 32.7821 17.1857C32.0844 17.5846 31.4877 18.1396 31.0384 18.8077C30.5891 19.4758 30.2993 20.2389 30.1915 21.0378C30.0837 21.8367 30.1608 22.6497 30.4168 23.4138C30.4253 23.4392 30.4416 23.4612 30.4632 23.4768C30.4848 23.4924 30.5108 23.5008 30.5375 23.5008Z" fill="#3F3D56"/>
<path id="Vector_23" d="M37.6118 19.734C37.7917 19.9806 37.703 20.3129 37.5135 20.5255C37.2668 20.8022 36.8735 20.8196 36.5319 20.7683C36.1487 20.7107 35.7422 20.5304 35.3542 20.6519C35.0235 20.7554 34.7876 21.0566 34.444 21.1323C34.1394 21.1994 33.775 21.1106 33.6682 20.7845C33.6169 20.6278 33.8627 20.5606 33.9138 20.7165C33.9829 20.9274 34.2813 20.9232 34.4521 20.8648C34.7261 20.7712 34.9372 20.5433 35.2065 20.4345C35.5239 20.3062 35.8683 20.3642 36.1915 20.4372C36.4961 20.5061 36.8467 20.6082 37.1502 20.4796C37.3748 20.3844 37.5534 20.0844 37.3919 19.8631C37.2949 19.7301 37.5158 19.6024 37.6118 19.734Z" fill="#2F2E41"/>
<path id="Vector_24" d="M55.3403 35.4128H39.1847C39.0953 35.4128 39.0069 35.3951 38.9243 35.3608C38.8418 35.3264 38.7668 35.2761 38.7036 35.2127C38.6404 35.1492 38.5903 35.0739 38.5561 34.991C38.5219 34.9081 38.5043 34.8193 38.5043 34.7296C38.5043 34.6399 38.5219 34.551 38.5561 34.4681C38.5903 34.3852 38.6404 34.3099 38.7036 34.2465C38.7668 34.183 38.8418 34.1327 38.9243 34.0984C39.0069 34.0641 39.0953 34.0464 39.1847 34.0464H55.3403C55.5206 34.0466 55.6935 34.1187 55.8209 34.2468C55.9483 34.3749 56.0199 34.5485 56.0199 34.7296C56.0199 34.9106 55.9483 35.0843 55.8209 35.2124C55.6935 35.3405 55.5206 35.4126 55.3403 35.4128Z" fill="#E6E6E6"/>
<path id="Vector_25" d="M58.1468 37.7184H39.1847C39.0953 37.7185 39.0067 37.7009 38.9241 37.6666C38.8414 37.6324 38.7664 37.582 38.7031 37.5186C38.6398 37.4551 38.5897 37.3798 38.5554 37.2969C38.5212 37.2139 38.5036 37.125 38.5036 37.0352C38.5036 36.9455 38.5212 36.8566 38.5554 36.7736C38.5897 36.6907 38.6398 36.6153 38.7031 36.5519C38.7664 36.4884 38.8414 36.4381 38.9241 36.4038C39.0067 36.3695 39.0953 36.352 39.1847 36.3521H58.1468C58.2362 36.352 58.3247 36.3695 58.4074 36.4038C58.49 36.4381 58.5651 36.4884 58.6283 36.5519C58.6916 36.6153 58.7418 36.6907 58.776 36.7736C58.8102 36.8566 58.8279 36.9455 58.8279 37.0352C58.8279 37.125 58.8102 37.2139 58.776 37.2969C58.7418 37.3798 58.6916 37.4551 58.6283 37.5186C58.5651 37.582 58.49 37.6324 58.4074 37.6666C58.3247 37.7009 58.2362 37.7185 58.1468 37.7184Z" fill="#E6E6E6"/>
<path id="Vector_26" d="M55.3403 43.6999H39.1847C39.0042 43.6999 38.8312 43.6279 38.7036 43.4998C38.576 43.3716 38.5043 43.1979 38.5043 43.0167C38.5043 42.8355 38.576 42.6617 38.7036 42.5336C38.8312 42.4055 39.0042 42.3335 39.1847 42.3335H55.3403C55.5207 42.3335 55.6938 42.4055 55.8214 42.5336C55.949 42.6617 56.0206 42.8355 56.0206 43.0167C56.0206 43.1979 55.949 43.3716 55.8214 43.4998C55.6938 43.6279 55.5207 43.6999 55.3403 43.6999Z" fill="#E6E6E6"/>
<path id="Vector_27" d="M58.1468 46.0055H39.1847C39.0042 46.0055 38.8312 45.9336 38.7036 45.8054C38.576 45.6773 38.5043 45.5035 38.5043 45.3223C38.5043 45.1412 38.576 44.9674 38.7036 44.8393C38.8312 44.7111 39.0042 44.6392 39.1847 44.6392H58.1468C58.3272 44.6392 58.5002 44.7111 58.6278 44.8393C58.7554 44.9674 58.8271 45.1412 58.8271 45.3223C58.8271 45.5035 58.7554 45.6773 58.6278 45.8054C58.5002 45.9336 58.3272 46.0055 58.1468 46.0055Z" fill="#E6E6E6"/>
<path id="Vector_28" d="M32.7906 38.7549C34.3847 38.7549 35.677 37.4572 35.677 35.8564C35.677 34.2557 34.3847 32.958 32.7906 32.958C31.1964 32.958 29.9041 34.2557 29.9041 35.8564C29.9041 37.4572 31.1964 38.7549 32.7906 38.7549Z" fill="#E6E6E6"/>
<path id="Vector_29" d="M32.7906 47.1094C34.3847 47.1094 35.677 45.8117 35.677 44.2109C35.677 42.6102 34.3847 41.3125 32.7906 41.3125C31.1964 41.3125 29.9041 42.6102 29.9041 44.2109C29.9041 45.8117 31.1964 47.1094 32.7906 47.1094Z" fill="#E6E6E6"/>
<path id="Vector_30" d="M55.3403 52.0539H39.1847C39.0042 52.0539 38.8312 51.9819 38.7036 51.8538C38.576 51.7257 38.5043 51.5519 38.5043 51.3707C38.5043 51.1895 38.576 51.0157 38.7036 50.8876C38.8312 50.7595 39.0042 50.6875 39.1847 50.6875H55.3403C55.5207 50.6875 55.6938 50.7595 55.8214 50.8876C55.949 51.0157 56.0206 51.1895 56.0206 51.3707C56.0206 51.5519 55.949 51.7257 55.8214 51.8538C55.6938 51.9819 55.5207 52.0539 55.3403 52.0539Z" fill="#E6E6E6"/>
<path id="Vector_31" d="M58.1468 54.36H39.1847C39.0042 54.36 38.8312 54.2881 38.7036 54.1599C38.576 54.0318 38.5043 53.858 38.5043 53.6768C38.5043 53.4956 38.576 53.3219 38.7036 53.1938C38.8312 53.0656 39.0042 52.9937 39.1847 52.9937H58.1468C58.3272 52.9937 58.5002 53.0656 58.6278 53.1938C58.7554 53.3219 58.8271 53.4956 58.8271 53.6768C58.8271 53.858 58.7554 54.0318 58.6278 54.1599C58.5002 54.2881 58.3272 54.36 58.1468 54.36Z" fill="#E6E6E6"/>
<path id="Vector_32" d="M32.7906 55.4639C34.3847 55.4639 35.677 54.1662 35.677 52.5654C35.677 50.9647 34.3847 49.667 32.7906 49.667C31.1964 49.667 29.9041 50.9647 29.9041 52.5654C29.9041 54.1662 31.1964 55.4639 32.7906 55.4639Z" fill="#E6E6E6"/>
</g>
<defs>
<clipPath id="clip0_134_2162">
<rect width="64" height="60" fill="white"/>
</clipPath>
</defs>
</svg>
