<svg width="23" height="22" viewBox="0 0 23 22" fill="none" xmlns="http://www.w3.org/2000/svg">
<path fill-rule="evenodd" clip-rule="evenodd" d="M12.5 21C18.299 21 23 16.299 23 10.5C23 4.70101 18.299 0 12.5 0C6.70101 0 2 4.70101 2 10.5C2 12.0071 2.31752 13.44 2.88932 14.7356L0.798397 21.6934L8.007 19.9929C9.36911 20.6387 10.8924 21 12.5 21Z" fill="#ECAA04"/>
<path d="M10.936 12.402C10.8893 12.0287 10.9173 11.702 11.02 11.422C11.132 11.142 11.286 10.89 11.482 10.666C11.6873 10.442 11.9113 10.2367 12.154 10.05C12.406 9.86333 12.6393 9.68133 12.854 9.504C13.078 9.32667 13.26 9.14467 13.4 8.958C13.54 8.77133 13.61 8.566 13.61 8.342C13.61 8.062 13.54 7.824 13.4 7.628C13.26 7.432 13.0547 7.28267 12.784 7.18C12.5227 7.07733 12.2053 7.026 11.832 7.026C11.4027 7.026 11.0107 7.11933 10.656 7.306C10.3013 7.49267 9.95133 7.768 9.606 8.132L8.458 7.068C8.906 6.55467 9.43333 6.144 10.04 5.836C10.656 5.51867 11.3327 5.36 12.07 5.36C12.7513 5.36 13.3533 5.46267 13.876 5.668C14.408 5.87333 14.8233 6.186 15.122 6.606C15.43 7.01667 15.584 7.53467 15.584 8.16C15.584 8.50533 15.5093 8.80867 15.36 9.07C15.22 9.322 15.0333 9.55067 14.8 9.756C14.576 9.952 14.338 10.1433 14.086 10.33C13.834 10.5073 13.6007 10.694 13.386 10.89C13.1713 11.086 13.0033 11.3053 12.882 11.548C12.7607 11.7907 12.714 12.0753 12.742 12.402H10.936ZM11.846 16.126C11.4913 16.126 11.1973 16.0093 10.964 15.776C10.7307 15.5427 10.614 15.2487 10.614 14.894C10.614 14.53 10.7307 14.2313 10.964 13.998C11.1973 13.7647 11.4913 13.648 11.846 13.648C12.2007 13.648 12.4947 13.7647 12.728 13.998C12.9613 14.2313 13.078 14.53 13.078 14.894C13.078 15.2487 12.9613 15.5427 12.728 15.776C12.4947 16.0093 12.2007 16.126 11.846 16.126Z" fill="white"/>
</svg>
