<svg width="38" height="34" viewBox="0 0 38 34" fill="none" xmlns="http://www.w3.org/2000/svg">
<path d="M37.0107 12.8694H36.9975L29.4508 16.1267L19.1253 20.5834C19.0849 20.6005 19.0416 20.6095 18.9979 20.6097C18.9541 20.6099 18.9107 20.6014 18.8702 20.5847L8.21729 16.1174L0.485141 12.8747L0.473329 12.8694H0.460168C0.338166 12.8695 0.221198 12.9185 0.134929 13.0057C0.0486603 13.0929 0.000135372 13.2112 0 13.3345V33.5348C0.000135545 33.6581 0.0486604 33.7764 0.134929 33.8636C0.221198 33.9508 0.338166 33.9998 0.460168 34H37.0107C37.1327 33.9998 37.2497 33.9508 37.3359 33.8636C37.4222 33.7764 37.4707 33.6581 37.4709 33.5348V13.3345C37.4707 13.2112 37.4222 13.0929 37.3359 13.0057C37.2497 12.9185 37.1327 12.8695 37.0107 12.8694Z" fill="white"/>
<path d="M37.1422 13.0023C37.1288 13.0023 37.1157 12.9981 37.1047 12.9904L18.9242 0.192174C18.8689 0.153408 18.8031 0.132691 18.7358 0.132807C18.6685 0.132923 18.6028 0.153867 18.5476 0.192823L0.498039 12.9902C0.49097 12.9953 0.482993 12.9988 0.474565 13.0007C0.466136 13.0026 0.45742 13.0028 0.448916 13.0013C0.440411 12.9998 0.432284 12.9966 0.424998 12.9919C0.417712 12.9872 0.411411 12.9811 0.406453 12.974C0.401495 12.9669 0.397977 12.9588 0.396101 12.9503C0.394225 12.9418 0.394029 12.9329 0.395521 12.9243C0.397014 12.9158 0.400166 12.9075 0.4048 12.9002C0.409433 12.8928 0.415457 12.8864 0.422526 12.8814L18.4721 0.0840011C18.5494 0.0294702 18.6413 0.000157192 18.7356 6.30435e-07C18.8298 -0.000155931 18.9219 0.0288512 18.9993 0.0831251L37.1798 12.8813C37.1913 12.8894 37.2 12.901 37.2045 12.9144C37.209 12.9278 37.2092 12.9423 37.205 12.9557C37.2008 12.9692 37.1924 12.981 37.1811 12.9894C37.1699 12.9978 37.1562 13.0023 37.1422 13.0023Z" fill="#3F3D56"/>
<path d="M1.5293 13.456L18.7535 0.552795L36.1084 14.3741L19.6409 24.2417L10.7005 22.1818L1.5293 13.456Z" fill="#E6E6E6"/>
<path d="M11.4551 30.3365H2.94591C2.89366 30.3366 2.84191 30.3262 2.79362 30.3061C2.74532 30.2859 2.70144 30.2563 2.66447 30.219C2.6275 30.1817 2.59817 30.1374 2.57816 30.0886C2.55815 30.0398 2.54785 29.9875 2.54785 29.9347C2.54785 29.8819 2.55815 29.8296 2.57816 29.7808C2.59817 29.732 2.6275 29.6877 2.66447 29.6504C2.70144 29.613 2.74532 29.5834 2.79362 29.5633C2.84191 29.5431 2.89366 29.5328 2.94591 29.5328H11.4551C11.5073 29.5328 11.5591 29.5431 11.6074 29.5633C11.6557 29.5834 11.6996 29.613 11.7365 29.6504C11.7735 29.6877 11.8028 29.732 11.8228 29.7808C11.8429 29.8296 11.8532 29.8819 11.8532 29.9347C11.8532 29.9875 11.8429 30.0398 11.8228 30.0886C11.8028 30.1374 11.7735 30.1817 11.7365 30.219C11.6996 30.2563 11.6557 30.2859 11.6074 30.3061C11.5591 30.3262 11.5073 30.3366 11.4551 30.3365Z" fill="#19B1B6"/>
<path d="M5.99882 28.6086H2.94591C2.89366 28.6087 2.84191 28.5983 2.79362 28.5782C2.74532 28.558 2.70144 28.5284 2.66447 28.4911C2.6275 28.4538 2.59817 28.4095 2.57816 28.3607C2.55815 28.3119 2.54785 28.2596 2.54785 28.2068C2.54785 28.154 2.55815 28.1017 2.57816 28.0529C2.59817 28.0041 2.6275 27.9598 2.66447 27.9224C2.70144 27.8851 2.74532 27.8555 2.79362 27.8354C2.84191 27.8152 2.89366 27.8049 2.94591 27.8049H5.99882C6.05106 27.8049 6.10282 27.8152 6.15111 27.8354C6.1994 27.8555 6.24328 27.8851 6.28025 27.9224C6.31722 27.9598 6.34655 28.0041 6.36656 28.0529C6.38657 28.1017 6.39687 28.154 6.39687 28.2068C6.39687 28.2596 6.38657 28.3119 6.36656 28.3607C6.34655 28.4095 6.31722 28.4538 6.28025 28.4911C6.24328 28.5284 6.1994 28.558 6.15111 28.5782C6.10282 28.5983 6.05106 28.6087 5.99882 28.6086Z" fill="#19B1B6"/>
<path d="M18.9959 20.6427C18.9312 20.6428 18.8672 20.6301 18.8073 20.6054L8.18457 16.1501V2.20427C8.18471 2.08096 8.23324 1.96273 8.31951 1.87553C8.40578 1.78833 8.52274 1.73928 8.64474 1.73914H29.0236C29.1456 1.73928 29.2626 1.78833 29.3489 1.87553C29.4351 1.96273 29.4837 2.08096 29.4838 2.20427V16.1598L29.4638 16.1684L19.1902 20.6032C19.1287 20.6293 19.0626 20.6428 18.9959 20.6427Z" fill="#19B1B6"/>
<path d="M18.9956 20.6759C18.9266 20.676 18.8583 20.6625 18.7944 20.6361L8.15137 16.1723V2.2043C8.15152 2.07217 8.20351 1.94549 8.29594 1.85207C8.38837 1.75864 8.51369 1.70608 8.6444 1.70593H29.0233C29.154 1.70608 29.2793 1.75864 29.3718 1.85207C29.4642 1.94549 29.5162 2.07217 29.5163 2.2043V16.1818L19.2028 20.6337C19.1372 20.6616 19.0667 20.676 18.9956 20.6759ZM8.28284 16.0835L18.8446 20.5133C18.9431 20.5537 19.0534 20.553 19.1514 20.5114L29.3849 16.094V2.2043C29.3847 2.1074 29.3466 2.01451 29.2788 1.946C29.211 1.87749 29.1191 1.83894 29.0233 1.83883H8.6444C8.54855 1.83894 8.45665 1.87749 8.38887 1.946C8.32109 2.01451 8.28296 2.1074 8.28284 2.2043V16.0835Z" fill="#3F3D56"/>
<path d="M37.0107 12.8694H36.9975L29.4508 16.1267L19.1253 20.5834C19.0849 20.6005 19.0416 20.6095 18.9979 20.6097C18.9541 20.6099 18.9107 20.6014 18.8702 20.5847L8.21729 16.1174L0.485141 12.8747L0.473329 12.8694H0.460168C0.338166 12.8695 0.221198 12.9185 0.134929 13.0057C0.0486603 13.0929 0.000135372 13.2112 0 13.3345V33.5348C0.000135545 33.6581 0.0486604 33.7764 0.134929 33.8636C0.221198 33.9508 0.338166 33.9998 0.460168 34H37.0107C37.1327 33.9998 37.2497 33.9508 37.3359 33.8636C37.4222 33.7764 37.4707 33.6581 37.4709 33.5348V13.3345C37.4707 13.2112 37.4222 13.0929 37.3359 13.0057C37.2497 12.9185 37.1327 12.8695 37.0107 12.8694ZM37.3394 33.5348C37.3393 33.6229 37.3047 33.7074 37.2431 33.7697C37.1814 33.832 37.0979 33.867 37.0107 33.8671H0.460168C0.373005 33.867 0.289421 33.832 0.227787 33.7697C0.166153 33.7074 0.131512 33.6229 0.131477 33.5348V13.3345C0.131596 13.2486 0.164567 13.166 0.223496 13.1041C0.282425 13.0422 0.362751 13.0057 0.447682 13.0023L8.21729 16.2609L18.8196 20.7076C18.9344 20.7548 19.063 20.7541 19.1772 20.7056L29.4508 16.2709L37.0238 13.0023C37.1086 13.006 37.1887 13.0426 37.2475 13.1044C37.3063 13.1663 37.3392 13.2487 37.3394 13.3345V33.5348Z" fill="#3F3D56"/>
<path d="M17.3421 6.95224H10.1109C9.97139 6.95224 9.83762 6.89624 9.739 6.79655C9.64037 6.69685 9.58496 6.56164 9.58496 6.42066C9.58496 6.27967 9.64037 6.14446 9.739 6.04477C9.83762 5.94507 9.97139 5.88907 10.1109 5.88907H17.3421C17.4816 5.88907 17.6153 5.94507 17.714 6.04477C17.8126 6.14446 17.868 6.27967 17.868 6.42066C17.868 6.56164 17.8126 6.69685 17.714 6.79655C17.6153 6.89624 17.4816 6.95224 17.3421 6.95224Z" fill="white"/>
<path d="M13.595 4.69309H10.1109C9.97139 4.69309 9.83762 4.63708 9.739 4.53739C9.64037 4.4377 9.58496 4.30249 9.58496 4.1615C9.58496 4.02052 9.64037 3.8853 9.739 3.78561C9.83762 3.68592 9.97139 3.62991 10.1109 3.62991H13.595C13.7345 3.62991 13.8682 3.68592 13.9669 3.78561C14.0655 3.8853 14.1209 4.02052 14.1209 4.1615C14.1209 4.30249 14.0655 4.4377 13.9669 4.53739C13.8682 4.63708 13.7345 4.69309 13.595 4.69309Z" fill="white"/>
<path d="M24.2423 12.2679H13.1983C13.0588 12.2679 12.925 12.2119 12.8264 12.1122C12.7278 12.0125 12.6724 11.8773 12.6724 11.7363C12.6724 11.5953 12.7278 11.4601 12.8264 11.3604C12.925 11.2607 13.0588 11.2047 13.1983 11.2047H24.2423C24.3818 11.2047 24.5156 11.2607 24.6142 11.3604C24.7128 11.4601 24.7682 11.5953 24.7682 11.7363C24.7682 11.8773 24.7128 12.0125 24.6142 12.1122C24.5156 12.2119 24.3818 12.2679 24.2423 12.2679Z" fill="#CCCCCC"/>
<path d="M24.2423 14.7267H13.1983C13.0588 14.7267 12.925 14.6707 12.8264 14.571C12.7278 14.4713 12.6724 14.3361 12.6724 14.1951C12.6724 14.0541 12.7278 13.9189 12.8264 13.8192C12.925 13.7195 13.0588 13.6635 13.1983 13.6635H24.2423C24.3818 13.6635 24.5156 13.7195 24.6142 13.8192C24.7128 13.9189 24.7682 14.0541 24.7682 14.1951C24.7682 14.3361 24.7128 14.4713 24.6142 14.571C24.5156 14.6707 24.3818 14.7267 24.2423 14.7267Z" fill="#CCCCCC"/>
</svg>
