<svg width="23" height="22" viewBox="0 0 23 22" fill="none" xmlns="http://www.w3.org/2000/svg">
<path fill-rule="evenodd" clip-rule="evenodd" d="M11.7016 21C17.5006 21 22.2016 16.299 22.2016 10.5C22.2016 4.70101 17.5006 0 11.7016 0C5.90261 0 1.2016 4.70101 1.2016 10.5C1.2016 12.0071 1.51913 13.4401 2.09092 14.7356L0 21.6934L7.2086 19.9929C8.57071 20.6387 10.094 21 11.7016 21Z" fill="#19B1B6"/>
<path d="M10.4876 12.402L10.1096 7.614L10.0396 5.528H12.3636L12.2936 7.614L11.9156 12.402H10.4876ZM11.2016 16.126C10.8469 16.126 10.5529 16.0093 10.3196 15.776C10.0863 15.5427 9.9696 15.2487 9.9696 14.894C9.9696 14.53 10.0863 14.2313 10.3196 13.998C10.5529 13.7647 10.8469 13.648 11.2016 13.648C11.5563 13.648 11.8503 13.7647 12.0836 13.998C12.3169 14.2313 12.4336 14.53 12.4336 14.894C12.4336 15.2487 12.3169 15.5427 12.0836 15.776C11.8503 16.0093 11.5563 16.126 11.2016 16.126Z" fill="white"/>
</svg>
