<svg width="181" height="100" viewBox="0 0 181 100" fill="none" xmlns="http://www.w3.org/2000/svg">
<g clip-path="url(#clip0_134_2062)">
<path d="M93.1373 99.4883C90.2759 99.9093 87.38 100.049 84.4912 99.9058C77.5257 99.5544 70.6753 97.5307 64.821 93.7262C62.2254 92.0391 59.7493 89.9664 58.4057 87.1822C56.5821 83.4012 57.2199 78.6146 59.8239 75.3214C60.7738 74.1335 61.9422 73.1379 63.2662 72.3881C63.4624 72.2773 63.6629 72.1708 63.8655 72.0686C66.0717 70.9604 68.5497 70.5073 71.0059 70.7628C75.1817 71.2186 79.0357 73.7663 81.2622 77.3259C83.2456 80.4998 83.9367 84.2447 84.3441 87.9981C84.4208 88.7053 84.4869 89.4147 84.5509 90.1198C84.196 92.1625 83.638 94.1649 82.8852 96.0971C82.8469 96.1912 82.8156 96.2881 82.7914 96.3868C83.2179 97.3113 83.6239 98.2443 84.0092 99.1858C84.3712 99.3821 84.7767 99.4847 85.1886 99.4841H93.1202L93.1373 99.4883Z" fill="#F2F2F2"/>
<path d="M83.8447 99.6695C83.7922 99.6929 83.7354 99.7056 83.6779 99.707C83.6203 99.7083 83.5631 99.6981 83.5095 99.6771C83.4559 99.6561 83.407 99.6246 83.3657 99.5845C83.3244 99.5445 83.2915 99.4966 83.269 99.4437C83.2348 99.3627 83.2028 99.2818 83.1687 99.2008C82.8616 98.4552 82.5395 97.7168 82.2026 96.9854C77.8885 87.5475 71.4537 79.2302 63.3982 72.68C63.352 72.6476 63.3154 72.6035 63.2922 72.5521C63.2689 72.5008 63.2599 72.4442 63.266 72.3882C63.2777 72.324 63.3038 72.2632 63.3423 72.2105C63.3808 72.1578 63.4307 72.1145 63.4884 72.0837C63.546 72.053 63.6098 72.0357 63.6751 72.0331C63.7404 72.0304 63.8054 72.0426 63.8653 72.0686C63.8974 72.0832 63.9275 72.1018 63.9549 72.124C67.4014 74.9278 70.5631 78.0636 73.3943 81.4862C76.2262 84.9056 78.7196 88.591 80.8397 92.4907C81.4177 93.5558 81.9665 94.6358 82.4862 95.7307C82.5886 95.948 82.691 96.1674 82.7912 96.3868C83.2177 97.3113 83.6237 98.2443 84.009 99.1859C84.0154 99.2008 84.0218 99.2178 84.0282 99.2328C84.0479 99.2731 84.0587 99.3171 84.0599 99.3619C84.0611 99.4067 84.0528 99.4513 84.0354 99.4926C84.0181 99.5339 83.9921 99.5711 83.9592 99.6016C83.9263 99.6321 83.8873 99.6552 83.8447 99.6695Z" fill="white"/>
<path d="M55.5584 71.5744C60.1521 71.5744 63.8761 67.8549 63.8761 63.2667C63.8761 58.6785 60.1521 54.959 55.5584 54.959C50.9647 54.959 47.2407 58.6785 47.2407 63.2667C47.2407 67.8549 50.9647 71.5744 55.5584 71.5744Z" fill="#19B1B6"/>
<path d="M54.734 66.4355C54.5469 66.4359 54.3647 66.3754 54.215 66.2633L54.2057 66.2563L52.251 64.7615C52.1604 64.6923 52.0844 64.6059 52.0272 64.5073C51.9701 64.4086 51.9329 64.2997 51.9179 64.1868C51.9029 64.0738 51.9104 63.959 51.9398 63.849C51.9692 63.7389 52.0201 63.6357 52.0895 63.5452C52.1589 63.4548 52.2454 63.3789 52.3442 63.3218C52.4429 63.2648 52.552 63.2278 52.6651 63.2128C52.7782 63.1979 52.8931 63.2054 53.0033 63.2348C53.1135 63.2643 53.2168 63.3152 53.3073 63.3845L54.5734 64.3542L57.5655 60.4568C57.6349 60.3664 57.7214 60.2905 57.8201 60.2335C57.9189 60.1766 58.0279 60.1396 58.141 60.1246C58.254 60.1097 58.3689 60.1172 58.4791 60.1467C58.5893 60.1761 58.6925 60.2269 58.783 60.2963L58.7644 60.3215L58.7835 60.2966C58.9661 60.4368 59.0855 60.6435 59.1157 60.8715C59.1458 61.0995 59.0841 61.3301 58.9443 61.5128L55.4249 66.097C55.3435 66.2026 55.2389 66.2881 55.119 66.3468C54.9992 66.4055 54.8675 66.4359 54.734 66.4355Z" fill="white"/>
<path d="M180.746 99.9999H0.253939C0.186717 99.9998 0.122317 99.973 0.0748523 99.9254C0.0273879 99.8779 0.000732422 99.8135 0.000732422 99.7463C0.000732422 99.6792 0.0273879 99.6148 0.0748523 99.5672C0.122317 99.5197 0.186717 99.4929 0.253939 99.4927H180.746C180.813 99.4929 180.878 99.5197 180.925 99.5672C180.973 99.6148 180.999 99.6792 180.999 99.7463C180.999 99.8135 180.973 99.8779 180.925 99.9254C180.878 99.973 180.813 99.9998 180.746 99.9999Z" fill="#3F3D56"/>
<path d="M35.3066 28.9589C38.7154 28.9589 41.4788 26.1988 41.4788 22.7941C41.4788 19.3894 38.7154 16.6294 35.3066 16.6294C31.8979 16.6294 29.1345 19.3894 29.1345 22.7941C29.1345 26.1988 31.8979 28.9589 35.3066 28.9589Z" fill="#2F2E41"/>
<path d="M30.489 19.4703C31.4864 18.4741 31.6885 17.0608 30.9405 16.3136C30.1924 15.5665 28.7774 15.7684 27.7801 16.7646C26.7827 17.7608 26.5805 19.174 27.3286 19.9212C28.0766 20.6683 29.4916 20.4665 30.489 19.4703Z" fill="#2F2E41"/>
<path d="M41.7396 17.5123C42.1552 16.5406 41.4405 15.3043 40.1434 14.7508C38.8462 14.1974 37.4578 14.5365 37.0422 15.5082C36.6267 16.4799 37.3413 17.7162 38.6385 18.2696C39.9356 18.8231 41.324 18.484 41.7396 17.5123Z" fill="#2F2E41"/>
<path d="M52.4934 58.3857C52.6494 58.0896 52.7385 57.763 52.7544 57.4288C52.7703 57.0946 52.7126 56.761 52.5855 56.4515C52.4583 56.142 52.2648 55.8641 52.0185 55.6374C51.7722 55.4107 51.4791 55.2407 51.1599 55.1393L42.2416 36.2959L38.1621 39.1531L48.2113 56.7772C48.0763 57.3241 48.147 57.9014 48.4097 58.3997C48.6725 58.8981 49.1092 59.2829 49.637 59.4811C50.1649 59.6794 50.7472 59.6774 51.2736 59.4755C51.8001 59.2736 52.2341 58.8858 52.4934 58.3857Z" fill="#FFB8B8"/>
<path d="M44.2866 39.4396L39.5501 41.5551C39.4153 41.6153 39.2692 41.6458 39.1215 41.6444C38.9739 41.6431 38.8283 41.61 38.6947 41.5474C38.561 41.4848 38.4424 41.3942 38.347 41.2817C38.2515 41.1692 38.1815 41.0375 38.1416 40.8955L36.7449 35.9209C36.4405 35.2304 36.4226 34.4476 36.6952 33.7441C36.9678 33.0405 37.5086 32.4736 38.199 32.1677C38.8894 31.8618 39.6731 31.8417 40.3782 32.1121C41.0834 32.3824 41.6524 32.9209 41.9607 33.6096L44.7335 37.9514C44.8129 38.0757 44.8645 38.2157 44.8848 38.3617C44.9051 38.5078 44.8936 38.6565 44.8512 38.7977C44.8088 38.939 44.7364 39.0694 44.639 39.1802C44.5416 39.291 44.4214 39.3794 44.2866 39.4396Z" fill="#CCCCCC"/>
<path d="M22.4117 60.254C22.7379 60.1783 23.0436 60.0321 23.3072 59.8257C23.5708 59.6192 23.7858 59.3576 23.9372 59.0591C24.0885 58.7607 24.1726 58.4327 24.1833 58.0984C24.1941 57.764 24.1313 57.4313 23.9994 57.1238L32.4455 38.0646L27.6139 36.8491L20.8309 55.9659C20.3284 56.2215 19.9371 56.6523 19.7314 57.1767C19.5256 57.7011 19.5195 58.2827 19.7144 58.8112C19.9092 59.3398 20.2914 59.7786 20.7886 60.0445C21.2857 60.3104 21.8632 60.385 22.4117 60.254Z" fill="#FFB8B8"/>
<path d="M20.1094 94.8002L22.5663 95.6936L27.186 86.6535L23.5597 85.335L20.1094 94.8002Z" fill="#FFB8B8"/>
<path d="M26.4739 99.6958L18.7522 96.8877L19.8384 93.9079L24.5768 95.631C25.368 95.9188 26.0124 96.5087 26.3682 97.271C26.7239 98.0333 26.762 98.9055 26.4739 99.6958Z" fill="#2F2E41"/>
<path d="M25.9208 89.5981C25.77 89.5981 25.6212 89.5647 25.4849 89.5003L22.6613 88.1645C22.4298 88.056 22.2474 87.8648 22.15 87.6287C22.0525 87.3925 22.0471 87.1285 22.1348 86.8886L30.1035 64.8479C30.1695 64.6654 30.286 64.5053 30.4394 64.3862C30.5929 64.2672 30.777 64.194 30.9704 64.1752C31.1638 64.1565 31.3585 64.1929 31.532 64.2802C31.7056 64.3675 31.8507 64.5023 31.9507 64.6687L36.1654 71.6849C36.2592 71.8412 36.3097 72.0197 36.3116 72.2019C36.3136 72.3841 36.2669 72.5636 36.1765 72.7219L26.8166 89.0821C26.7259 89.2392 26.5953 89.3696 26.438 89.4602C26.2807 89.5508 26.1023 89.5983 25.9208 89.5981Z" fill="#2F2E41"/>
<path d="M35.5024 29.4976C38.3954 29.4976 40.7406 27.1552 40.7406 24.2656C40.7406 21.3761 38.3954 19.0337 35.5024 19.0337C32.6094 19.0337 30.2642 21.3761 30.2642 24.2656C30.2642 27.1552 32.6094 29.4976 35.5024 29.4976Z" fill="#FFB8B8"/>
<path d="M42.9129 48.0533L33.6381 45.5057L28.7051 35.6518C28.4682 35.1784 28.3563 34.6523 28.3801 34.1236C28.4039 33.5949 28.5627 33.081 28.8412 32.6308C29.1198 32.1805 29.509 31.8089 29.9719 31.5512C30.4347 31.2935 30.9558 31.1582 31.4857 31.1582H38.8648C39.6308 31.1577 40.3699 31.44 40.94 31.9509C42.9195 33.7221 47.0782 38.8282 42.9531 47.9642L42.9129 48.0533Z" fill="#CCCCCC"/>
<path d="M31.3022 41.473L26.603 39.276C26.4693 39.2135 26.3507 39.1229 26.2552 39.0105C26.1597 38.898 26.0895 38.7664 26.0496 38.6244C26.0096 38.4825 26.0008 38.3336 26.0236 38.1879C26.0464 38.0422 26.1004 37.9032 26.1819 37.7802L29.0378 33.4724C29.3619 32.791 29.9433 32.2658 30.6545 32.0119C31.3657 31.7581 32.1487 31.7962 32.8318 32.118C33.5149 32.4398 34.0424 33.019 34.2986 33.7287C34.5548 34.4383 34.5189 35.2205 34.1986 35.9037L32.7218 40.8378C32.6795 40.9791 32.6072 41.1096 32.5098 41.2204C32.4125 41.3312 32.2923 41.4198 32.1576 41.4801C32.0229 41.5403 31.8767 41.5709 31.7291 41.5697C31.5815 41.5685 31.4359 41.5355 31.3022 41.473Z" fill="#CCCCCC"/>
<path d="M36.9877 97.2705H39.6022L40.8462 87.1973L36.9871 87.1975L36.9877 97.2705Z" fill="#FFB8B8"/>
<path d="M44.645 99.6953L36.4274 99.6957L36.4273 96.5245L41.4699 96.5243C42.312 96.5242 43.1195 96.8583 43.715 97.453C44.3104 98.0477 44.645 98.8543 44.645 99.6953Z" fill="#2F2E41"/>
<path d="M37.9747 93.432C37.7396 93.4323 37.5116 93.3517 37.3291 93.2037C37.1466 93.0557 37.0207 92.8493 36.9728 92.6195C36.2212 89.0825 32.3178 70.9658 29.2712 61.634C26.1715 52.1397 31.4505 47.8152 32.5403 47.0447C32.6563 46.9628 32.7485 46.8516 32.8074 46.7225L33.5992 44.983C33.6812 44.8034 33.8133 44.6512 33.9795 44.5444C34.1458 44.4377 34.3393 44.3809 34.537 44.3809H34.5434C40.4785 44.4163 42.4737 46.2849 43.056 47.0868C43.1419 47.2062 43.2008 47.3429 43.2286 47.4873C43.2563 47.6317 43.2523 47.7804 43.2168 47.9231L39.4615 63.3978C39.4382 63.4938 39.433 63.5932 39.446 63.6911L43.1822 91.7882C43.2001 91.9233 43.191 92.0605 43.1552 92.192C43.1195 92.3235 43.058 92.4466 42.9741 92.554C42.8903 92.6615 42.7859 92.7512 42.667 92.818C42.5481 92.8847 42.417 92.9271 42.2815 92.9428L38.0953 93.4251C38.0553 93.4297 38.015 93.432 37.9747 93.432Z" fill="#2F2E41"/>
<path d="M29.998 20.9745C31.1951 21.7986 32.6158 22.2371 34.0696 22.2313C33.551 22.5905 32.9606 22.8331 32.3392 22.9424C34.2721 23.3565 36.2697 23.3677 38.2072 22.9753C38.6378 22.9063 39.0534 22.7638 39.4356 22.5539C39.626 22.4477 39.792 22.3026 39.9226 22.1281C40.0532 21.9536 40.1456 21.7536 40.1938 21.5411C40.3226 20.8065 39.7495 20.1391 39.1539 19.6893C38.242 19.0111 37.1906 18.5439 36.0758 18.3214C34.961 18.0989 33.8106 18.1267 32.7078 18.4027C31.9877 18.5886 31.2664 18.9027 30.7987 19.4803C30.331 20.0579 30.1924 20.9483 30.638 21.5431L29.998 20.9745Z" fill="#2F2E41"/>
<path d="M126.152 43.6689C127.683 43.6689 128.925 42.429 128.925 40.8996C128.925 39.3702 127.683 38.1304 126.152 38.1304C124.621 38.1304 123.379 39.3702 123.379 40.8996C123.379 42.429 124.621 43.6689 126.152 43.6689Z" fill="#19B1B6"/>
<path d="M125.877 41.9562C125.815 41.9563 125.754 41.9362 125.704 41.8988L125.701 41.8965L125.05 41.3982C125.019 41.3752 124.994 41.3464 124.975 41.3135C124.956 41.2806 124.943 41.2443 124.938 41.2066C124.933 41.1689 124.936 41.1306 124.945 41.0938C124.955 41.0571 124.972 41.0226 124.995 40.9924C125.018 40.9622 125.047 40.9369 125.08 40.9179C125.113 40.8989 125.15 40.8865 125.187 40.8816C125.225 40.8766 125.264 40.8792 125.3 40.8891C125.337 40.899 125.371 40.916 125.402 40.9392L125.824 41.2624L126.821 39.9633C126.844 39.9332 126.873 39.9079 126.906 39.8889C126.939 39.8699 126.975 39.8576 127.013 39.8526C127.051 39.8476 127.089 39.8501 127.126 39.8599C127.162 39.8697 127.197 39.8867 127.227 39.9098C127.288 39.9565 127.328 40.0255 127.338 40.1015C127.348 40.1775 127.327 40.2544 127.281 40.3153L126.108 41.8434C126.08 41.8786 126.045 41.9071 126.006 41.9266C125.966 41.9462 125.922 41.9563 125.877 41.9562Z" fill="white"/>
<path d="M126.152 51.7636C127.683 51.7636 128.925 50.5237 128.925 48.9943C128.925 47.4649 127.683 46.2251 126.152 46.2251C124.621 46.2251 123.379 47.4649 123.379 48.9943C123.379 50.5237 124.621 51.7636 126.152 51.7636Z" fill="#19B1B6"/>
<path d="M125.877 50.0504C125.815 50.0506 125.754 50.0304 125.704 49.993L125.701 49.9907L125.05 49.4924C125.019 49.4694 124.994 49.4406 124.975 49.4077C124.956 49.3748 124.943 49.3385 124.938 49.3008C124.933 49.2631 124.936 49.2248 124.945 49.188C124.955 49.1513 124.972 49.1168 124.995 49.0867C125.018 49.0565 125.047 49.0311 125.08 49.0121C125.113 48.9931 125.15 48.9808 125.187 48.9758C125.225 48.9709 125.264 48.9734 125.3 48.9833C125.337 48.9932 125.371 49.0102 125.402 49.0334L125.824 49.3567L126.821 48.0575C126.844 48.0274 126.873 48.0021 126.906 47.9831C126.939 47.9641 126.975 47.9518 127.013 47.9468C127.051 47.9419 127.089 47.9443 127.126 47.9542C127.162 47.964 127.197 47.9809 127.227 48.004C127.288 48.0507 127.328 48.1198 127.338 48.1958C127.348 48.2718 127.327 48.3486 127.281 48.4095L126.108 49.9376C126.08 49.9728 126.045 50.0013 126.006 50.0209C125.966 50.0404 125.922 50.0506 125.877 50.0504Z" fill="white"/>
<path d="M127.645 61.1361C129.176 61.1361 130.417 59.8963 130.417 58.3669C130.417 56.8375 129.176 55.5977 127.645 55.5977C126.114 55.5977 124.872 56.8375 124.872 58.3669C124.872 59.8963 126.114 61.1361 127.645 61.1361Z" fill="#19B1B6"/>
<path d="M127.37 59.4235C127.308 59.4236 127.247 59.4035 127.197 59.3661L127.194 59.3638L126.542 58.8655C126.512 58.8424 126.487 58.8136 126.468 58.7808C126.448 58.7479 126.436 58.7115 126.431 58.6739C126.426 58.6362 126.428 58.5978 126.438 58.5611C126.448 58.5243 126.465 58.4899 126.488 58.4597C126.511 58.4295 126.54 58.4042 126.573 58.3852C126.606 58.3662 126.643 58.3538 126.68 58.3489C126.718 58.3439 126.756 58.3465 126.793 58.3564C126.83 58.3662 126.864 58.3833 126.895 58.4065L127.317 58.7297L128.314 57.4306C128.337 57.4005 128.366 57.3752 128.399 57.3562C128.432 57.3372 128.468 57.3248 128.506 57.3199C128.543 57.3149 128.582 57.3174 128.618 57.3272C128.655 57.337 128.69 57.354 128.72 57.3771C128.781 57.4238 128.821 57.4928 128.831 57.5688C128.841 57.6448 128.82 57.7217 128.774 57.7826L127.6 59.3107C127.573 59.3459 127.538 59.3744 127.498 59.3939C127.459 59.4135 127.415 59.4236 127.37 59.4235Z" fill="white"/>
<path d="M154.38 81.488C154.351 81.488 154.333 81.4873 154.327 81.4869L150.885 81.4873V80.9804H154.339C154.419 80.9832 156.051 81.0292 157.555 79.207C159.795 76.4912 161.635 69.7682 157.677 53.1625C152.354 30.8338 156.794 11.1076 158.949 3.66292C159.056 3.29461 159.075 2.90666 159.005 2.52975C158.935 2.15284 158.779 1.79728 158.548 1.49117C158.317 1.18507 158.018 0.936791 157.674 0.765972C157.331 0.595153 156.952 0.50647 156.568 0.506925H105.162C104.771 0.507448 104.386 0.600004 104.038 0.777082C103.689 0.954161 103.388 1.21077 103.157 1.52609C102.244 2.78077 100.991 5.19111 100.207 9.54943L99.7073 9.45983C100.508 5.00683 101.802 2.52557 102.747 1.22807C103.024 0.84813 103.388 0.538921 103.807 0.325542C104.227 0.112164 104.691 0.00063109 105.162 1.37964e-06H156.568C157.031 -0.00044312 157.487 0.106527 157.901 0.31246C158.315 0.518393 158.675 0.817646 158.953 1.18658C159.232 1.55551 159.42 1.98401 159.504 2.43823C159.588 2.89245 159.565 3.35993 159.437 3.80376C157.292 11.2098 152.876 30.8336 158.171 53.0452C162.185 69.8844 160.255 76.7531 157.929 79.5499C156.396 81.3946 154.705 81.488 154.38 81.488Z" fill="#E6E6E6"/>
<path d="M145.118 90.7395C145.089 90.7395 145.071 90.7387 145.065 90.7384L141.622 90.7387V90.2318H145.077C145.157 90.2343 146.789 90.2807 148.292 88.4585C150.533 85.7427 152.373 79.0197 148.415 62.414C143.092 40.0852 147.531 20.359 149.687 12.9144C149.793 12.5461 149.812 12.1581 149.742 11.7812C149.673 11.4043 149.516 11.0488 149.285 10.7426C149.054 10.4365 148.755 10.1883 148.412 10.0174C148.068 9.84662 147.69 9.75794 147.306 9.75839H95.8996C95.5088 9.75892 95.1236 9.85147 94.7753 10.0285C94.427 10.2056 94.1254 10.4622 93.895 10.7776C92.9817 12.0322 91.7285 14.4426 90.9444 18.8009L90.4448 18.7113C91.246 14.2583 92.54 11.777 93.4844 10.4795C93.762 10.0996 94.1253 9.79039 94.545 9.57701C94.9646 9.36363 95.4287 9.2521 95.8996 9.25147H147.306C147.768 9.25102 148.224 9.35799 148.638 9.56393C149.052 9.76986 149.413 10.0691 149.691 10.438C149.969 10.807 150.158 11.2355 150.242 11.6897C150.326 12.1439 150.303 12.6114 150.174 13.0552C148.03 20.4613 143.613 40.0851 148.908 62.2966C152.922 79.1359 150.993 86.0045 148.667 88.8014C147.133 90.646 145.443 90.7395 145.118 90.7395Z" fill="#CCCCCC"/>
<path d="M139.646 71.5488C134.35 49.3374 138.767 29.712 140.913 22.3074C141.04 21.8636 141.063 21.3962 140.979 20.9421C140.895 20.4879 140.707 20.0595 140.428 19.6906C140.15 19.3217 139.79 19.0224 139.376 18.8163C138.962 18.6102 138.506 18.5029 138.044 18.5029H86.6367C86.166 18.5034 85.7021 18.6147 85.2826 18.8279C84.8631 19.0411 84.4998 19.3502 84.2224 19.7299C82.1472 22.5801 77.8413 32.0317 82.6506 58.184C85.2226 72.1751 85.1843 81.7141 84.344 87.9981C83.8726 91.5364 83.1454 94.0414 82.4863 95.7307L82.416 95.9096C82.2772 96.2514 82.2048 96.6165 82.2027 96.9854C82.1979 97.4019 82.2815 97.8146 82.448 98.1965C82.6145 98.5784 82.8602 98.9207 83.1688 99.2008C83.3701 99.3891 83.5978 99.547 83.8449 99.6694C84.05 99.7739 84.267 99.8533 84.4912 99.9059C84.7194 99.9615 84.9536 99.9894 85.1886 99.9889H135.803C135.809 99.9889 135.826 99.9911 135.856 99.9911C136.18 99.9911 137.871 99.8973 139.405 98.0526C141.729 95.2556 143.66 88.3879 139.646 71.5488ZM139.029 97.7096C137.526 99.5331 135.894 99.4862 135.815 99.4841H85.1886C84.7833 99.484 84.3841 99.3847 84.0261 99.1949C83.668 99.0052 83.362 98.7307 83.1347 98.3955C82.9347 98.1058 82.8004 97.7759 82.7411 97.429C82.6818 97.0821 82.699 96.7264 82.7913 96.3868C82.8155 96.2881 82.8469 96.1912 82.8852 96.0971C83.638 94.1649 84.1959 92.1626 84.5508 90.1198C85.7537 83.5695 85.9776 73.4617 83.1497 58.0924C78.3766 32.134 82.5973 22.8251 84.6319 20.0281C84.8627 19.7133 85.1644 19.4571 85.5127 19.2802C85.861 19.1033 86.246 19.0107 86.6367 19.0099H138.044C138.428 19.0096 138.806 19.0984 139.149 19.2692C139.493 19.44 139.791 19.6882 140.022 19.9942C140.253 20.3001 140.41 20.6554 140.479 21.0321C140.549 21.4088 140.53 21.7966 140.424 22.1647C138.268 29.6097 133.83 49.3374 139.153 71.666C143.112 88.2708 141.271 94.9936 139.029 97.7096Z" fill="#3F3D56"/>
<path d="M115.224 42.6891H88.7381C88.1997 42.6891 87.6833 42.4755 87.3026 42.0953C86.9219 41.715 86.708 41.1992 86.708 40.6615C86.708 40.1237 86.9219 39.6079 87.3026 39.2277C87.6833 38.8474 88.1997 38.6338 88.7381 38.6338H115.224C115.762 38.6338 116.278 38.8474 116.659 39.2277C117.04 39.6079 117.254 40.1237 117.254 40.6615C117.254 41.1992 117.04 41.715 116.659 42.0953C116.278 42.4755 115.762 42.6891 115.224 42.6891Z" fill="#CCCCCC"/>
<path d="M115.224 51.4225H88.7381C88.1997 51.4225 87.6833 51.2089 87.3026 50.8287C86.9219 50.4484 86.708 49.9326 86.708 49.3949C86.708 48.8571 86.9219 48.3413 87.3026 47.9611C87.6833 47.5808 88.1997 47.3672 88.7381 47.3672H115.224C115.762 47.3672 116.278 47.5808 116.659 47.9611C117.04 48.3413 117.254 48.8571 117.254 49.3949C117.254 49.9326 117.04 50.4484 116.659 50.8287C116.278 51.2089 115.762 51.4225 115.224 51.4225Z" fill="#CCCCCC"/>
<path d="M117.357 60.3693H90.8709C90.3325 60.3693 89.8161 60.1557 89.4354 59.7754C89.0547 59.3952 88.8408 58.8794 88.8408 58.3416C88.8408 57.8039 89.0547 57.2881 89.4354 56.9079C89.8161 56.5276 90.3325 56.314 90.8709 56.314H117.357C117.895 56.314 118.411 56.5276 118.792 56.9079C119.173 57.2881 119.387 57.8039 119.387 58.3416C119.387 58.8794 119.173 59.3952 118.792 59.7754C118.411 60.1557 117.895 60.3693 117.357 60.3693Z" fill="#CCCCCC"/>
<path d="M118.849 69.7424H92.3638C91.8254 69.7424 91.3091 69.5287 90.9283 69.1485C90.5476 68.7682 90.3337 68.2525 90.3337 67.7147C90.3337 67.1769 90.5476 66.6612 90.9283 66.2809C91.3091 65.9006 91.8254 65.687 92.3638 65.687H118.849C119.388 65.687 119.904 65.9006 120.285 66.2809C120.666 66.6612 120.88 67.1769 120.88 67.7147C120.88 68.2525 120.666 68.7682 120.285 69.1485C119.904 69.5287 119.388 69.7424 118.849 69.7424Z" fill="#CCCCCC"/>
<path d="M118.861 26.945H99.8283C99.5616 26.9453 99.2973 26.893 99.0508 26.7913C98.8043 26.6895 98.5802 26.5402 98.3915 26.3519C98.2028 26.1635 98.053 25.9399 97.9509 25.6938C97.8487 25.4476 97.7961 25.1838 97.7961 24.9173C97.7961 24.6509 97.8487 24.387 97.9509 24.1409C98.053 23.8947 98.2028 23.6711 98.3915 23.4828C98.5802 23.2945 98.8043 23.1452 99.0508 23.0434C99.2973 22.9416 99.5616 22.8894 99.8283 22.8896H118.861C119.399 22.8896 119.915 23.1033 120.296 23.4835C120.677 23.8638 120.891 24.3796 120.891 24.9173C120.891 25.4551 120.677 25.9709 120.296 26.3511C119.915 26.7314 119.399 26.945 118.861 26.945Z" fill="#19B1B6"/>
<path d="M129.351 70.4838C130.882 70.4838 132.124 69.244 132.124 67.7146C132.124 66.1851 130.882 64.9453 129.351 64.9453C127.82 64.9453 126.579 66.1851 126.579 67.7146C126.579 69.244 127.82 70.4838 129.351 70.4838Z" fill="#CCCCCC"/>
<path d="M120.129 78.902H93.6434C93.105 78.902 92.5886 78.6884 92.2079 78.3081C91.8272 77.9279 91.6133 77.4121 91.6133 76.8744C91.6133 76.3366 91.8272 75.8208 92.2079 75.4406C92.5886 75.0603 93.105 74.8467 93.6434 74.8467H120.129C120.667 74.8467 121.184 75.0603 121.564 75.4406C121.945 75.8208 122.159 76.3366 122.159 76.8744C122.159 77.4121 121.945 77.9279 121.564 78.3081C121.184 78.6884 120.667 78.902 120.129 78.902Z" fill="#CCCCCC"/>
<path d="M130.631 79.644C132.162 79.644 133.403 78.4041 133.403 76.8747C133.403 75.3453 132.162 74.1055 130.631 74.1055C129.099 74.1055 127.858 75.3453 127.858 76.8747C127.858 78.4041 129.099 79.644 130.631 79.644Z" fill="#CCCCCC"/>
</g>
<defs>
<clipPath id="clip0_134_2062">
<rect width="181" height="100" fill="white"/>
</clipPath>
</defs>
</svg>
