<svg width="26" height="26" viewBox="0 0 26 26" fill="none" xmlns="http://www.w3.org/2000/svg">
<circle cx="13" cy="13" r="13" fill="#FCA821"/>
<path d="M11.784 13.888C11.7307 13.4613 11.7627 13.088 11.88 12.768C12.008 12.448 12.184 12.16 12.408 11.904C12.6427 11.648 12.8987 11.4133 13.176 11.2C13.464 10.9867 13.7307 10.7787 13.976 10.576C14.232 10.3733 14.44 10.1653 14.6 9.952C14.76 9.73867 14.84 9.504 14.84 9.248C14.84 8.928 14.76 8.656 14.6 8.432C14.44 8.208 14.2053 8.03733 13.896 7.92C13.5973 7.80267 13.2347 7.744 12.808 7.744C12.3173 7.744 11.8693 7.85067 11.464 8.064C11.0587 8.27733 10.6587 8.592 10.264 9.008L8.952 7.792C9.464 7.20533 10.0667 6.736 10.76 6.384C11.464 6.02133 12.2373 5.84 13.08 5.84C13.8587 5.84 14.5467 5.95733 15.144 6.192C15.752 6.42667 16.2267 6.784 16.568 7.264C16.92 7.73333 17.096 8.32533 17.096 9.04C17.096 9.43467 17.0107 9.78133 16.84 10.08C16.68 10.368 16.4667 10.6293 16.2 10.864C15.944 11.088 15.672 11.3067 15.384 11.52C15.096 11.7227 14.8293 11.936 14.584 12.16C14.3387 12.384 14.1467 12.6347 14.008 12.912C13.8693 13.1893 13.816 13.5147 13.848 13.888H11.784ZM12.824 18.144C12.4187 18.144 12.0827 18.0107 11.816 17.744C11.5493 17.4773 11.416 17.1413 11.416 16.736C11.416 16.32 11.5493 15.9787 11.816 15.712C12.0827 15.4453 12.4187 15.312 12.824 15.312C13.2293 15.312 13.5653 15.4453 13.832 15.712C14.0987 15.9787 14.232 16.32 14.232 16.736C14.232 17.1413 14.0987 17.4773 13.832 17.744C13.5653 18.0107 13.2293 18.144 12.824 18.144Z" fill="white"/>
</svg>