<svg width="21" height="21" viewBox="0 0 21 21" fill="none" xmlns="http://www.w3.org/2000/svg">
<path d="M7.77041 9.41511C8.85732 9.41511 9.73916 8.52302 9.73916 7.4238C9.73916 6.32459 8.85732 5.4325 7.77041 5.4325C6.6835 5.4325 5.80166 6.32459 5.80166 7.4238C5.80371 8.52507 6.6835 9.41511 7.77041 9.41511ZM7.77041 6.25486C8.4041 6.25486 8.91885 6.77986 8.91885 7.42585C8.91885 8.07185 8.4041 8.59685 7.77041 8.59685C7.13672 8.59685 6.62197 8.07185 6.62197 7.42585C6.62197 6.77986 7.13877 6.25486 7.77041 6.25486ZM7.76631 10.055C5.23359 10.055 3.17256 12.1427 3.17256 14.7041C3.17256 15.9858 5.46943 16.6257 7.76631 16.6257C10.0632 16.6257 12.3601 15.9858 12.3601 14.7041C12.3601 12.1406 10.297 10.055 7.76631 10.055ZM11.5397 14.702C11.5397 14.7328 11.5397 14.8148 11.3982 14.9502C11.2875 15.0568 11.066 15.2168 10.6374 15.3747C9.90322 15.6474 8.85732 15.8033 7.76426 15.8033C6.67119 15.8033 5.62529 15.6474 4.89111 15.3747C4.46455 15.2168 4.24307 15.0568 4.13027 14.9502C3.98877 14.8148 3.98877 14.7328 3.98877 14.702C3.98877 14.1852 4.08926 13.6848 4.28613 13.2111C4.47686 12.7558 4.75166 12.3457 5.09824 11.9929C5.81191 11.2711 6.75732 10.8732 7.76221 10.8732C8.76709 10.8732 9.7125 11.2711 10.4262 11.9929C10.7748 12.3457 11.0476 12.7558 11.2383 13.2111C11.4393 13.6848 11.5397 14.1873 11.5397 14.702Z" fill="#19B1B6"/>
<path d="M13.6685 8.05137C12.3354 8.05137 11.0742 8.70762 10.2908 9.80478C10.1596 9.98936 10.2026 10.2457 10.3872 10.377C10.5718 10.5082 10.8281 10.4651 10.9594 10.2806C11.589 9.39873 12.6 8.87168 13.6685 8.87168C15.5101 8.87168 17.0071 10.3893 17.0071 12.2555C17.0071 12.8933 15.5101 13.4142 13.6685 13.4142C13.4429 13.4142 13.2583 13.5987 13.2583 13.8243C13.2583 14.0499 13.4429 14.2345 13.6685 14.2345C14.6979 14.2345 15.6639 14.0868 16.3898 13.8161C17.5793 13.3731 17.8295 12.723 17.8295 12.2555C17.8295 9.93603 15.9633 8.05137 13.6685 8.05137ZM13.6685 7.82373C14.618 7.82373 15.3911 7.05059 15.3911 6.10107C15.3911 5.15156 14.618 4.37842 13.6685 4.37842C12.7189 4.37842 11.9458 5.15156 11.9458 6.10107C11.9458 7.05059 12.7189 7.82373 13.6685 7.82373ZM13.6685 5.19668C14.1668 5.19668 14.5708 5.60273 14.5708 6.09902C14.5708 6.59531 14.1647 7.00137 13.6685 7.00137C13.1701 7.00137 12.7661 6.59531 12.7661 6.09902C12.7661 5.60273 13.1701 5.19668 13.6685 5.19668Z" fill="#19B1B6"/>
</svg>
