<svg width="23" height="22" viewBox="0 0 23 22" fill="none" xmlns="http://www.w3.org/2000/svg">
<path fill-rule="evenodd" clip-rule="evenodd" d="M11.7016 21C17.5006 21 22.2016 16.299 22.2016 10.5C22.2016 4.70101 17.5006 0 11.7016 0C5.90261 0 1.2016 4.70101 1.2016 10.5C1.2016 12.0071 1.51913 13.4401 2.09092 14.7356L0 21.6934L7.2086 19.9929C8.57071 20.6387 10.094 21 11.7016 21Z" fill="#ECAA04"/>
<path d="M10.1376 12.402C10.0909 12.0287 10.1189 11.702 10.2216 11.422C10.3336 11.142 10.4876 10.89 10.6836 10.666C10.8889 10.442 11.1129 10.2367 11.3556 10.05C11.6076 9.86333 11.8409 9.68133 12.0556 9.504C12.2796 9.32667 12.4616 9.14467 12.6016 8.958C12.7416 8.77133 12.8116 8.566 12.8116 8.342C12.8116 8.062 12.7416 7.824 12.6016 7.628C12.4616 7.432 12.2563 7.28267 11.9856 7.18C11.7243 7.07733 11.4069 7.026 11.0336 7.026C10.6043 7.026 10.2123 7.11933 9.8576 7.306C9.50293 7.49267 9.15293 7.768 8.8076 8.132L7.6596 7.068C8.1076 6.55467 8.63493 6.144 9.2416 5.836C9.8576 5.51867 10.5343 5.36 11.2716 5.36C11.9529 5.36 12.5549 5.46267 13.0776 5.668C13.6096 5.87333 14.0249 6.186 14.3236 6.606C14.6316 7.01667 14.7856 7.53467 14.7856 8.16C14.7856 8.50533 14.7109 8.80867 14.5616 9.07C14.4216 9.322 14.2349 9.55067 14.0016 9.756C13.7776 9.952 13.5396 10.1433 13.2876 10.33C13.0356 10.5073 12.8023 10.694 12.5876 10.89C12.3729 11.086 12.2049 11.3053 12.0836 11.548C11.9623 11.7907 11.9156 12.0753 11.9436 12.402H10.1376ZM11.0476 16.126C10.6929 16.126 10.3989 16.0093 10.1656 15.776C9.93227 15.5427 9.8156 15.2487 9.8156 14.894C9.8156 14.53 9.93227 14.2313 10.1656 13.998C10.3989 13.7647 10.6929 13.648 11.0476 13.648C11.4023 13.648 11.6963 13.7647 11.9296 13.998C12.1629 14.2313 12.2796 14.53 12.2796 14.894C12.2796 15.2487 12.1629 15.5427 11.9296 15.776C11.6963 16.0093 11.4023 16.126 11.0476 16.126Z" fill="white"/>
</svg>
