<svg width="23" height="22" viewBox="0 0 23 22" fill="none" xmlns="http://www.w3.org/2000/svg">
<path fill-rule="evenodd" clip-rule="evenodd" d="M12.5 21C18.299 21 23 16.299 23 10.5C23 4.70101 18.299 0 12.5 0C6.70101 0 2 4.70101 2 10.5C2 12.0071 2.31752 13.4401 2.88932 14.7356L0.798397 21.6934L8.007 19.9929C9.3691 20.6387 10.8924 21 12.5 21Z" fill="#19B1B6"/>
<path d="M11.286 12.402L10.908 7.614L10.838 5.528H13.162L13.092 7.614L12.714 12.402H11.286ZM12 16.126C11.6453 16.126 11.3513 16.0093 11.118 15.776C10.8847 15.5427 10.768 15.2487 10.768 14.894C10.768 14.53 10.8847 14.2313 11.118 13.998C11.3513 13.7647 11.6453 13.648 12 13.648C12.3547 13.648 12.6487 13.7647 12.882 13.998C13.1153 14.2313 13.232 14.53 13.232 14.894C13.232 15.2487 13.1153 15.5427 12.882 15.776C12.6487 16.0093 12.3547 16.126 12 16.126Z" fill="white"/>
</svg>
