<svg width="26" height="26" viewBox="0 0 26 26" fill="none" xmlns="http://www.w3.org/2000/svg">
<circle cx="13" cy="13" r="13" fill="#A9A9A9"/>
<path d="M12.184 13.888L11.752 8.416L11.672 6.032H14.328L14.248 8.416L13.816 13.888H12.184ZM13 18.144C12.5947 18.144 12.2587 18.0107 11.992 17.744C11.7253 17.4773 11.592 17.1413 11.592 16.736C11.592 16.32 11.7253 15.9787 11.992 15.712C12.2587 15.4453 12.5947 15.312 13 15.312C13.4053 15.312 13.7413 15.4453 14.008 15.712C14.2747 15.9787 14.408 16.32 14.408 16.736C14.408 17.1413 14.2747 17.4773 14.008 17.744C13.7413 18.0107 13.4053 18.144 13 18.144Z" fill="white"/>
</svg>
