<svg width="19" height="19" viewBox="0 0 19 19" fill="none" xmlns="http://www.w3.org/2000/svg">
    <path d="M12.6739 6.7668C12.878 6.7668 13.0821 6.78565 13.2852 6.80347C12.739 4.26877 9.99905 2.375 6.87787 2.375C3.38766 2.38725 0.527769 4.74616 0.527769 7.7415C0.527769 9.46835 1.48109 10.8926 3.06466 11.9953L2.42547 13.8869L4.64825 12.7853C5.44458 12.9411 6.08382 13.0969 6.87002 13.0969C7.07412 13.0969 7.2682 13.088 7.46218 13.0701C7.33612 12.64 7.27083 12.1943 7.26819 11.7461C7.27719 8.99995 9.65699 6.76791 12.6751 6.76791L12.674 6.7668H12.6739ZM9.25777 5.05992C9.74 5.05992 10.054 5.37145 10.054 5.84988C10.054 6.31724 9.74 6.63992 9.25777 6.63992C8.78555 6.63992 8.30443 6.32728 8.30443 5.84987C8.30443 5.37145 8.78555 5.05992 9.25777 5.05992ZM4.8131 6.63992C4.34211 6.63992 3.85988 6.32728 3.85988 5.84987C3.85988 5.37145 4.34211 5.05992 4.8131 5.05992C5.28532 5.05992 5.60943 5.37145 5.60943 5.84988C5.60943 6.31724 5.29541 6.63992 4.8131 6.63992ZM18.4722 11.6804C18.4722 9.16351 15.9353 7.10617 13.0731 7.10617C10.0551 7.10617 7.67524 9.16351 7.67524 11.6804C7.67524 14.2062 10.0551 16.2557 13.0731 16.2557C13.7035 16.2557 14.3427 16.1 14.9809 15.9431L16.7215 16.8889L16.2404 15.3177C17.5189 14.3542 18.4722 13.0946 18.4722 11.6804ZM11.3236 10.8903C11.0096 10.8903 10.6843 10.5788 10.6843 10.2562C10.6843 9.94462 11.0096 9.62196 11.3236 9.62196C11.8058 9.62196 12.1199 9.93461 12.1199 10.2562C12.1199 10.5788 11.8058 10.8903 11.3236 10.8903ZM14.8149 10.8903C14.4998 10.8903 14.1846 10.5788 14.1846 10.2562C14.1846 9.94462 14.4986 9.62196 14.8149 9.62196C15.296 9.62196 15.6112 9.93461 15.6112 10.2562C15.6112 10.5788 15.296 10.8903 14.8149 10.8903Z"
          fill="#09BB07"/>
</svg>
