<svg width="15" height="15" viewBox="0 0 15 15" fill="none" xmlns="http://www.w3.org/2000/svg">
    <g clip-path="url(#clip0_584_197)">
        <path d="M12.6 0C13.92 0 15 1.08237 15 2.40474V10.1905C15 10.1905 14.52 10.1301 12.36 9.40895C11.76 9.19855 10.95 8.89776 10.05 8.56697C10.59 7.6354 11.01 6.55303 11.31 5.41105H8.34V4.35868H11.97V3.7575H8.34V1.98395H6.87C6.6 1.98395 6.6 2.25434 6.6 2.25434V3.7875H2.94V4.38868H6.6V5.41105H3.57V6.01184H9.45C9.24 6.76342 8.94 7.455 8.61 8.08618C6.72 7.45461 4.68 6.94382 3.39 7.27461C2.58 7.485 2.04 7.84579 1.74 8.20618C0.33 9.91974 1.35 12.5349 4.32 12.5349C6.09 12.5349 7.8 11.5429 9.12 9.91974C11.1 10.8817 15 12.5053 15 12.5053V12.5953C15 13.9176 13.92 15 12.6 15H2.4C1.08 15 0 13.918 0 12.5953V2.40474C0 1.08237 1.08 0 2.4 0H12.6ZM3.92763 8.10237C5.29066 7.9504 6.56526 8.4975 8.0771 9.25776C6.98013 10.6567 5.64632 11.5386 4.31289 11.5386C2.00092 11.5386 1.31921 9.68329 2.475 8.64987C2.86026 8.31513 3.54197 8.13276 3.92763 8.10237Z"
              fill="#00A0EA"/>
    </g>
    <defs>
        <clipPath id="clip0_584_197">
            <rect width="15" height="15" fill="white"/>
        </clipPath>
    </defs>
</svg>
