<svg width="38" height="37" viewBox="0 0 38 37" fill="none" xmlns="http://www.w3.org/2000/svg">
    <path fill-rule="evenodd" clip-rule="evenodd"
          d="M32.8569 13.574L37.5089 17.0741H37.5085C37.6611 17.1886 37.785 17.337 37.8703 17.5077C37.9556 17.6783 38 17.8665 38 18.0573C38 18.248 37.9556 18.4362 37.8703 18.6068C37.785 18.7775 37.6611 18.9259 37.5085 19.0404L32.8569 22.5405L34.5543 28.0955C34.6097 28.2783 34.6219 28.4714 34.5899 28.6597C34.5579 28.848 34.4827 29.0263 34.3701 29.1805C34.2575 29.3347 34.1106 29.4607 33.941 29.5486C33.7715 29.6364 33.5838 29.6837 33.3929 29.6866L27.5612 29.7926L25.66 35.2829C25.597 35.4636 25.493 35.6272 25.3561 35.761C25.2193 35.8948 25.0534 35.9951 24.8713 36.054C24.6892 36.1129 24.496 36.1289 24.3067 36.1007C24.1175 36.0725 23.9373 36.0009 23.7803 35.8915L19 32.5608L14.2197 35.8911C14.0628 36.0006 13.8826 36.0723 13.6933 36.1006C13.5041 36.1288 13.3108 36.1129 13.1287 36.054C12.9467 35.9951 12.7807 35.8948 12.6438 35.761C12.507 35.6273 12.403 35.4636 12.34 35.2829L10.4384 29.7926L4.60755 29.6866C4.41632 29.6831 4.22849 29.6355 4.0587 29.5475C3.88891 29.4594 3.74176 29.3334 3.62873 29.1791C3.51623 29.0251 3.44113 28.847 3.40936 28.6589C3.37758 28.4708 3.39001 28.278 3.44566 28.0955L5.14314 22.5405L0.491472 19.0404C0.33887 18.9259 0.215016 18.7775 0.129713 18.6068C0.0444094 18.4362 0 18.248 0 18.0573C0 17.8665 0.0444094 17.6783 0.129713 17.5077C0.215016 17.337 0.33887 17.1886 0.491472 17.0741L5.14314 13.5736L3.44525 8.01858C3.38997 7.83578 3.37787 7.64265 3.4099 7.45438C3.44194 7.26611 3.51723 7.08784 3.62986 6.93361C3.74248 6.77938 3.88937 6.65339 4.05895 6.56557C4.22853 6.47774 4.41618 6.43047 4.60714 6.42748L10.4384 6.32152L12.3396 0.830808C12.4027 0.650216 12.5068 0.486684 12.6437 0.353002C12.7805 0.21932 12.9465 0.119114 13.1285 0.0602221C13.3105 0.00132975 13.5037 -0.0146523 13.6929 0.0135263C13.8822 0.0417049 14.0623 0.11328 14.2193 0.222653L19 3.55328L23.7799 0.223065C23.9368 0.113602 24.117 0.0419416 24.3063 0.0136911C24.4955 -0.0145594 24.6887 0.00136649 24.8708 0.0602224C25.0529 0.119078 25.2189 0.219268 25.3558 0.352951C25.4927 0.486635 25.5968 0.650186 25.66 0.830808L27.5612 6.32152L33.3929 6.42748C33.5838 6.43045 33.7715 6.47771 33.941 6.56554C34.1106 6.65337 34.2575 6.77937 34.3701 6.93361C34.4827 7.08786 34.5579 7.26614 34.5899 7.45441C34.6219 7.64269 34.6097 7.83581 34.5543 8.01858L32.8569 13.574Z"
          fill="url(#paint0_linear_578_130)"/>
    <defs>
        <linearGradient id="paint0_linear_578_130" x1="19" y1="0" x2="19" y2="36.1143" gradientUnits="userSpaceOnUse">
            <stop stop-color="#A67F47"/>
            <stop offset="1" stop-color="#C5A067"/>
        </linearGradient>
    </defs>
</svg>
