<svg width="167" height="122" viewBox="0 0 167 122" fill="none" xmlns="http://www.w3.org/2000/svg">
    <g clip-path="url(#clip0_96_1044)">
        <path d="M150.508 42.9128H150.331C148.403 42.9106 146.555 42.1439 145.192 40.7809C143.829 39.418 143.062 37.57 143.06 35.6424V33.1599H121.426V32.8052H143.415V35.6424C143.417 37.4453 144.122 39.1762 145.381 40.4672C146.639 41.7582 148.351 42.5075 150.153 42.5559V32.8052H155.296C156.001 32.8044 156.677 32.5239 157.176 32.0253C157.675 31.5266 157.955 30.8506 157.956 30.1454V3.01453C157.955 2.30933 157.675 1.63325 157.176 1.13459C156.677 0.635942 156.001 0.355449 155.296 0.354651H87.5554C86.8502 0.355449 86.1741 0.635942 85.6754 1.13459C85.1767 1.63325 84.8962 2.30933 84.8954 3.01453V22.6977H84.5408V3.01453C84.5417 2.21531 84.8596 1.44907 85.4247 0.88393C85.9899 0.31879 86.7562 0.000899726 87.5554 0H155.296C156.095 0.000899726 156.862 0.31879 157.427 0.88393C157.992 1.44907 158.31 2.21531 158.311 3.01453V30.1454C158.31 30.9446 157.992 31.7108 157.427 32.276C156.862 32.8411 156.095 33.159 155.296 33.1599H150.508V42.9128Z"
              fill="#CCCCCC"/>
        <path d="M144.121 8.95671C144.098 8.38459 143.855 7.84331 143.443 7.4463C143.03 7.04928 142.48 6.82736 141.908 6.82703H100.944C100.356 6.82703 99.7922 7.06056 99.3765 7.47624C98.9608 7.89193 98.7273 8.45573 98.7273 9.0436C98.7273 9.63147 98.9608 10.1953 99.3765 10.6109C99.7922 11.0266 100.356 11.2602 100.944 11.2602H141.908C142.495 11.2594 143.058 11.0256 143.474 10.61C143.89 10.1945 144.123 9.63122 144.124 9.0436C144.125 9.01459 144.124 8.98557 144.121 8.95671Z"
              fill="#CCCCCC"/>
        <path d="M144.121 16.4043C144.098 15.8322 143.855 15.2909 143.443 14.8939C143.03 14.4969 142.48 14.275 141.908 14.2747H100.944C100.356 14.2747 99.7922 14.5082 99.3765 14.9239C98.9608 15.3396 98.7273 15.9034 98.7273 16.4912C98.7273 17.0791 98.9608 17.6429 99.3765 18.0586C99.7922 18.4743 100.356 18.7078 100.944 18.7078H141.908C142.495 18.707 143.058 18.4732 143.474 18.0577C143.89 17.6422 144.123 17.0788 144.124 16.4912C144.125 16.4622 144.124 16.4332 144.121 16.4043Z"
              fill="#CCCCCC"/>
        <path d="M144.121 23.8521C144.098 23.28 143.856 22.7387 143.443 22.3417C143.03 21.9447 142.48 21.7227 141.908 21.7224H100.944C100.619 21.7224 100.298 21.7939 100.004 21.9318C99.7098 22.0697 99.4495 22.2707 99.2416 22.5204C99.1505 22.6309 99.0697 22.7496 99.0005 22.875H118.589C119.294 22.8759 119.97 23.1564 120.468 23.655C120.967 24.1537 121.248 24.8297 121.248 25.5349V26.1556H141.908C142.495 26.1547 143.059 25.9209 143.474 25.5054C143.89 25.0899 144.123 24.5266 144.124 23.939C144.125 23.91 144.124 23.881 144.121 23.8521Z"
              fill="#CCCCCC"/>
        <path d="M4.34783 121.416C4.44429 121.495 4.54081 121.571 4.63957 121.645H29.0056C29.1871 121.571 29.3678 121.494 29.5478 121.416C32.1201 120.296 34.5143 118.806 36.6541 116.991C38.0749 115.788 39.3819 114.545 40.3295 113.38C41.6515 111.755 42.869 109.984 43.4353 107.966C44.0004 105.948 43.8316 103.635 42.5693 101.962C42.1784 101.447 41.6979 101.007 41.1508 100.663C41.06 100.605 40.9681 100.55 40.874 100.498C39.3035 99.653 37.4716 99.4327 35.7455 99.8815C33.3048 100.512 31.2764 102.273 29.8292 104.338C28.382 106.402 27.4424 108.772 26.5167 111.117C25.5771 106.932 22.7321 103.185 18.8889 101.279C15.0469 99.3739 10.2734 99.3968 6.51292 101.461C5.32971 102.114 4.26091 102.956 3.34854 103.953C3.25785 104.051 3.16935 104.151 3.08209 104.252C1.24783 106.375 0.100369 109.095 0.00620418 111.9C-0.036132 113.711 0.332534 115.508 1.0845 117.156C1.83647 118.804 2.95219 120.261 4.34783 121.416Z"
              fill="#F2F2F2"/>
        <path d="M28.0315 121.645H28.3761C28.3806 121.568 28.3864 121.493 28.3933 121.416C28.5137 119.913 28.7659 118.424 29.1468 116.966C30.0207 113.637 31.5134 110.502 33.547 107.725C35.5748 104.939 38.1311 102.579 41.0702 100.781C41.0917 100.769 41.1101 100.751 41.1241 100.731C41.138 100.71 41.1471 100.687 41.1506 100.663C41.1562 100.63 41.1526 100.597 41.1402 100.567C41.1278 100.537 41.107 100.511 41.0804 100.493C41.0538 100.474 41.0225 100.463 40.9899 100.461C40.9574 100.46 40.9251 100.467 40.8968 100.483C40.8889 100.488 40.8812 100.493 40.8738 100.498C39.2086 101.513 37.6629 102.712 36.2657 104.073C33.7664 106.51 31.7512 109.399 30.3264 112.587C29.0693 115.378 28.2994 118.364 28.0498 121.416C28.0429 121.493 28.0372 121.57 28.0315 121.645Z"
              fill="white"/>
        <path d="M3.08202 104.252C3.08452 104.253 3.08725 104.254 3.09005 104.254C3.34158 104.3 3.59429 104.348 3.8447 104.4C5.90011 104.822 7.91217 105.433 9.85525 106.225C11.7932 107.016 13.6574 107.977 15.4259 109.096C17.1967 110.215 18.8665 111.487 20.4165 112.896C21.9664 114.303 23.3882 115.845 24.6651 117.504C25.6194 118.747 26.4871 120.054 27.262 121.416C27.3056 121.492 27.3482 121.568 27.3907 121.645H27.7846C27.7433 121.568 27.7008 121.492 27.6571 121.416C26.7196 119.747 25.6447 118.159 24.4434 116.669C23.115 115.019 21.6424 113.492 20.0432 112.103C18.4541 110.723 16.7486 109.482 14.9458 108.396C13.1354 107.305 11.2321 106.376 9.25797 105.621C7.34226 104.889 5.36442 104.33 3.34848 103.953C3.29223 103.943 3.2371 103.933 3.18079 103.922C2.96605 103.883 2.87413 104.207 3.08202 104.252Z"
              fill="white"/>
        <path d="M9.93368 116.241C12.3331 115.911 14.7698 115.966 17.152 116.404C19.5272 116.838 21.8202 117.64 23.9485 118.78C25.1445 119.423 26.2798 120.173 27.3401 121.021C27.5133 121.159 27.2681 121.402 27.0965 121.265C25.2358 119.785 23.1501 118.612 20.9186 117.792C18.7047 116.973 16.3776 116.501 14.0197 116.392C12.6855 116.331 11.3485 116.392 10.0253 116.574C9.98128 116.584 9.93492 116.578 9.89557 116.555C9.85623 116.533 9.82684 116.497 9.81334 116.453C9.80147 116.409 9.80745 116.362 9.82998 116.323C9.8525 116.283 9.88977 116.254 9.93368 116.241Z"
              fill="white"/>
        <path d="M118.411 22.875H50.6706C49.8715 22.8761 49.1053 23.1941 48.5402 23.7592C47.9751 24.3243 47.6571 25.0904 47.656 25.8895V53.0204C47.6571 53.8195 47.9751 54.5856 48.5402 55.1507C49.1053 55.7158 49.8715 56.0338 50.6706 56.0349H55.4586V65.7878H55.6359C57.5636 65.7858 59.4117 65.0191 60.7748 63.6561C62.1378 62.2931 62.9045 60.445 62.9065 58.5174V56.0349H118.411C119.21 56.0338 119.977 55.7158 120.542 55.1507C121.107 54.5856 121.425 53.8195 121.426 53.0204V25.8895C121.425 25.0904 121.107 24.3243 120.542 23.7592C119.977 23.1941 119.21 22.8761 118.411 22.875ZM121.071 53.0204C121.07 53.7255 120.79 54.4016 120.291 54.9002C119.793 55.3989 119.116 55.6794 118.411 55.6802H62.5519V58.5174C62.5494 60.3202 61.8441 62.051 60.5858 63.342C59.3275 64.633 57.6154 65.3826 55.8133 65.4314V55.6802H50.6706C49.9654 55.6794 49.2894 55.3989 48.7907 54.9002C48.292 54.4016 48.0115 53.7255 48.0107 53.0204V25.8895C48.0115 25.1844 48.292 24.5083 48.7907 24.0097C49.2894 23.511 49.9654 23.2305 50.6706 23.2297H118.411C119.116 23.2305 119.793 23.511 120.291 24.0097C120.79 24.5083 121.07 25.1844 121.071 25.8895V53.0204Z"
              fill="#3F3D56"/>
        <path d="M105.023 29.702H64.0591C63.4865 29.7024 62.9363 29.9243 62.5237 30.3213C62.1112 30.7183 61.8683 31.2596 61.846 31.8317C61.843 31.8606 61.8418 31.8896 61.8424 31.9186C61.8433 32.5062 62.0771 33.0695 62.4926 33.485C62.9081 33.9005 63.4714 34.1343 64.0591 34.1352H105.023C105.611 34.1352 106.174 33.9016 106.59 33.4859C107.006 33.0703 107.239 32.5065 107.239 31.9186C107.239 31.3307 107.006 30.7669 106.59 30.3512C106.174 29.9356 105.611 29.702 105.023 29.702Z"
              fill="#19B1B6"/>
        <path d="M105.023 37.1497H64.0591C63.4865 37.15 62.9363 37.3719 62.5237 37.7689C62.1112 38.1659 61.8683 38.7072 61.846 39.2793C61.843 39.3082 61.8418 39.3372 61.8424 39.3662C61.8433 39.9538 62.0771 40.5172 62.4926 40.9327C62.9081 41.3482 63.4714 41.582 64.0591 41.5828H105.023C105.611 41.5828 106.174 41.3493 106.59 40.9336C107.006 40.5179 107.239 39.9541 107.239 39.3662C107.239 38.7784 107.006 38.2146 106.59 37.7989C106.174 37.3832 105.611 37.1497 105.023 37.1497Z"
              fill="#19B1B6"/>
        <path d="M105.023 44.5974H64.0591C63.4865 44.5977 62.9363 44.8197 62.5237 45.2167C62.1112 45.6137 61.8683 46.155 61.846 46.7271C61.843 46.756 61.8418 46.785 61.8424 46.814C61.8433 47.4016 62.0771 47.9649 62.4926 48.3804C62.9081 48.7959 63.4714 49.0297 64.0591 49.0306H105.023C105.611 49.0306 106.174 48.797 106.59 48.3813C107.006 47.9656 107.239 47.4019 107.239 46.814C107.239 46.2261 107.006 45.6623 106.59 45.2466C106.174 44.8309 105.611 44.5974 105.023 44.5974Z"
              fill="#19B1B6"/>
        <path d="M39.851 83.8253C39.7712 83.8254 39.6914 83.8203 39.6122 83.8103C39.3393 83.7769 39.0766 83.6861 38.8413 83.5441C38.606 83.402 38.4033 83.2118 38.2466 82.986C38.0899 82.7601 37.9827 82.5037 37.932 82.2336C37.8813 81.9634 37.8882 81.6856 37.9524 81.4183C37.9676 81.3562 37.986 81.295 38.0075 81.2348L32.0908 73.6605C31.8304 73.3244 31.6852 72.9133 31.6769 72.4882C31.6686 72.0631 31.7976 71.6466 32.0447 71.3006L34.1172 68.4222L36.826 70.512L35.7377 72.3814L40.0474 79.9352C40.134 79.9432 40.22 79.9572 40.3047 79.9771C40.769 80.0887 41.1763 80.3667 41.4494 80.7584C41.7225 81.1502 41.8425 81.6285 41.7866 82.1027C41.7306 82.5769 41.5027 83.0142 41.146 83.3317C40.7893 83.6492 40.3285 83.8248 39.851 83.8253Z"
              fill="#A0616A"/>
        <path d="M50.0902 119.716L52.2643 119.715L53.2985 111.33L50.0898 111.33L50.0902 119.716Z" fill="#A0616A"/>
        <path d="M56.4573 121.734L49.6246 121.734L49.6244 119.095L53.8172 119.094C54.1639 119.094 54.5072 119.163 54.8275 119.295C55.1478 119.428 55.4388 119.622 55.684 119.867C55.9291 120.113 56.1236 120.404 56.2563 120.724C56.389 121.044 56.4573 121.387 56.4573 121.734Z"
              fill="#2F2E41"/>
        <path d="M32.1798 119.716L34.3539 119.715L35.3881 111.33L32.1794 111.33L32.1798 119.716Z" fill="#A0616A"/>
        <path d="M38.5466 121.734L31.7139 121.734L31.7138 119.095L35.9066 119.094C36.2533 119.094 36.5966 119.163 36.9169 119.295C37.2372 119.428 37.5282 119.622 37.7733 119.867C38.0185 120.113 38.2129 120.404 38.3456 120.724C38.4783 121.044 38.5466 121.387 38.5466 121.734Z"
              fill="#2F2E41"/>
        <path d="M33.5142 68.8306L38.3951 70.6853L39.5868 67.3752C39.7451 66.9357 39.7428 66.4544 39.5805 66.0163C39.4182 65.5783 39.1062 65.2117 38.6998 64.9814C38.2887 64.7484 37.8077 64.6702 37.3439 64.7607C36.8801 64.8512 36.4639 65.1047 36.1706 65.4752L33.5142 68.8306Z"
              fill="#19B1B6"/>
        <path d="M49.7038 112.947C49.5089 112.946 49.3196 112.881 49.1657 112.762C49.0119 112.642 48.9022 112.475 48.8539 112.286C46.4199 102.974 43.9485 98.3071 41.2984 92.9103C41.2322 92.7757 41.1247 92.6658 40.9917 92.5965C40.8586 92.5273 40.707 92.5022 40.5587 92.5251C40.4105 92.5479 40.2734 92.6175 40.1674 92.7237C40.0614 92.8298 39.992 92.967 39.9694 93.1153L36.6845 112.098C36.6517 112.31 36.5431 112.502 36.3788 112.64C36.2145 112.777 36.0059 112.851 35.7916 112.846L30.9148 112.727C30.7964 112.724 30.6798 112.698 30.572 112.649C30.4642 112.6 30.3674 112.53 30.2874 112.443C30.203 112.359 30.1384 112.258 30.0984 112.146C30.0584 112.034 30.044 111.915 30.0562 111.796C32.2651 97.2299 34.0042 84.0447 37.3486 80.0223C37.4413 79.9345 37.5476 79.8622 37.6634 79.8083L37.5619 79.7927C37.5329 79.7882 37.4557 79.7764 37.4547 79.6988L37.4538 79.6237L37.53 79.6093C37.6518 79.605 37.7734 79.6233 37.8885 79.6632L45.5216 80.8379C45.7331 80.8704 45.9255 80.9788 46.063 81.1427C46.2005 81.3066 46.2736 81.5149 46.2689 81.7288C46.6839 83.67 47.3198 86.6001 47.3767 86.7444C51.4493 94.4868 53.0296 100.583 54.6721 110.994C54.7062 111.215 54.6554 111.44 54.53 111.625C54.4046 111.81 54.2139 111.941 53.9962 111.991L49.9026 112.924C49.8373 112.939 49.7707 112.947 49.7038 112.947Z"
              fill="#2F2E41"/>
        <path d="M45.4203 82.1073C45.3518 82.1073 45.2835 82.0993 45.2169 82.0834L37.7018 80.2958C37.5867 80.2689 37.4782 80.2187 37.3832 80.1482C37.2882 80.0778 37.2086 79.9887 37.1493 79.8863C37.0882 79.7804 37.0491 79.6633 37.0344 79.5419C37.0196 79.4205 37.0295 79.2974 37.0635 79.18C37.8739 76.3705 36.8113 72.8879 35.5423 69.543C35.3808 68.5648 35.5389 67.5607 35.9931 66.6795C36.4473 65.7983 37.1734 65.0869 38.0638 64.6509L38.0842 64.641L42.0297 64.8401C42.6776 65.01 43.2785 65.3245 43.7874 65.76C44.2962 66.1955 44.6997 66.7407 44.9676 67.3545C46.4883 70.9136 46.9238 75.4805 46.2986 81.3163C46.2756 81.5333 46.1732 81.7341 46.0111 81.8801C45.8489 82.0262 45.6385 82.1071 45.4203 82.1073Z"
              fill="#19B1B6"/>
        <path d="M46.4312 73.9833C46.03 73.9841 45.6386 73.8597 45.3116 73.6274L42.4009 71.5528L44.4776 68.8341L46.3523 69.9134L53.8856 65.5676C53.8931 65.4809 53.9067 65.3949 53.9262 65.3101C54.0145 64.9345 54.2122 64.5936 54.4942 64.3304C54.7763 64.0672 55.1301 63.8935 55.5108 63.8314C55.8916 63.7692 56.2822 63.8214 56.6334 63.9812C56.9845 64.1411 57.2803 64.4015 57.4835 64.7295C57.6866 65.0574 57.7879 65.4383 57.7746 65.8238C57.7612 66.2094 57.6339 66.5824 57.4086 66.8955C57.1833 67.2087 56.8702 67.448 56.5089 67.5833C56.1476 67.7185 55.7543 67.7436 55.3787 67.6553C55.3166 67.6404 55.2553 67.6223 55.195 67.6011L47.6275 73.571C47.2864 73.8389 46.865 73.9841 46.4312 73.9833Z"
              fill="#A0616A"/>
        <path d="M41.4775 72.3994L45.7952 69.4634L43.7661 66.5895C43.4966 66.2079 43.1009 65.9338 42.649 65.8157C42.197 65.6976 41.7178 65.743 41.2961 65.944C40.8695 66.1474 40.5297 66.4965 40.338 66.9285C40.1463 67.3604 40.1154 67.8466 40.2508 68.2994L41.4775 72.3994Z"
              fill="#19B1B6"/>
        <path d="M39.4009 63.1674C41.8063 63.1674 43.7563 61.2174 43.7563 58.8121C43.7563 56.4067 41.8063 54.4568 39.4009 54.4568C36.9954 54.4568 35.0454 56.4067 35.0454 58.8121C35.0454 61.2174 36.9954 63.1674 39.4009 63.1674Z"
              fill="#A0616A"/>
        <path d="M39.8001 63.268C39.1464 63.2652 38.6421 62.577 38.6714 61.9239C38.7007 61.2709 39.1393 60.6963 39.6677 60.3115C40.1962 59.9267 40.8159 59.6923 41.4052 59.4094C41.9945 59.1265 42.5787 58.7736 42.9425 58.2305C43.1624 57.875 43.2936 57.472 43.3251 57.0553C43.3567 56.6386 43.2877 56.2203 43.124 55.8358C42.7854 55.0668 42.204 54.4299 41.4689 54.0228C40.377 53.3837 39.0843 53.1793 37.8484 53.4504C36.6125 53.7215 35.5241 54.4483 34.8 55.4858L34.0538 57.5176C33.2934 58.4319 33.1728 59.7897 33.6402 60.8832C34.1077 61.9766 35.1029 62.7993 36.2259 63.1904C37.3653 63.5566 38.5851 63.5932 39.7444 63.2959"
              fill="#2F2E41"/>
        <path d="M35.0938 56.7472C34.7954 56.2871 34.3884 55.9075 33.9087 55.6418C33.429 55.3762 32.8913 55.2326 32.343 55.2238C31.7947 55.215 31.2526 55.3412 30.7646 55.5914C30.2766 55.8415 29.8577 56.2078 29.5447 56.6581C29.0208 57.4118 28.8305 58.3409 28.4702 59.1851C27.8178 60.6971 26.6311 61.9156 25.137 62.608C26.4452 62.8381 27.7485 62.1726 28.7944 61.3537C29.8403 60.5349 30.7602 59.5355 31.9315 58.9092C32.853 58.4182 33.8882 58.1805 34.9316 58.2202"
              fill="#2F2E41"/>
        <path d="M71.7541 122H4.19076C4.14373 122 4.09862 121.981 4.06537 121.948C4.03211 121.915 4.01343 121.87 4.01343 121.823C4.01343 121.776 4.03211 121.731 4.06537 121.697C4.09862 121.664 4.14373 121.645 4.19076 121.645H71.7541C71.8011 121.645 71.8462 121.664 71.8794 121.697C71.9127 121.731 71.9314 121.776 71.9314 121.823C71.9314 121.87 71.9127 121.915 71.8794 121.948C71.8462 121.981 71.8011 122 71.7541 122Z"
              fill="#3F3D56"/>
        <path d="M156.538 64.9011C162.316 64.9011 167 60.217 167 54.4389C167 48.6608 162.316 43.9767 156.538 43.9767C150.759 43.9767 146.075 48.6608 146.075 54.4389C146.075 60.217 150.759 64.9011 156.538 64.9011Z"
              fill="#E6E6E6"/>
        <path d="M157.535 61.8959C157.109 61.884 156.579 61.8691 156.17 61.5708C156.049 61.4783 155.949 61.3603 155.878 61.2252C155.806 61.09 155.766 60.9408 155.758 60.7882C155.751 60.6798 155.768 60.5711 155.81 60.4706C155.852 60.3702 155.916 60.2807 155.998 60.2092C156.119 60.1184 156.262 60.0594 156.412 60.0378C156.563 60.0161 156.716 60.0325 156.858 60.0853L156.511 57.5432L156.766 57.5082L157.175 60.4968L156.962 60.399C156.714 60.2856 156.375 60.2279 156.164 60.4061C156.112 60.4526 156.072 60.5105 156.046 60.5752C156.02 60.6399 156.01 60.7097 156.016 60.7791C156.022 60.8927 156.052 61.0036 156.105 61.1043C156.158 61.205 156.232 61.2931 156.322 61.3627C156.64 61.5949 157.063 61.6248 157.542 61.6383L157.535 61.8959Z"
              fill="#3F3D56"/>
        <path d="M155.248 57.7625H153.859V58.0202H155.248V57.7625Z" fill="#3F3D56"/>
        <path d="M159.63 57.7625H158.241V58.0202H159.63V57.7625Z" fill="#3F3D56"/>
        <path d="M151.448 54.2032C150.33 54.0758 149.464 53.0047 149.369 51.9179C149.256 50.6251 150.009 49.3971 151.042 48.6716C152.122 47.9129 153.468 47.5961 154.77 47.5264C157.31 47.3999 159.807 48.2228 161.774 49.8349C162.75 50.6454 163.661 51.6777 164.007 52.9246C164.307 54.0075 164.063 55.2343 163.192 55.9927C162.976 56.1786 162.725 56.3178 162.453 56.4015C162.181 56.4852 161.894 56.5117 161.612 56.4792C160.936 56.409 160.312 56.0537 159.773 55.6612C158.723 54.8979 157.861 53.8344 156.581 53.4355C155.644 53.143 154.426 53.4005 153.853 54.2486C153.723 54.4428 153.639 54.6639 153.607 54.8954C153.595 54.9448 153.602 54.9968 153.627 55.0409C153.652 55.0851 153.693 55.1181 153.742 55.1332C153.791 55.1465 153.844 55.1398 153.888 55.1145C153.933 55.0892 153.966 55.0474 153.98 54.9982C154.13 53.9299 155.444 53.5313 156.365 53.7752C157.709 54.131 158.612 55.3302 159.714 56.0922C160.285 56.5178 160.958 56.7862 161.665 56.8706C162.278 56.9187 162.886 56.7318 163.366 56.3479C164.308 55.604 164.668 54.3246 164.46 53.1728C164.219 51.8389 163.321 50.6956 162.336 49.8105C160.339 48.0352 157.746 47.0774 155.075 47.1281C153.712 47.1594 152.29 47.4407 151.116 48.161C149.977 48.8596 149.097 50.0283 148.982 51.3869C148.881 52.5827 149.522 53.8335 150.624 54.3573C150.884 54.4803 151.162 54.5589 151.448 54.5899C151.694 54.618 151.692 54.2312 151.448 54.2032Z"
              fill="#3F3D56"/>
    </g>
    <defs>
        <clipPath id="clip0_96_1044">
            <rect width="167" height="122" fill="white"/>
        </clipPath>
    </defs>
</svg>
