<svg width="14" height="13" viewBox="0 0 14 13" fill="none" xmlns="http://www.w3.org/2000/svg">
    <g clip-path="url(#clip0_476_83)">
        <path d="M12.2341 4.79023C12.2341 4.41276 12.087 4.05781 11.8202 3.79109C11.6894 3.65947 11.5339 3.5551 11.3625 3.48404C11.1911 3.41297 11.0073 3.37663 10.8218 3.3771C10.6361 3.37657 10.4522 3.41289 10.2806 3.48396C10.1091 3.55502 9.95337 3.65941 9.82247 3.79109C9.69086 3.922 9.58653 4.07771 9.51552 4.24922C9.4445 4.42072 9.40821 4.6046 9.40875 4.79023C9.40875 5.16724 9.55566 5.52184 9.82265 5.78882C9.87789 5.84415 9.93774 5.89279 9.99995 5.93764C9.52547 6.41239 8.77216 6.54556 8.15691 6.21403C7.68876 5.96187 7.32359 5.52392 7.18146 5.0507C7.11989 4.76546 7.27368 4.0588 7.28191 4.03692C7.72023 3.79679 8.01813 3.3309 8.01813 2.79675C8.01813 2.42001 7.87121 2.0655 7.60423 1.79843C7.47348 1.66686 7.31792 1.56253 7.14658 1.49148C6.97523 1.42043 6.79149 1.38408 6.606 1.38453C6.42033 1.38401 6.23641 1.42032 6.06488 1.49137C5.89334 1.56241 5.7376 1.66678 5.60668 1.79843C5.4751 1.92919 5.37076 2.08476 5.29971 2.25612C5.22867 2.42749 5.19232 2.61124 5.19278 2.79675C5.19225 2.98244 5.22856 3.1664 5.29961 3.33796C5.37065 3.50953 5.47503 3.66529 5.60668 3.79625C5.71701 3.90613 5.84477 3.99699 5.98478 4.06513C5.98776 4.07128 5.99021 4.07752 5.99346 4.08348C6.02366 4.13963 6.14427 4.77296 6.06832 5.05125C5.92421 5.52925 5.55379 5.97389 5.0794 6.22949C4.4449 6.57097 3.6849 6.43861 3.20093 5.94469C3.56402 5.68883 3.80216 5.26724 3.80216 4.79032C3.80216 4.41231 3.65561 4.05735 3.38935 3.79118C3.12254 3.5242 2.76759 3.37719 2.39003 3.37719C2.01247 3.37719 1.65761 3.5242 1.39071 3.79118C1.2591 3.92209 1.15475 4.0778 1.08371 4.2493C1.01266 4.4208 0.97633 4.60469 0.976811 4.79032C0.976375 4.97588 1.01275 5.15968 1.08383 5.33109C1.1549 5.5025 1.25927 5.65811 1.39089 5.78891C1.55939 5.95781 1.76815 6.08097 1.99746 6.14676L3.17724 11.0437C3.20571 11.1621 3.27321 11.2675 3.36886 11.3428C3.46451 11.4182 3.58275 11.4592 3.70452 11.4591H9.50729C9.62906 11.4592 9.74729 11.4182 9.84294 11.3428C9.93859 11.2675 10.0061 11.1621 10.0346 11.0437L11.2145 6.14595C11.8026 5.97516 12.2341 5.43269 12.2341 4.79023Z"
              fill="white"/>
    </g>
    <defs>
        <clipPath id="clip0_476_83">
            <rect width="12.814" height="12.814" fill="white" transform="translate(0.237366 0.0150146)"/>
        </clipPath>
    </defs>
</svg>
