<svg width="26" height="21" viewBox="0 0 26 21" fill="none" xmlns="http://www.w3.org/2000/svg">
    <path d="M14.3094 0.481702C14.4047 0.562336 14.4926 0.651605 14.572 0.748408L18.4553 5.4826L22.7389 2.26897C23.0778 2.01471 23.4856 1.87292 23.9068 1.86297C24.3279 1.85302 24.7418 1.97539 25.0919 2.21337C25.442 2.45135 25.7113 2.79334 25.8629 3.19261C26.0145 3.59189 26.0411 4.02898 25.939 4.44418L21.8648 21H4.13566L0.0613765 4.44487C-0.0410833 4.02957 -0.0147818 3.59225 0.136685 3.19271C0.288152 2.79316 0.557392 2.4509 0.907594 2.2127C1.2578 1.97451 1.67187 1.85201 2.0932 1.86196C2.51452 1.87191 2.92255 2.01382 3.26148 2.26828L7.5451 5.4826L11.4285 0.748408C11.6004 0.538624 11.8113 0.36531 12.0492 0.238367C12.2871 0.111424 12.5473 0.0333384 12.8149 0.00857113C13.0825 -0.0161962 13.3523 0.0128402 13.6088 0.0940215C13.8654 0.175203 14.1037 0.306938 14.3101 0.481702H14.3094ZM17.7734 15.0888H8.22699V17.3056H17.7734V15.0888Z"
          fill="#FFDFB6" fill-opacity="0.5"/>
</svg>
