<svg width="11" height="11" viewBox="0 0 11 11" fill="none" xmlns="http://www.w3.org/2000/svg">
    <path d="M7.01226 6.86375L7.01663 6.65192C8.02334 5.94874 8.51251 4.70836 8.51251 2.87181C8.51251 1.10077 7.40534 0.0438232 5.54913 0.0438232H5.44868C3.59465 0.0438232 2.4853 1.10077 2.4853 2.87181C2.4853 4.69963 2.97883 5.94001 3.99428 6.64755V6.86156C2.30404 7.08868 0.609436 7.76128 0.609436 8.78983C0.609436 10.2289 2.25382 10.9583 5.4989 10.9583C8.74399 10.9583 10.3884 10.2289 10.3884 8.78983C10.3884 7.76346 8.69813 7.09086 7.01226 6.86375Z"
          fill="url(#paint0_linear_476_95)"/>
    <defs>
        <linearGradient id="paint0_linear_476_95" x1="5.4989" y1="0.0438232" x2="5.4989" y2="10.9583"
                        gradientUnits="userSpaceOnUse">
            <stop stop-color="#FDFEF6"/>
            <stop offset="1" stop-color="#F6D6B0"/>
        </linearGradient>
    </defs>
</svg>
